<svg xmlns="http://www.w3.org/2000/svg" width="23.158" height="21.095" viewBox="0 0 23.158 21.095">
  <g id="icono_servicio" transform="translate(-5.235 -8.824)">
    <path id="Trazado_44956" data-name="Trazado 44956" d="M12.137,10.076A9.353,9.353,0,0,0,7.47,17.894l-.222.059c-1.641.439-2.437,2.75-1.785,5.181s2.5,4.033,4.138,3.594l.966-.26c.515-.138.767-.852.565-1.6L9.664,19.391V18.178a7.15,7.15,0,1,1,14.3,0V19.4l-1.382,5.153a7.238,7.238,0,0,1-2.138,1.877,6.986,6.986,0,0,1-1.324.586,1.1,1.1,0,0,0-.927-.658H15.106c-.652,0-1.173.753-1.173,1.689v.187c0,.934.522,1.688,1.173,1.688h3.087a1.182,1.182,0,0,0,1.019-.858,9.08,9.08,0,0,0,4.235-2.489l.581.156c1.64.439,3.487-1.165,4.137-3.594s-.144-4.742-1.786-5.181l-.222-.061a9.351,9.351,0,0,0-14.021-7.816Z" transform="translate(0 0)" fill="#fff"/>
  </g>
</svg>
