<svg xmlns="http://www.w3.org/2000/svg" width="21.834" height="17.945" viewBox="0 0 21.834 17.945">
  <g id="icono_finanzas" transform="translate(-15.8 -21.9)">
    <path id="Trazado_44950" data-name="Trazado 44950" d="M35.977,25.566H33.044v-.829A2.843,2.843,0,0,0,30.207,21.9H23.227a2.843,2.843,0,0,0-2.837,2.837v.829H17.457A1.646,1.646,0,0,0,15.8,27.223V38.188a1.646,1.646,0,0,0,1.657,1.657H35.977a1.646,1.646,0,0,0,1.657-1.657V27.223A1.687,1.687,0,0,0,35.977,25.566ZM29.7,34.49A1.962,1.962,0,0,1,29,35.7a3.085,3.085,0,0,1-.988.574c-.127.032-.159.1-.159.223v1.116H25.681v-1.02a.248.248,0,0,0-.191-.287,2.771,2.771,0,0,1-1.339-.892,1.8,1.8,0,0,1-.414-1.147H25.9a.915.915,0,0,0,1.434.414.524.524,0,0,0,.032-.829.919.919,0,0,0-.637-.223,3.379,3.379,0,0,1-1.689-.382A2.3,2.3,0,0,1,23.8,31.877a1.913,1.913,0,0,1,.8-2.1,5.079,5.079,0,0,1,.924-.478c.1-.064.159-.1.159-.223v-.733h2.167v.8c0,.1.032.128.127.191a2.817,2.817,0,0,1,1.211.765,1.865,1.865,0,0,1,.542,1.275h-2.04c-.1,0-.191,0-.191-.128,0-.064-.032-.1-.064-.159a.994.994,0,0,0-1.466-.032.494.494,0,0,0,.064.669.959.959,0,0,0,.7.255,3.168,3.168,0,0,1,2.1.7A1.836,1.836,0,0,1,29.7,34.49Zm1.721-8.925H21.984v-.829a1.245,1.245,0,0,1,1.243-1.243h6.949a1.245,1.245,0,0,1,1.243,1.243Z" fill="#fff"/>
  </g>
</svg>
