<svg xmlns="http://www.w3.org/2000/svg" width="21.187" height="17" viewBox="0 0 21.187 17">
  <g id="Icono_logistica" transform="translate(-11 -3.863)">
    <path id="Trazado_44952" data-name="Trazado 44952" d="M42.756,21a4.756,4.756,0,1,0,4.756,4.756A4.756,4.756,0,0,0,42.756,21Zm3.318,3.778L44.624,26.1l.7,2.112a.432.432,0,0,1-.646.5l-1.926-1.252L40.83,28.715a.432.432,0,0,1-.651-.482l.613-2.131-1.365-1.334a.432.432,0,0,1,.25-.739l1.857-.224.833-1.7a.4.4,0,0,1,.391-.242.432.432,0,0,1,.389.248l.8,1.693,1.888.224a.432.432,0,0,1,.24.748Z" transform="translate(-15.326 -9.65)" fill="#fff"/>
    <path id="Trazado_44953" data-name="Trazado 44953" d="M46.778,27.4l-.519-1.1-.541,1.1a.432.432,0,0,1-.336.239l-1.194.144.9.883a.432.432,0,0,1,.113.428l-.364,1.264,1.19-.774a.432.432,0,0,1,.471,0l1.124.731-.4-1.205a.432.432,0,0,1,.118-.456l.959-.876-1.188-.141A.432.432,0,0,1,46.778,27.4Z" transform="translate(-18.838 -12.662)" fill="#fff"/>
    <path id="Trazado_44954" data-name="Trazado 44954" d="M27.43,10.486a5.6,5.6,0,0,1,1.73.275V4H22.674V8.756a.432.432,0,0,1-.432.432H17.918a.432.432,0,0,1-.432-.432V4H11V17.836H22.084a5.615,5.615,0,0,1,5.346-7.35ZM11.991,7.153l1.73-1.73a.432.432,0,0,1,.611,0l1.73,1.73a.432.432,0,0,1-.306.738h-.432v.865a.432.432,0,0,1-.432.432h-1.73a.432.432,0,0,1-.432-.432V7.891H12.3a.432.432,0,0,1-.306-.738Zm8.521,9.386a.432.432,0,0,1-.432.432H12.3a.432.432,0,0,1-.432-.432V13.945a.432.432,0,0,1,.432-.432H20.08a.432.432,0,0,1,.432.432Z" fill="#fff"/>
    <path id="Trazado_44955" data-name="Trazado 44955" d="M16.632,10.532V11.4H17.5v-.865a.432.432,0,0,1,.281-.405l-.713-.713-.713.713a.432.432,0,0,1,.281.405Z" transform="translate(-3.037 -3.073)" fill="#fff"/>
    <rect id="Rect치ngulo_1941" data-name="Rect치ngulo 1941" width="3" height="4" transform="translate(19.018 3.863)" fill="#fff"/>
    <rect id="Rect치ngulo_1942" data-name="Rect치ngulo 1942" width="7" height="2" transform="translate(12.018 13.863)" fill="#fff"/>
  </g>
</svg>
