<svg xmlns="http://www.w3.org/2000/svg" width="21.541" height="21.541" viewBox="0 0 21.541 21.541">
  <g id="icono_gerencia" transform="translate(-1 -1)">
    <g id="Grupo_7337" data-name="Grupo 7337" transform="translate(1 1)">
      <g id="Grupo_7334" data-name="Grupo 7334" transform="translate(8.661 7.135)">
        <path id="Trazado_44957" data-name="Trazado 44957" d="M24.622,19.059c0,1.2-.965,2.648-2.159,2.648S20.3,20.257,20.3,19.059a2.161,2.161,0,0,1,4.322,0Z" transform="translate(-20.3 -16.9)" fill="#fff"/>
      </g>
      <g id="Grupo_7335" data-name="Grupo 7335" transform="translate(7.508 12.319)">
        <path id="Trazado_44958" data-name="Trazado 44958" d="M24.255,30.312a4.734,4.734,0,0,1-6.525,0,2.938,2.938,0,0,1,2.755-1.858h1.023A2.972,2.972,0,0,1,24.255,30.312Z" transform="translate(-17.73 -28.45)" fill="#fff"/>
      </g>
      <g id="Grupo_7336" data-name="Grupo 7336">
        <path id="Trazado_44959" data-name="Trazado 44959" d="M22.2,9.652l-2.818-.669a7.084,7.084,0,0,0-.3-.7l1.508-2.437a.455.455,0,0,0-.067-.556L18.2,2.966a.455.455,0,0,0-.556-.067L15.181,4.42c-.233-.108-.471-.206-.7-.287l-.66-2.787A.447.447,0,0,0,13.382,1H10.092a.452.452,0,0,0-.44.346L8.988,4.159q-.343.128-.7.3l-2.441-1.5a.441.441,0,0,0-.552.063L2.97,5.34a.442.442,0,0,0-.063.552L4.424,8.36a7.279,7.279,0,0,0-.292.7l-2.787.66a.452.452,0,0,0-.346.44v3.285a.443.443,0,0,0,.346.435l2.814.669c.09.238.189.471.3.7L2.952,17.694a.449.449,0,0,0,.067.552l2.325,2.329a.448.448,0,0,0,.556.063l2.464-1.521c.224.1.458.2.7.287L9.729,22.2a.447.447,0,0,0,.435.346h3.285a.452.452,0,0,0,.44-.346l.669-2.818c.242-.09.471-.188.7-.3L17.7,20.589a.449.449,0,0,0,.552-.067l2.325-2.32a.46.46,0,0,0,.063-.556l-1.521-2.468c.112-.238.206-.471.292-.7l2.787-.66a.45.45,0,0,0,.345-.435v-3.29A.45.45,0,0,0,22.2,9.652Zm-6.449,6.085a5.617,5.617,0,1,1,0-7.939A5.624,5.624,0,0,1,15.747,15.738Z" transform="translate(-1 -1)" fill="#fff"/>
      </g>
    </g>
  </g>
</svg>
