<svg xmlns="http://www.w3.org/2000/svg" width="21.506" height="21.54" viewBox="0 0 21.506 21.54">
  <g id="icono_mercadeo" transform="translate(-0.078 0.3)">
    <g id="Grupo_7333" data-name="Grupo 7333" transform="translate(0.078 -0.3)">
      <path id="Trazado_44941" data-name="Trazado 44941" d="M7.009-239.821a9.13,9.13,0,0,0-6.678,6.409,11.47,11.47,0,0,0-.09,4.321A6.459,6.459,0,0,0,1.1-226.85a29.493,29.493,0,0,0,3.926-2.268c-.018-.045-.108-.323-.215-.618a3.3,3.3,0,0,1-.152-1.488,3.111,3.111,0,0,1,.368-1.64,4.746,4.746,0,0,1,3.164-2.528l.394-.054V-240l-.421.009A6.788,6.788,0,0,0,7.009-239.821Z" transform="translate(-0.078 240.027)" fill="#fff"/>
      <path id="Trazado_44942" data-name="Trazado 44942" d="M105-238.014v2.295l.394.054a5.254,5.254,0,0,1,2.824,1.873c.1.188.17.215.412.179a7.477,7.477,0,0,1,2.555.421,8.73,8.73,0,0,1,2.142,1.228l.215.161-.054-.583a9.04,9.04,0,0,0-1.918-4.572,9.016,9.016,0,0,0-5.961-3.29L105-240.3Z" transform="translate(-95.595 240.3)" fill="#fff"/>
      <path id="Trazado_44943" data-name="Trazado 44943" d="M88.34-156.564a5.775,5.775,0,0,0-4.034,3.137,5.369,5.369,0,0,0-.61,2.7,5.4,5.4,0,0,0,1.73,4.079,5.285,5.285,0,0,0,4.123,1.7,5.419,5.419,0,0,0,2.5-.529l.52-.26,1.56,1.56a20.57,20.57,0,0,0,1.649,1.56,15.057,15.057,0,0,0,1.927-1.927,20.571,20.571,0,0,0-1.56-1.649l-1.56-1.56.26-.52a5.144,5.144,0,0,0,.5-2.815,4.537,4.537,0,0,0-.26-1.676,5.8,5.8,0,0,0-5.316-3.89A6.067,6.067,0,0,0,88.34-156.564Zm2.241,1.954a4.191,4.191,0,0,1,2.591,2.223,2.713,2.713,0,0,1,.278,1.614,2.713,2.713,0,0,1-.278,1.613,4.035,4.035,0,0,1-4.177,2.322,4.047,4.047,0,0,1-3.379-4.5A4,4,0,0,1,90.581-154.61Z" transform="translate(-76.2 164.157)" fill="#fff"/>
      <path id="Trazado_44944" data-name="Trazado 44944" d="M163-113.759v2.241h.986V-116H163Z" transform="translate(-148.396 127.142)" fill="#fff"/>
      <path id="Trazado_44945" data-name="Trazado 44945" d="M143-95.611v1.389h.986V-97H143Z" transform="translate(-130.189 109.845)" fill="#fff"/>
      <path id="Trazado_44946" data-name="Trazado 44946" d="M123-86.059v.941h.986V-87H123Z" transform="translate(-111.981 100.742)" fill="#fff"/>
      <path id="Trazado_44947" data-name="Trazado 44947" d="M18.769-108.871c-1.622.941-1.936,1.156-1.864,1.282a7.4,7.4,0,0,0,.583.753,9.164,9.164,0,0,0,5.764,3.084,1.284,1.284,0,0,0,.556-.009,2.927,2.927,0,0,0-.359-.52,7.579,7.579,0,0,1-1.21-2.528,7.991,7.991,0,0,1-.161-1.371,2.778,2.778,0,0,0-.072-.744,5.362,5.362,0,0,1-.645-.538,8.194,8.194,0,0,0-.619-.538C20.732-110,19.836-109.489,18.769-108.871Z" transform="translate(-15.388 121.68)" fill="#fff"/>
    </g>
  </g>
</svg>
