<svg xmlns="http://www.w3.org/2000/svg" width="269" height="338.998" viewBox="0 0 269 338.998"><defs><style>.a{fill:#f7f7f7;}</style></defs><path class="a" d="M5148,17298H4927a23.979,23.979,0,0,1-24-24v-291a23.983,23.983,0,0,1,24-24H5017.5a17.964,17.964,0,0,0,7.1,10.068,21.386,21.386,0,0,0,5.937,2.953,23.252,23.252,0,0,0,13.922,0,21.386,21.386,0,0,0,5.937-2.953,17.966,17.966,0,0,0,7.1-10.068H5148a23.979,23.979,0,0,1,24,24v291a23.981,23.981,0,0,1-24,24Z" transform="translate(-4902.999 -16959.002)"/></svg>