<svg xmlns="http://www.w3.org/2000/svg" width="109.845" height="76.759" viewBox="0 0 109.845 76.759"><defs><style>.a{fill:#ffc839;}.b{fill:#ff9100;}.c{fill:#fcf9f0;}.d{fill:#f29c1f;}.e{fill:#f3d55b;}.f{fill:#f9eab0;}.g{fill:#f0c419;}.h{fill:#90bae1;}.i{fill:#e57e25;}</style></defs><g transform="translate(-1510.155 -322.209)"><g transform="matrix(0.259, 0.966, -0.966, 0.259, 1587.019, 300.99)"><path class="a" d="M78.569,76.273V10.811a9.064,9.064,0,0,1-9.064-9.064H59.1a9.064,9.064,0,0,1-18.128,0H30.564A9.064,9.064,0,0,1,21.5,10.811V76.273a9.064,9.064,0,0,1,9.064,9.064H40.971a9.064,9.064,0,1,1,18.128,0H69.505A9.064,9.064,0,0,1,78.569,76.273Z"/><path class="b" d="M31.5,23.015H75.141V78.05H31.5Z" transform="translate(-3.286 -6.989)"/><path class="c" d="M49.293,56.209l-5.826-7.959,9.806,1.066,3.98-9.026,3.979,9.026,9.806-1.066-5.826,7.959,5.826,7.959L61.232,63.1l-3.979,9.026L53.273,63.1l-9.806,1.066Z" transform="translate(-7.218 -12.665)"/></g><g transform="translate(1556.98 330.057)"><g transform="translate(20 20.5)"><path class="d" d="M50.054,34.566,49.568,36,45.131,49.019,41,61.163,43.264,34Z" transform="translate(-17.232 -18.721)"/><path class="e" d="M50.318,36.345l-6.791-.566L39,20.5Z" transform="translate(-17.496 -20.5)"/><path class="f" d="M44.845,35.779H29L40.318,20.5Z" transform="translate(-18.814 -20.5)"/><path class="g" d="M44.845,34,42.582,61.163H35.791l-.272-.215-.034-.023L32.758,49.585l-.011-.011L30.2,38.969l-.385-1.607H29.8L29,34Z" transform="translate(-18.814 -18.721)"/><path class="h" d="M34.73,57.79l.057.238h.249" transform="translate(-18.058 -15.585)"/><path class="d" d="M33.142,49,26,41.344l4.6-2.954Z" transform="translate(-19.209 -18.142)"/><path class="e" d="M31.386,38.969l-4.6,2.954L20,34l10.99,3.361H31Z" transform="translate(-20 -18.721)"/><path class="f" d="M26.791,41.923l-6.734,6.768L20,34Z" transform="translate(-20 -18.721)"/><path class="i" d="M36.665,60l-4.855-3.09L20.05,47.768,26.784,41l7.142,7.651.011.011Z" transform="translate(-19.993 -17.798)"/><path class="e" d="M58.786,33.58l-5.331,5.851L44.65,49.074l4.437-13.016Z" transform="translate(-16.751 -18.776)"/><path class="d" d="M58.745,44.932l-6.315-5.5,5.331-5.851Z" transform="translate(-15.725 -18.776)"/><path class="i" d="M60.252,44.251,46.184,60.537H41l4.131-12.144,8.805-9.643Z" transform="translate(-17.232 -18.095)"/></g></g></g></svg>