<svg xmlns="http://www.w3.org/2000/svg" width="111.228" height="78.793" viewBox="0 0 111.228 78.793"><defs><style>.a{fill:#f29c1f;}.b{fill:#4b2400;}.c{fill:#fcf9f0;}.d{fill:#8e5400;}.e{fill:#f3d55b;}.f{fill:#793a00;}.g{fill:#90bae1;}.h{fill:#ffaa5c;}.i{fill:#6c3b07;}.j{fill:#ff9838;}.k{fill:#4b2300;}</style></defs><g transform="translate(-91 -448.208)"><g transform="matrix(0.259, 0.966, -0.966, 0.259, 167.864, 426.988)"><path class="a" d="M78.569,76.273V10.811a9.064,9.064,0,0,1-9.064-9.064H59.1a9.064,9.064,0,0,1-18.128,0H30.564A9.064,9.064,0,0,1,21.5,10.811V76.273a9.064,9.064,0,0,1,9.064,9.064H40.971a9.064,9.064,0,1,1,18.128,0H69.505A9.064,9.064,0,0,1,78.569,76.273Z"/><path class="b" d="M31.5,23.015H75.141V78.05H31.5Z" transform="translate(-3.286 -6.989)"/><path class="c" d="M49.293,56.209l-5.826-7.959,9.806,1.066,3.98-9.026,3.979,9.026,9.806-1.066-5.826,7.959,5.826,7.959L61.232,63.1l-3.979,9.026L53.273,63.1l-9.806,1.066Z" transform="translate(-7.218 -12.665)"/></g><g transform="translate(154.58 479.992)"><path class="d" d="M51.029,34.627l-.539,1.592L45.576,50.635,41,64.086,43.507,34Z" transform="translate(-14.675 -17.077)"/><path class="e" d="M51.536,38.05l-7.521-.627L39,20.5Z" transform="translate(-15.182 -20.5)"/><path class="f" d="M46.55,37.423H29L41.536,20.5Z" transform="translate(-17.718 -20.5)"/><path class="b" d="M46.55,34,44.043,64.086H36.521l-.3-.238-.038-.025L33.162,51.262l-.013-.013L30.329,39.5l-.426-1.78H29.89L29,34Z" transform="translate(-17.718 -17.077)"/><path class="g" d="M34.73,57.79l.063.263h.276" transform="translate(-16.265 -11.044)"/><path class="a" d="M33.91,50.136,26,41.662l5.089-3.272Z" transform="translate(-18.479 -15.964)"/><path class="h" d="M32.611,39.5l-5.089,3.272L20,34l12.172,3.723h.013Z" transform="translate(-20 -17.077)"/><path class="f" d="M27.521,42.775l-7.459,7.5L20,34Z" transform="translate(-20 -17.077)"/><path class="i" d="M38.452,62.047l-5.378-3.422L20.05,48.5,27.509,41l7.91,8.474.013.013Z" transform="translate(-19.987 -15.302)"/><path class="j" d="M60.307,33.58l-5.9,6.481L44.65,50.741l4.914-14.416Z" transform="translate(-13.75 -17.183)"/><path class="f" d="M59.425,46.153,52.43,40.061l5.9-6.481Z" transform="translate(-11.777 -17.183)"/><path class="k" d="M62.323,44.842,46.741,62.881H41L45.576,49.43l9.753-10.68Z" transform="translate(-14.675 -15.872)"/></g></g></svg>