<svg xmlns="http://www.w3.org/2000/svg" width="117.402" height="80.476" viewBox="0 0 117.402 80.476"><defs><style>.a{fill:#efefef;}.b{fill:#d1d1d1;}.c{fill:#fff;}.d{fill:#e7e7e7;}.e{fill:#90bae1;}.f{fill:#aaa;}</style></defs><g transform="translate(-397 -448.523)"><g transform="matrix(0.259, 0.966, -0.966, 0.259, 480.029, 448.523)"><path class="a" d="M58.686,76.637V9.321A9.321,9.321,0,0,1,49.365,0h-10.7a9.321,9.321,0,0,1-9.321,9.321A9.321,9.321,0,0,1,20.022,0H9.321A9.321,9.321,0,0,1,0,9.321V76.637a9.321,9.321,0,0,1,9.321,9.321h10.7a9.321,9.321,0,0,1,18.642,0h10.7A9.321,9.321,0,0,1,58.686,76.637Z" transform="translate(0 0)"/><path class="b" d="M0,0H44.878V56.595H0Z" transform="translate(6.904 14.684)"/><path class="c" d="M5.992,16.37,0,8.185l10.084,1.1L14.177,0l4.092,9.281,10.084-1.1L22.362,16.37l5.992,8.185-10.084-1.1L14.177,32.74l-4.093-9.281L0,24.555Z" transform="translate(15.167 26.611)"/></g><g transform="translate(446.344 461.086)"><g transform="translate(20 20.5)"><path class="d" d="M51.115,34.632l-.544,1.606-4.956,14.54L41,64.345,43.529,34Z" transform="translate(-14.448 -16.931)"/><path class="d" d="M51.644,38.2l-7.586-.632L39,20.5Z" transform="translate(-14.977 -20.5)"/><path class="c" d="M46.7,37.569H29L41.644,20.5Z" transform="translate(-17.621 -20.5)"/><path class="b" d="M46.7,34,44.172,64.345H36.586l-.3-.24-.038-.025L33.2,51.41l-.013-.013L30.34,39.551l-.43-1.8H29.9L29,34Z" transform="translate(-17.621 -16.931)"/><path class="e" d="M34.73,57.79l.063.266h.278" transform="translate(-16.106 -10.642)"/><path class="d" d="M33.978,50.237,26,41.69l5.133-3.3Z" transform="translate(-18.414 -15.771)"/><path class="b" d="M32.719,39.551l-5.133,3.3L20,34l12.277,3.755h.013Z" transform="translate(-20 -16.931)"/><path class="c" d="M27.586,42.851l-7.523,7.561L20,34Z" transform="translate(-20 -16.931)"/><path class="f" d="M38.611,62.229l-5.424-3.452L20.05,48.561,27.573,41l7.978,8.547.013.013Z" transform="translate(-19.987 -15.081)"/><path class="d" d="M60.442,33.58l-5.955,6.537L44.65,50.889l4.956-14.54Z" transform="translate(-13.484 -17.042)"/><path class="b" d="M59.485,46.262,52.43,40.117l5.955-6.537Z" transform="translate(-11.427 -17.042)"/><path class="f" d="M62.507,44.895,46.791,63.089H41l4.615-13.567L55.452,38.75Z" transform="translate(-14.448 -15.675)"/></g></g></g></svg>