<svg id="vector" xmlns="http://www.w3.org/2000/svg" xmlns:xlink="http://www.w3.org/1999/xlink" viewBox="0 0 400 400"><defs><style>.cls-1{fill:#ff2162;}.cls-2{fill:url(#Degradado_sin_nombre_19);}.cls-3{fill:url(#Degradado_sin_nombre_19-2);}.cls-4{fill:url(#Degradado_sin_nombre_19-3);}.cls-5{fill:#1d2787;}.cls-6{fill:#ff4163;}.cls-7{fill:#ffb299;}.cls-8{fill:#192670;}.cls-9{fill:#04073c;}.cls-10{fill:#ffb19e;}.cls-11{fill:#606670;}.cls-12{fill:none;stroke:#775247;stroke-miterlimit:10;stroke-width:0.5px;}.cls-13{fill:#fff;}</style><linearGradient id="Degradado_sin_nombre_19" x1="45.04" y1="159.48" x2="185.27" y2="159.48" gradientUnits="userSpaceOnUse"><stop offset="0.01" stop-color="#ddf"/><stop offset="0.43" stop-color="#e0e0ff"/><stop offset="0.77" stop-color="#eaeafe"/><stop offset="1" stop-color="#f6f6fe"/></linearGradient><linearGradient id="Degradado_sin_nombre_19-2" x1="224.59" y1="231.34" x2="365.08" y2="231.34" xlink:href="#Degradado_sin_nombre_19"/><linearGradient id="Degradado_sin_nombre_19-3" x1="115.16" y1="342.64" x2="263.56" y2="342.64" xlink:href="#Degradado_sin_nombre_19"/></defs><title>400-píxeles</title><path class="cls-1" d="M327.51,193.6c0-4,2.76-6.85,6.52-6.85,4,0,6.52,2.87,6.52,6.85s-2.54,6.86-6.52,6.86S327.51,197.47,327.51,193.6Zm2.76-15.81-1.55-53.07s0-2.13,5.31-2.49c4-.27,5.31,2.49,5.31,2.49l-1.55,53.07Z"/><path class="cls-2" d="M72.32,185c-6.17,1.24-42.2-13.65-20.27-29.38s22.75,0,41-14.48,26.06-12.82,42.2,0,24.82,9.52,31.85,6.62,17.32,9.93,18.18,17.38-15.86,27.72-34,21.93-33.77-7.86-42.7-7.86S84.07,182.63,72.32,185Z"/><path class="cls-3" d="M252.13,254.25c-6.28-.42-42.82-10.14-20.27-24.94,12.56-8.25,15.9-7.24,22.27-12,18.62-13.95,23.61-8.81,43.55-3.59,21,5.5,30,9.51,37.51,8.55,21.79-2.75,29,9.12,29.86,16.57s-19.38,13-28.48,13.77c-18.94,1.73-14.34.28-49.65.28C278,252.87,261.82,254.9,252.13,254.25Z"/><ellipse class="cls-4" cx="189.36" cy="342.64" rx="74.2" ry="5.82"/><path class="cls-5" d="M193.6,195s-8.71-4.24-14,.8-9,13.85-8.71,20.15.92,18.1,17.75,23.59c0,0,18.78,1.2,22.33-23.1C211,216.48,209.51,189.88,193.6,195Z"/><path class="cls-5" d="M202.18,231.34s1.18,6.57,4.6,7.52,9.42.74,11.91.73,3.88.68,4.56,2.51a33,33,0,0,0,2.07,5c.91,1.6,1.37,3.66,5.72,3.21s9.39-1.38,9.85,5-1.37,8.25,0,10.54,5.69,2.52,6.85,2.52,11.47,1.6,4.83,13.51-16,14.89-29.31,10.19-18.56-25.3-18.56-25.3L197.6,252l-3.2-11.22v-5.5Z"/><path class="cls-6" d="M205.16,238s-5.84,5.26-8.59,5.66-3.43-4.46-3.43-4.46,9.27-3.7,10.45-5S205.16,238,205.16,238Z"/><path class="cls-7" d="M185.9,236.68s1.6,6.11-4.2,7.33l1.68,5.65L188,252s6.41-.31,6.87-.38A24.33,24.33,0,0,0,198,249l2.75-3.2v-1.45s-6.26-2.07-4.89-7.64l-7.25.38Z"/><path class="cls-7" d="M175.54,219.12s-4.5,4,2.22,7.41c0,0,1.29,10.79,11.37,12.21a4.92,4.92,0,0,0,2.44,0s10.23-.68,10.54-12.29c0,0,8.55-2.59,2.52-7.33,0,0-3.67,2.29-4.81-4.12l-1.3-6.87S191.19,221.57,175.54,219.12Z"/><path class="cls-5" d="M169.36,247.14s6.72-4.43,20-3.82c0,0,18.45.77,22.28,4.59s1.54,16.48,1.54,17.09-1.68,11-1.68,11l-23.67,4.73h-14l-5-4.12-2-21.53.78-5Z"/><path class="cls-6" d="M169.36,247.14S162.57,255.38,161,276l11.45,2.44S166.3,254.32,169.36,247.14Z"/><path class="cls-6" d="M211.37,247.14s6.79,8.24,8.36,28.86l-11.46,2.44S214.42,254.32,211.37,247.14Z"/><path class="cls-8" d="M161,309.89h59.39L213,320.08l-20.16,10.54s-29.42-12.14-29.42-12.48S161,309.89,161,309.89Z"/><polygon class="cls-9" points="151.91 273.02 158.33 310.58 219.72 311.27 226.81 273.02 151.91 273.02"/><path class="cls-6" d="M217.22,334.4s15-1.45,23.52,0,6.87,2.75,6.87,2.75-.84,3.28-10.76,4.58-20.47-2.9-20.47-2.9Z"/><path class="cls-10" d="M211.78,334.08s21.93,1.62,25.75,7.42c0,0-14.2,5.12-28.4,2.82s-7.86-6-7.86-6Z"/><path class="cls-5" d="M221.42,308.52s13-6,19.7-5.19,11.3,3.66,10.38,9-7,18.48-24.28,21.08A243,243,0,0,1,191,335.54l-3.21-7.17A90.6,90.6,0,0,0,221.42,308.52Z"/><path class="cls-6" d="M159.93,332.45s-10.76,1.26-11.45,4.92,9.7,6.25,15.9,4.9a15,15,0,0,0,9.18-6.7Z"/><path class="cls-10" d="M159.13,342.59s1.26-6.41,6.41-7S183.75,340,183.75,340,165,343,159.13,342.59Z"/><path class="cls-11" d="M129.36,310.5s2.13-10.07,12.67-9.77,21.68,9.77,21.68,9.77,25.34,20.16,51.15,24.13l.76,9.46s-41.53-1.37-64.28-11C151.34,333.1,127.83,323.63,129.36,310.5Z"/><path class="cls-5" d="M129.36,311.08S131.49,301,142,301.3s21.68,9.78,21.68,9.78,25.34,20.15,51.15,24.12l.76,9.47s-41.53-1.38-64.28-11C151.34,333.67,127.83,324.21,129.36,311.08Z"/><path class="cls-12" d="M187.38,221.64a6.38,6.38,0,0,1-4.24.33c-1.48-.58-1.2-1.32-1.2-1.32"/><path class="cls-13" d="M180.33,199.66a20.33,20.33,0,0,0,.57,5.49,18.31,18.31,0,0,1,.8,5.25c-.12,4.32-4.29,4.49-4.78.78-.29-2.15,1.4-4.94,2-6.69.32-.92.61-1.79.86-2.77A11.76,11.76,0,0,0,180.33,199.66Z"/><path class="cls-12" d="M193.82,221.64a6.38,6.38,0,0,0,4.24.33c1.48-.58,1.2-1.32,1.2-1.32"/></svg>