<svg xmlns="http://www.w3.org/2000/svg" width="382.016" height="327.082" viewBox="0 0 382.016 327.082">
  <g id="infog" transform="translate(-668.98 -135.201)">
    <g id="Grupo_12" data-name="Grupo 12" transform="translate(668.98 155.225)">
      <g id="Grupo_7" data-name="Grupo 7" transform="translate(89 36.337)">
        <path id="Trazado_1" data-name="Trazado 1" d="M1128.433,572.99a107.1,107.1,0,1,1,41.818-8.443A106.758,106.758,0,0,1,1128.433,572.99Zm0-214.628a107.194,107.194,0,1,0,107.194,107.195A107.315,107.315,0,0,0,1128.433,358.363Z" transform="translate(-1021 -358.124)" fill="#fff"/>
      </g>
      <g id="Grupo_8" data-name="Grupo 8" transform="translate(76.493 23.838)">
        <path id="Trazado_2" data-name="Trazado 2" d="M1090.038,548.551c-.954-.011-1.922-.033-2.875-.067l.016-.477c.949.033,1.913.055,2.864.066Zm3.04,0-.006-.477c.949-.012,1.911-.035,2.86-.068l.017.477C1095,548.515,1094.03,548.538,1093.078,548.549Zm-8.74-.2c-.957-.056-1.922-.124-2.869-.2l.039-.476c.944.078,1.905.146,2.858.2Zm14.368-.005-.029-.477c.95-.057,1.911-.125,2.858-.2l.04.476C1100.624,548.218,1099.659,548.287,1098.706,548.344Zm-20.1-.468c-.951-.1-1.912-.215-2.856-.339l.062-.474c.94.124,1.9.237,2.844.338Zm25.831-.01-.051-.475c.946-.1,1.9-.216,2.844-.34l.062.473C1106.347,547.649,1105.386,547.764,1104.437,547.866Zm-31.533-.736c-.945-.146-1.9-.307-2.837-.476l.085-.47c.933.168,1.884.328,2.825.474Zm37.235-.015-.074-.471c.94-.147,1.89-.307,2.825-.477l.085.47C1112.037,546.806,1111.082,546.967,1110.139,547.114Zm-42.9-1c-.933-.191-1.879-.4-2.81-.612l.107-.465c.927.214,1.869.419,2.8.609Zm48.555-.02-.1-.468c.933-.192,1.874-.4,2.8-.612l.107.465C1117.68,545.69,1116.735,545.9,1115.8,546.09Zm-54.16-1.271c-.923-.236-1.858-.488-2.777-.747l.13-.459c.916.258,1.846.508,2.766.744Zm59.763-.024-.119-.462c.921-.237,1.851-.488,2.765-.746l.13.459C1123.261,544.3,1122.327,544.556,1121.4,544.794Zm-65.3-1.536c-.916-.282-1.84-.579-2.748-.883l.151-.453c.9.3,1.826.6,2.737.88Zm70.834-.029-.141-.456c.907-.28,1.824-.576,2.726-.879l.152.453C1128.768,542.651,1127.847,542.948,1126.937,543.229Zm-76.307-1.8c-.9-.326-1.808-.667-2.7-1.015l.173-.445c.89.347,1.794.687,2.69,1.011Zm81.76-.026-.163-.449c.9-.325,1.8-.664,2.681-1.009l.174.445C1134.193,540.731,1133.288,541.072,1132.389,541.4Zm-87.135-2.069c-.881-.368-1.772-.753-2.647-1.144l.195-.436c.872.39,1.758.773,2.636,1.14Zm92.483-.019-.184-.44c.875-.366,1.757-.748,2.62-1.134l.195.436C1139.5,538.56,1138.616,538.942,1137.737,539.31Zm-97.748-2.333c-.864-.411-1.734-.839-2.588-1.271l.216-.426c.849.43,1.717.855,2.577,1.265Zm102.982-.007-.206-.431c.857-.408,1.719-.831,2.564-1.259l.215.426C1144.7,536.136,1143.83,536.562,1142.971,536.971Zm5.118-2.589-.226-.421c.836-.448,1.678-.913,2.5-1.381l.236.415C1149.773,533.465,1148.928,533.931,1148.089,534.382Zm-113.243-.006c-.844-.453-1.692-.921-2.522-1.393l.236-.416c.827.469,1.672.936,2.512,1.387Zm118.233-2.827-.245-.409c.814-.489,1.633-.993,2.434-1.5l.255.4C1154.718,530.552,1153.9,531.059,1153.079,531.549Zm-123.243-.018c-.819-.492-1.644-1-2.451-1.512l.256-.4c.8.509,1.625,1.016,2.442,1.506Zm128.095-3.052-.265-.4c.791-.528,1.586-1.072,2.36-1.615l.274.391C1159.522,527.4,1158.725,527.949,1157.93,528.479Zm-132.96-.03c-.794-.53-1.593-1.077-2.376-1.627l.275-.391c.779.548,1.575,1.093,2.366,1.621Zm137.661-3.27-.284-.384c.764-.563,1.531-1.144,2.282-1.726l.292.377C1164.169,524.03,1163.4,524.613,1162.631,525.179Zm-142.372-.041c-.769-.568-1.541-1.152-2.294-1.738l.293-.377c.75.583,1.519,1.165,2.285,1.731Zm146.912-3.481-.3-.37c.737-.6,1.476-1.217,2.2-1.834l.31.363C1168.653,520.435,1167.911,521.055,1167.171,521.657Zm-151.458-.05c-.74-.6-1.483-1.224-2.208-1.845l.311-.363c.722.618,1.462,1.237,2.2,1.838Zm155.826-3.686-.319-.355c.71-.637,1.419-1.289,2.108-1.937l.327.348C1172.964,516.628,1172.252,517.283,1171.539,517.922Zm-160.2-.056c-.71-.638-1.422-1.293-2.116-1.948l.327-.348c.692.652,1.4,1.305,2.108,1.94Zm164.383-3.884-.336-.34c.677-.668,1.355-1.353,2.015-2.036l.343.332C1177.086,512.623,1176.406,513.311,1175.726,513.982Zm-168.568-.06c-.68-.673-1.36-1.361-2.021-2.046l.343-.331c.658.683,1.335,1.368,2.013,2.037Zm172.564-4.076-.351-.323c.645-.7,1.289-1.417,1.915-2.131l.359.315C1181.016,508.423,1180.369,509.142,1179.722,509.845Zm-176.556-.062c-.647-.7-1.293-1.423-1.92-2.139l.359-.315c.625.713,1.269,1.43,1.913,2.13Zm180.351-4.261-.366-.306c.611-.73,1.22-1.477,1.813-2.22l.374.3C1184.742,504.039,1184.13,504.788,1183.517,505.522Zm-184.14-.061c-.613-.734-1.224-1.483-1.816-2.227l.374-.3c.589.741,1.2,1.488,1.808,2.219Zm187.726-4.44-.38-.288c.575-.758,1.148-1.533,1.7-2.305l.387.279C1188.256,499.48,1187.68,500.259,1187.1,501.02Zm-191.3-.056c-.576-.761-1.15-1.538-1.707-2.31l.387-.279c.554.769,1.126,1.543,1.7,2.3Zm194.671-4.612-.394-.27c.54-.787,1.075-1.589,1.593-2.385l.4.261C1191.55,494.756,1191.012,495.561,1190.47,496.351ZM992.442,496.3c-.539-.787-1.075-1.591-1.594-2.388l.4-.26c.517.795,1.051,1.6,1.588,2.378Zm201.17-4.779-.406-.251c.5-.81,1-1.638,1.477-2.459l.412.241C1194.613,489.88,1194.114,490.711,1193.612,491.524Zm-204.3-.034c-.5-.813-1-1.641-1.477-2.461l.412-.241c.477.817.972,1.642,1.472,2.451Zm207.207-4.939-.418-.231c.461-.834.918-1.684,1.358-2.529l.423.221C1197.44,484.86,1196.982,485.714,1196.519,486.55Zm-210.1-.016c-.461-.834-.917-1.684-1.357-2.527l.423-.221c.438.84.893,1.688,1.352,2.518Zm-2.653-5.087c-.421-.855-.836-1.726-1.234-2.588l.434-.2c.4.859.81,1.726,1.229,2.578Zm215.42-.007-.428-.211c.42-.855.836-1.727,1.235-2.592l.433.2C1200.023,479.707,1199.606,480.582,1199.184,481.441Zm-217.824-5.2c-.378-.872-.75-1.761-1.107-2.643l.443-.179c.355.878.727,1.764,1.1,2.633Zm220.241-.037-.438-.189c.379-.877.752-1.769,1.109-2.65l.442.178C1202.357,474.43,1201.982,475.325,1201.6,476.206Zm-222.4-5.285c-.336-.891-.667-1.8-.982-2.7l.451-.158c.314.9.643,1.8.978,2.692Zm224.557-.063-.447-.168c.336-.894.666-1.8.98-2.7l.451.158C1204.432,469.048,1204.1,469.96,1203.763,470.858Zm-226.456-5.366c-.293-.907-.579-1.832-.85-2.748l.458-.136c.271.913.556,1.833.847,2.737Zm228.357-.083-.455-.146c.291-.906.576-1.826.845-2.737l.458.135C1206.243,463.575,1205.957,464.5,1205.665,465.409Zm-229.991-5.432c-.249-.922-.49-1.859-.717-2.786l.464-.113c.225.923.466,1.857.714,2.774Zm231.62-.084-.461-.124c.247-.916.486-1.85.712-2.775l.464.113C1207.782,458.035,1207.542,458.972,1207.294,459.892Zm-232.986-5.5c-.2-.932-.4-1.879-.581-2.816l.469-.091c.181.933.376,1.877.579,2.805Zm234.347-.085-.467-.1c.2-.928.4-1.872.577-2.806l.469.09C1209.053,452.425,1208.859,453.373,1208.656,454.3Zm-235.442-5.561c-.159-.94-.309-1.9-.445-2.841l.473-.068c.136.942.285,1.894.443,2.83Zm236.532-.086-.471-.079c.158-.937.306-1.89.441-2.83l.473.067C1210.053,446.76,1209.9,447.717,1209.746,448.658Zm-237.354-5.606c-.114-.946-.217-1.908-.308-2.859l.476-.046c.09.948.194,1.906.307,2.848Zm238.171-.087-.474-.057c.112-.942.215-1.9.305-2.848l.475.045C1210.779,441.056,1210.676,442.018,1210.563,442.964Zm-238.719-5.638c-.068-.951-.126-1.917-.172-2.871l.477-.023c.045.95.1,1.912.171,2.86Zm239.263-.087-.476-.034c.067-.947.124-1.909.169-2.859l.476.023C1211.232,435.322,1211.174,436.288,1211.107,437.239Zm-239.539-5.757c-.023-.953-.035-1.921-.036-2.876h.478c0,.951.013,1.915.035,2.865Zm239.8-.082-.506-.011c.023-.95.036-1.914.036-2.864v-.172h.506v.172C1211.4,429.478,1211.388,430.446,1211.364,431.4Zm-239.322-5.559-.477-.011c.021-.953.055-1.92.1-2.874l.477.022C972.1,423.927,972.064,424.891,972.042,425.841Zm238.855-.258c-.024-.951-.059-1.914-.105-2.863l.477-.023c.046.952.082,1.919.106,2.874Zm-238.589-5.465-.476-.034c.066-.953.146-1.917.236-2.866l.475.045C972.454,418.209,972.375,419.169,972.308,420.118Zm238.311-.258c-.069-.947-.15-1.908-.241-2.854l.475-.046c.092.95.173,1.915.242,2.866Zm-237.773-5.446-.474-.056c.112-.948.237-1.907.373-2.852l.472.068C973.083,412.515,972.958,413.471,972.846,414.415Zm237.222-.256c-.114-.944-.241-1.9-.377-2.84l.473-.069c.137.944.264,1.9.378,2.851Zm-236.413-5.415-.471-.078c.157-.943.329-1.895.509-2.83l.469.09C973.984,406.857,973.813,407.806,973.656,408.744Zm235.59-.254c-.159-.938-.332-1.887-.513-2.818l.469-.091c.182.935.355,1.887.515,2.829Zm-234.508-5.371-.467-.1c.2-.932.42-1.875.645-2.8l.464.113C975.156,401.251,974.94,402.19,974.738,403.119Zm233.414-.252c-.2-.929-.422-1.868-.648-2.79l.464-.114c.227.926.446,1.868.651,2.8ZM976.09,397.552l-.461-.124c.248-.922.51-1.853.78-2.768l.458.135C976.6,395.706,976.336,396.634,976.09,397.552Zm230.7-.249c-.249-.918-.512-1.845-.783-2.755l.458-.136c.271.914.536,1.845.786,2.766Zm-229.079-5.246-.455-.146c.292-.911.6-1.832.916-2.737l.451.157C978.307,390.233,978,391.15,977.709,392.057Zm227.448-.245c-.292-.9-.6-1.817-.915-2.715l.451-.158c.316.9.625,1.819.918,2.726ZM979.6,386.629l-.447-.168c.336-.9.688-1.8,1.047-2.688l.443.178C980.284,384.835,979.934,385.736,979.6,386.629Zm223.664-.223c-.336-.89-.688-1.787-1.045-2.667l.442-.179c.359.883.712,1.784,1.049,2.678ZM981.748,381.3l-.438-.19c.379-.877.774-1.763,1.175-2.633l.433.2C982.519,379.544,982.125,380.427,981.748,381.3Zm219.365-.194c-.376-.867-.769-1.744-1.168-2.606l.433-.2c.4.865.795,1.745,1.173,2.616Zm-216.962-5.022-.429-.21c.421-.858.858-1.724,1.3-2.573l.423.221C985.006,374.368,984.571,375.23,984.152,376.085Zm214.563-.161c-.418-.85-.853-1.707-1.292-2.548l.423-.221c.441.844.878,1.7,1.3,2.558ZM986.8,370.993l-.418-.23c.462-.837.94-1.68,1.422-2.506l.412.241C987.739,369.321,987.262,370.16,986.8,370.993Zm209.267-.133c-.46-.831-.935-1.666-1.414-2.484l.412-.241c.48.821.958,1.66,1.419,2.494Zm-206.374-4.823-.407-.251c.5-.813,1.019-1.632,1.54-2.433l.4.26C990.71,364.412,990.193,365.228,989.695,366.037Zm203.487-.111c-.5-.807-1.014-1.619-1.531-2.414l.4-.26c.519.8,1.037,1.614,1.538,2.424Zm-200.362-4.7-.394-.269c.538-.787,1.1-1.58,1.655-2.356l.387.279C993.91,359.654,993.356,360.444,992.82,361.227Zm197.241-.094c-.537-.783-1.091-1.57-1.646-2.339l.388-.279c.557.772,1.114,1.563,1.652,2.349Zm-193.89-4.559-.381-.288c.577-.763,1.171-1.527,1.764-2.274l.374.3C997.337,355.053,996.746,355.815,996.171,356.574Zm190.543-.08c-.573-.756-1.164-1.516-1.756-2.259l.373-.3c.595.746,1.188,1.509,1.763,2.269Zm-186.974-4.405-.366-.307c.611-.732,1.24-1.467,1.87-2.186l.359.315C1000.975,350.627,1000.348,351.36,999.739,352.089Zm183.408-.071c-.609-.729-1.236-1.46-1.863-2.174l.359-.315c.629.716,1.258,1.451,1.87,2.182Zm-179.631-4.239-.352-.323c.646-.7,1.31-1.407,1.972-2.094l.343.331C1004.821,346.378,1004.16,347.079,1003.516,347.779Zm175.854-.064c-.643-.7-1.3-1.4-1.964-2.083l.343-.331c.663.686,1.326,1.39,1.972,2.091Zm-171.877-4.059-.336-.34c.678-.67,1.373-1.342,2.069-2l.328.347C1008.862,342.319,1008.169,342.988,1007.493,343.656Zm167.9-.06c-.674-.666-1.368-1.335-2.062-1.988l.327-.347c.7.656,1.394,1.327,2.071,2Zm-163.73-3.868-.319-.355c.708-.636,1.435-1.274,2.161-1.9l.31.363C1013.09,338.459,1012.366,339.095,1011.661,339.728Zm159.559-.059c-.708-.634-1.433-1.269-2.156-1.888l.311-.363c.726.621,1.454,1.259,2.164,1.9ZM1016.01,336l-.3-.37c.74-.6,1.5-1.2,2.248-1.789l.293.377C1017.5,334.8,1016.746,335.4,1016.01,336Zm150.854-.059c-.739-.6-1.495-1.2-2.244-1.784l.293-.377c.752.584,1.51,1.186,2.253,1.791Zm-146.335-3.452-.284-.384c.766-.566,1.549-1.131,2.33-1.68l.275.39C1022.072,331.367,1021.291,331.93,1020.529,332.494Zm141.8-.062c-.766-.565-1.548-1.128-2.327-1.675l.274-.391c.782.548,1.568,1.114,2.337,1.681ZM1025.209,329.2l-.265-.4c.791-.528,1.6-1.054,2.406-1.566l.255.4C1026.8,328.153,1026,328.678,1025.209,329.2Zm132.43-.065c-.793-.528-1.6-1.054-2.406-1.562l.255-.4c.806.509,1.619,1.037,2.415,1.568Zm-127.6-3-.246-.409c.816-.49,1.649-.977,2.477-1.449l.236.415C1031.681,325.169,1030.851,325.655,1030.038,326.142Zm122.752-.07c-.817-.49-1.651-.976-2.479-1.446l.236-.415c.831.472,1.669.96,2.489,1.451Zm-117.784-2.755-.226-.421c.84-.451,1.7-.9,2.543-1.327l.216.426C1036.7,322.423,1035.844,322.867,1035.007,323.317Zm112.791-.075c-.839-.45-1.7-.9-2.546-1.325l.215-.426c.854.431,1.714.879,2.557,1.33Zm-107.7-2.508-.206-.431c.857-.409,1.732-.814,2.6-1.2l.195.436C1041.828,319.924,1040.956,320.327,1040.1,320.734Zm102.571-.08c-.86-.408-1.737-.812-2.608-1.2l.195-.436c.874.39,1.755.8,2.619,1.206Zm-97.36-2.253-.185-.441c.875-.367,1.769-.729,2.656-1.076l.174.444C1047.076,317.674,1046.186,318.035,1045.314,318.4Zm92.114-.085c-.88-.367-1.776-.728-2.665-1.074l.173-.445c.892.348,1.792.71,2.676,1.079Zm-86.789-2-.163-.449c.9-.325,1.808-.645,2.714-.95l.152.453C1052.44,315.674,1051.53,315.993,1050.639,316.317Zm81.434-.085c-.9-.324-1.81-.642-2.715-.944l.151-.453c.908.3,1.826.622,2.726.948Zm-76-1.742-.141-.456c.911-.282,1.839-.558,2.757-.818l.13.459C1057.9,313.935,1056.976,314.209,1056.068,314.49Zm70.552-.079c-.91-.28-1.835-.551-2.748-.809l.129-.46c.917.258,1.846.531,2.759.812Zm-65.041-1.484-.119-.462c.923-.238,1.863-.468,2.793-.684l.108.465C1063.436,312.461,1062.5,312.69,1061.579,312.927Zm59.526-.067c-.92-.235-1.857-.462-2.784-.675l.107-.465c.931.213,1.871.442,2.8.677Zm-53.945-1.228-.1-.468c.934-.193,1.884-.377,2.823-.548l.085.47C1069.036,311.257,1068.09,311.44,1067.16,311.632Zm48.362-.054c-.931-.19-1.877-.372-2.813-.539l.084-.47c.94.168,1.89.351,2.824.542Zm-42.726-.97-.074-.471c.942-.148,1.9-.286,2.846-.412l.063.473C1074.688,310.323,1073.734,310.461,1072.8,310.608Zm37.088-.041c-.941-.145-1.895-.282-2.836-.4l.061-.473c.945.123,1.9.259,2.847.406Zm-31.41-.711-.052-.475c.948-.1,1.911-.2,2.863-.276l.04.476C1080.378,309.661,1079.419,309.753,1078.474,309.856Zm25.729-.029c-.943-.1-1.9-.19-2.852-.267l.039-.476c.954.078,1.917.168,2.864.268Zm-20.02-.451-.029-.477c.95-.057,1.917-.1,2.873-.139l.018.477C1086.092,309.272,1085.129,309.319,1084.183,309.375Zm14.312-.016c-.949-.055-1.911-.1-2.861-.132l.016-.477c.954.033,1.921.077,2.873.132Zm-8.45-.2-.006-.463c.928-.012,1.859-.013,2.787,0l-.005.463C1091.9,309.146,1090.968,309.147,1090.044,309.159Z" transform="translate(-971.533 -308.687)" fill="#fff"/>
      </g>
      <g id="Grupo_9" data-name="Grupo 9" transform="translate(52.657 0)">
        <path id="Trazado_3" data-name="Trazado 3" d="M1020.963,501.938q-.682,0-1.363-.006l0-.462c.924.009,1.852.009,2.776,0l0,.462Q1021.675,501.938,1020.963,501.938Zm-4.217-.055c-.956-.028-1.923-.066-2.875-.112l.023-.477c.948.047,1.912.084,2.865.113Zm8.626,0-.014-.477c.949-.029,1.913-.066,2.865-.113l.024.476C1027.292,501.816,1026.325,501.853,1025.373,501.882ZM1011,501.6c-.952-.066-1.917-.141-2.868-.226l.042-.476c.948.084,1.909.16,2.859.225Zm20.119,0-.033-.477c.948-.066,1.909-.142,2.858-.227l.043.476C1033.034,501.455,1032.069,501.532,1031.119,501.6Zm-25.849-.506c-.947-.1-1.908-.218-2.856-.34l.061-.473c.945.122,1.9.236,2.847.339Zm31.579-.007-.052-.475c.948-.1,1.905-.218,2.847-.34l.062.474C1038.761,500.866,1037.8,500.982,1036.849,501.086Zm-37.285-.731c-.947-.142-1.9-.294-2.84-.454l.08-.471c.934.159,1.887.312,2.831.453Zm42.99-.009-.071-.472c.941-.141,1.893-.294,2.831-.454l.081.471C1044.454,500.051,1043.5,500.2,1042.555,500.346Zm-48.662-.957c-.939-.18-1.888-.371-2.82-.568l.1-.467c.929.2,1.874.387,2.811.566Zm54.333-.011-.09-.469c.932-.178,1.878-.369,2.811-.567l.1.467C1050.11,499.007,1049.161,499.2,1048.226,499.377ZM988.264,498.2c-.93-.217-1.87-.446-2.795-.681l.118-.463c.922.235,1.859.463,2.785.679Zm65.589-.014-.109-.465c.928-.217,1.866-.446,2.786-.68l.118.463C1055.725,497.735,1054.785,497.965,1053.853,498.182Zm-71.164-1.4c-.92-.254-1.85-.521-2.765-.793l.136-.458c.912.272,1.839.537,2.756.791Zm76.74-.016-.127-.46c.918-.254,1.846-.52,2.756-.792l.136.458C1061.28,496.239,1060.35,496.506,1059.429,496.762Zm-82.254-1.627c-.908-.29-1.831-.6-2.741-.907l.155-.452c.907.311,1.826.615,2.732.9Zm87.767-.018-.146-.455c.906-.291,1.822-.594,2.722-.9l.154.452C1066.77,494.521,1065.851,494.825,1064.942,495.117Zm-93.23-1.852c-.9-.328-1.808-.671-2.7-1.018l.173-.445c.89.346,1.8.686,2.692,1.013Zm98.673-.013-.164-.449c.893-.326,1.8-.666,2.683-1.011l.173.446C1072.186,492.582,1071.28,492.924,1070.384,493.251Zm-104.053-2.076c-.883-.364-1.777-.742-2.657-1.125l.191-.438c.876.382,1.767.759,2.648,1.121Zm109.417-.008-.182-.442c.875-.361,1.76-.736,2.63-1.114l.191.438C1077.514,490.43,1076.626,490.806,1075.747,491.168Zm5.255-2.29-.2-.434c.862-.4,1.731-.806,2.585-1.219l.208.429C1082.74,488.07,1081.868,488.481,1081,488.878Zm-119.961-.006c-.868-.4-1.746-.814-2.608-1.231l.208-.43c.859.417,1.734.829,2.6,1.227Zm125.124-2.492-.217-.425c.849-.432,1.7-.877,2.535-1.323l.225.421C1087.873,485.5,1087.017,485.946,1086.165,486.38Zm-130.314-.022c-.852-.434-1.712-.883-2.555-1.334l.225-.421c.841.45,1.7.9,2.547,1.33Zm135.375-2.683-.234-.416c.826-.463,1.661-.942,2.481-1.424l.242.412C1092.892,482.73,1092.055,483.211,1091.226,483.675Zm-140.458-.037c-.836-.469-1.677-.952-2.5-1.436l.242-.412c.819.482,1.657.963,2.49,1.431Zm145.408-2.869-.25-.407c.807-.5,1.623-1.007,2.423-1.522l.259.4C1097.8,479.758,1096.986,480.271,1096.176,480.769ZM945.8,480.717c-.813-.5-1.633-1.016-2.439-1.534l.259-.4c.8.516,1.62,1.03,2.431,1.529Zm155.209-3.052-.266-.4c.789-.528,1.583-1.073,2.362-1.618l.274.391C1102.6,476.589,1101.8,477.135,1101.008,477.666ZM940.954,477.6c-.794-.534-1.593-1.082-2.374-1.63l.274-.391c.778.546,1.575,1.092,2.366,1.625Zm164.76-3.229-.281-.385c.768-.561,1.541-1.137,2.3-1.712l.289.38C1107.261,473.231,1106.485,473.809,1105.714,474.372Zm-169.476-.078c-.77-.562-1.546-1.142-2.307-1.723l.29-.379c.758.578,1.532,1.156,2.3,1.717Zm174.049-3.4-.3-.374c.744-.59,1.493-1.2,2.226-1.8l.3.368C1111.786,469.692,1111.034,470.3,1110.287,470.892ZM931.66,470.8c-.746-.593-1.5-1.2-2.235-1.813l.3-.368c.735.608,1.485,1.216,2.228,1.807Zm183.059-3.571-.311-.363c.72-.619,1.445-1.255,2.154-1.889l.319.356C1116.169,465.973,1115.442,466.611,1114.719,467.232Zm-187.494-.1c-.724-.625-1.451-1.264-2.161-1.9l.319-.355c.707.634,1.432,1.272,2.154,1.894ZM1119,463.4l-.326-.349c.7-.649,1.4-1.313,2.078-1.974l.333.343C1120.4,462.08,1119.7,462.746,1119,463.4Zm-196.062-.106c-.7-.65-1.4-1.318-2.083-1.984l.333-.343c.683.664,1.383,1.33,2.076,1.977Zm200.192-3.9-.339-.336c.669-.675,1.341-1.367,2-2.056l.346.329C1124.48,458.023,1123.805,458.717,1123.134,459.394Zm-204.318-.111c-.671-.678-1.344-1.373-2-2.065l.346-.329c.656.689,1.327,1.382,2,2.057Zm208.287-4.054-.352-.322c.642-.7,1.287-1.42,1.915-2.135l.359.316C1128.394,453.8,1127.747,454.525,1127.1,455.229Zm-212.249-.114c-.645-.7-1.29-1.426-1.918-2.142l.359-.315c.626.714,1.269,1.432,1.912,2.135Zm216.05-4.207-.365-.308c.616-.729,1.231-1.472,1.83-2.21l.371.3C1132.138,449.431,1131.521,450.177,1130.9,450.908Zm-219.843-.114c-.615-.73-1.231-1.475-1.831-2.216l.371-.3c.6.738,1.212,1.481,1.825,2.208Zm223.47-4.356-.377-.293c.585-.751,1.17-1.519,1.74-2.282l.383.286C1135.7,444.914,1135.117,445.684,1134.53,446.438Zm-227.087-.111c-.585-.752-1.17-1.521-1.741-2.286l.383-.285c.568.763,1.152,1.529,1.735,2.278Zm230.533-4.5-.388-.278c.555-.774,1.11-1.565,1.649-2.35l.393.27C1139.09,440.255,1138.534,441.048,1137.977,441.825Zm-233.969-.1c-.555-.776-1.109-1.568-1.648-2.353l.394-.27c.537.783,1.089,1.572,1.642,2.345Zm237.229-4.643-.4-.262c.523-.795,1.046-1.608,1.554-2.415l.4.255C1142.286,435.464,1141.762,436.279,1141.237,437.077Zm-240.477-.094c-.523-.8-1.045-1.609-1.552-2.415l.4-.254c.5.8,1.025,1.614,1.547,2.408Zm243.546-4.782-.409-.246c.492-.818.982-1.65,1.456-2.476l.414.238C1145.292,430.545,1144.8,431.381,1144.307,432.2Zm-246.6-.079c-.49-.816-.979-1.648-1.454-2.475l.414-.238c.473.824.961,1.654,1.449,2.467Zm249.473-4.917-.419-.23c.459-.836.915-1.688,1.357-2.533l.423.221C1148.1,425.51,1147.639,426.365,1147.179,427.2Zm-252.331-.061c-.457-.834-.912-1.685-1.353-2.53l.423-.221c.44.843.894,1.691,1.349,2.522Zm255-5.05-.428-.213c.426-.856.847-1.726,1.254-2.586l.432.2C1150.7,420.362,1150.276,421.235,1149.849,422.094Zm-257.656-.036c-.424-.853-.845-1.722-1.25-2.581l.432-.2c.4.857.823,1.722,1.246,2.573Zm260.12-5.178-.436-.2c.39-.869.776-1.756,1.148-2.635l.44.186C1153.091,415.116,1152.7,416.006,1152.312,416.879Zm-262.568-.008c-.388-.867-.774-1.751-1.145-2.628l.44-.186c.37.873.754,1.754,1.141,2.619Zm-2.237-5.277c-.354-.885-.705-1.788-1.042-2.681l.447-.169c.336.891.686,1.79,1.039,2.672Zm267.057-.028-.443-.177c.354-.884.7-1.787,1.042-2.681l.446.168C1155.271,409.774,1154.919,410.679,1154.564,411.566Zm-269.088-5.355c-.319-.9-.633-1.815-.934-2.721l.453-.15c.3.9.613,1.815.931,2.712Zm271.124-.047-.45-.159c.319-.9.633-1.817.933-2.722l.453.15C1157.235,404.342,1156.92,405.261,1156.6,406.164ZM883.664,400.75c-.282-.91-.559-1.837-.823-2.757l.459-.132c.263.916.539,1.84.821,2.747Zm274.753-.068-.456-.141c.281-.908.556-1.832.819-2.748l.459.132C1158.974,398.844,1158.7,399.772,1158.417,400.683Zm-276.344-5.462c-.245-.923-.485-1.861-.711-2.787l.464-.113c.226.924.464,1.858.709,2.778ZM1160,395.153l-.461-.123c.244-.919.482-1.854.707-2.779l.464.114C1160.488,393.292,1160.25,394.23,1160,395.153Zm-279.3-5.52c-.208-.933-.41-1.879-.6-2.814l.468-.095c.188.932.389,1.875.6,2.8Zm280.661-.07-.466-.1c.206-.929.407-1.873.595-2.8l.468.094C1161.776,387.684,1161.576,388.631,1161.368,389.563Zm-281.8-5.569c-.17-.94-.333-1.894-.485-2.835l.471-.076c.151.939.313,1.89.483,2.826Zm282.939-.07-.47-.086c.169-.935.331-1.885.481-2.826l.472.076C1162.838,382.031,1162.675,382.985,1162.505,383.924Zm-283.852-5.611c-.132-.945-.257-1.905-.371-2.852l.474-.057c.113.944.238,1.9.37,2.843Zm284.762-.071-.473-.066c.131-.942.255-1.9.368-2.844l.474.057C1163.672,376.338,1163.547,377.3,1163.415,378.242ZM877.969,372.6c-.1-.951-.182-1.915-.257-2.865l.476-.038c.075.947.161,1.908.256,2.856Zm286.128-.071-.475-.047c.094-.948.179-1.909.254-2.856l.476.038C1164.278,370.614,1164.192,371.579,1164.1,372.53Zm-286.585-5.664c-.057-.951-.1-1.918-.143-2.873l.477-.019c.038.952.086,1.916.142,2.864Zm287.039-.071-.477-.028c.056-.949.1-1.912.141-2.864l.477.019C1164.655,364.877,1164.607,365.844,1164.551,366.795Zm-287.268-5.762c-.019-.952-.029-1.92-.029-2.876h.477c0,.954.011,1.918.03,2.868Zm287.409-.1-.505-.009c.02-.951.03-1.916.03-2.867V357.9h.506v.152C1164.723,359.01,1164.713,359.978,1164.693,360.932ZM877.758,355.38l-.477-.009c.018-.953.046-1.921.083-2.875l.477.019C877.8,353.465,877.776,354.43,877.758,355.38Zm286.539-.229c-.02-.949-.049-1.911-.087-2.86l.477-.019c.039.951.068,1.916.087,2.869Zm-286.316-5.5-.477-.028c.056-.954.122-1.919.2-2.87l.476.037C878.1,347.737,878.036,348.7,877.98,349.65Zm286.086-.222c-.057-.949-.125-1.911-.2-2.86l.476-.038c.076.952.144,1.918.2,2.869ZM878.43,343.933l-.475-.047c.093-.948.2-1.91.311-2.86l.474.056C878.627,342.03,878.523,342.989,878.43,343.933Zm285.178-.222c-.094-.947-.2-1.905-.314-2.849l.474-.057c.114.948.22,1.91.315,2.859Zm-284.5-5.472-.473-.066c.132-.946.274-1.9.425-2.845l.472.075C879.38,336.343,879.237,337.3,879.106,338.24Zm283.816-.221c-.133-.944-.276-1.9-.428-2.835l.471-.076c.152.941.3,1.9.429,2.844ZM880.01,332.577l-.47-.084c.169-.94.351-1.891.539-2.826l.468.094C880.36,330.692,880.179,331.641,880.01,332.577Zm282-.219c-.17-.936-.352-1.884-.541-2.816l.468-.095c.19.935.373,1.886.543,2.825Zm-280.868-5.4-.466-.1c.207-.931.426-1.873.652-2.8l.464.113C881.566,325.088,881.347,326.028,881.141,326.955Zm279.729-.217c-.208-.928-.428-1.866-.654-2.792l.464-.114c.227.928.448,1.871.656,2.8ZM882.5,321.384l-.462-.122c.244-.922.5-1.855.764-2.773l.459.131C883,319.535,882.74,320.465,882.5,321.384Zm277.008-.216c-.245-.92-.5-1.849-.766-2.763l.459-.133c.264.917.523,1.849.769,2.773Zm-275.429-5.3-.456-.141c.282-.916.578-1.841.879-2.751l.453.15C884.653,314.036,884.358,314.959,884.077,315.872Zm273.841-.213c-.281-.907-.577-1.825-.877-2.729l.453-.15c.3.907.6,1.829.88,2.739Zm-272.033-5.252-.45-.159c.319-.9.651-1.815.989-2.712l.447.168C886.534,308.6,886.2,309.508,885.884,310.407Zm270.225-.189c-.318-.9-.65-1.8-.987-2.692l.447-.169c.338.894.671,1.8.99,2.7Zm-268.2-5.2-.444-.177c.356-.89.725-1.788,1.1-2.669l.44.186C888.633,303.241,888.265,304.136,887.911,305.023Zm266.171-.169c-.353-.879-.72-1.767-1.09-2.64l.439-.187c.372.876.74,1.767,1.094,2.649Zm-263.93-5.127-.436-.195c.392-.876.8-1.757,1.2-2.621l.432.2C890.946,297.975,890.542,298.854,890.152,299.727Zm261.7-.131c-.388-.866-.791-1.739-1.2-2.6l.432-.2c.406.859.809,1.735,1.2,2.6ZM892.6,294.527l-.427-.212c.425-.856.866-1.721,1.308-2.569l.423.221C893.467,292.812,893.028,293.673,892.6,294.527Zm256.8-.1c-.422-.849-.86-1.706-1.3-2.546l.423-.221c.441.844.879,1.7,1.3,2.555Zm-254.143-4.995-.419-.23c.46-.84.935-1.686,1.409-2.514l.414.238C896.194,287.753,895.721,288.6,895.263,289.433Zm251.495-.073c-.457-.833-.928-1.672-1.4-2.494l.414-.238c.474.825.947,1.667,1.4,2.5Zm-248.634-4.91-.41-.246c.493-.82,1-1.646,1.509-2.454l.4.254C899.12,282.811,898.614,283.634,898.123,284.451Zm245.783-.051c-.488-.811-.992-1.63-1.5-2.436l.4-.254c.509.809,1.015,1.631,1.5,2.445ZM901.179,279.59l-.4-.262c.525-.8,1.065-1.6,1.605-2.391l.393.27C902.241,277.991,901.7,278.793,901.179,279.59Zm239.679-.033c-.522-.794-1.059-1.593-1.6-2.376l.394-.271c.539.786,1.078,1.588,1.6,2.384Zm-236.432-4.7-.388-.278c.555-.775,1.127-1.557,1.7-2.324l.382.286C905.549,273.3,904.979,274.083,904.426,274.855Zm233.193-.019c-.555-.774-1.123-1.552-1.69-2.311l.383-.285c.569.762,1.139,1.542,1.7,2.319Zm-229.759-4.58-.377-.293c.588-.755,1.19-1.513,1.79-2.254l.371.3C909.045,268.748,908.445,269.5,907.86,270.257Zm226.333-.009c-.583-.75-1.183-1.5-1.781-2.243l.371-.3c.6.741,1.2,1.5,1.787,2.251ZM911.472,265.8l-.365-.308c.616-.73,1.248-1.464,1.878-2.181l.358.315C912.716,264.34,912.086,265.071,911.472,265.8Zm219.114,0c-.614-.727-1.243-1.457-1.87-2.171l.359-.316c.629.716,1.26,1.449,1.876,2.178Zm-3.782-4.305c-.641-.7-1.3-1.406-1.955-2.1l.346-.329c.658.691,1.318,1.4,1.962,2.1Zm-211.545,0-.353-.322c.646-.706,1.306-1.414,1.963-2.1l.346.329C916.56,260.082,915.9,260.787,915.258,261.49Zm207.594-4.151c-.67-.676-1.355-1.354-2.038-2.017l.333-.343c.684.664,1.372,1.345,2.044,2.024Zm-203.64,0-.34-.336c.672-.678,1.36-1.359,2.044-2.023l.333.343C920.566,255.982,919.881,256.66,919.211,257.336Zm199.525-3.99c-.7-.648-1.407-1.3-2.117-1.935l.319-.356c.711.637,1.426,1.29,2.124,1.941Zm-195.411,0L923,253c.7-.65,1.411-1.3,2.122-1.94l.319.356C924.731,252.046,924.019,252.7,923.325,253.345Zm4.269-3.825-.312-.362c.724-.623,1.463-1.247,2.2-1.853l.3.368C929.052,248.277,928.315,248.9,927.594,249.52Zm186.872,0c-.722-.621-1.46-1.243-2.193-1.849l.3-.368c.735.608,1.476,1.232,2.2,1.856Zm-182.456-3.65-.3-.374c.746-.592,1.509-1.186,2.268-1.764l.289.38C933.513,244.688,932.753,245.279,932.009,245.87Zm178.034-.006c-.746-.592-1.509-1.185-2.265-1.761l.289-.38c.759.578,1.524,1.173,2.273,1.767ZM936.565,242.4l-.282-.386c.77-.563,1.556-1.125,2.336-1.671l.274.391C938.117,241.277,937.333,241.838,936.565,242.4Zm168.913-.012c-.773-.565-1.558-1.126-2.335-1.67l.274-.391c.779.546,1.567,1.109,2.342,1.675Zm-164.224-3.274-.266-.4c.792-.531,1.6-1.062,2.4-1.577l.258.4C942.848,238.055,942.043,238.584,941.254,239.113Zm159.522-.02c-.793-.531-1.6-1.062-2.4-1.575l.258-.4c.8.515,1.612,1.047,2.408,1.581Zm-154.708-3.075-.25-.406c.809-.5,1.637-1,2.46-1.48l.242.412C947.7,235.026,946.875,235.522,946.069,236.018Zm149.877-.028c-.811-.5-1.639-1-2.462-1.479l.242-.412c.826.485,1.657.984,2.47,1.484ZM951,233.119l-.234-.416c.832-.467,1.679-.931,2.517-1.379l.225.421C952.674,232.192,951.83,232.654,951,233.119Zm139.991-.038c-.83-.465-1.678-.929-2.52-1.379l.225-.421c.846.452,1.7.917,2.529,1.384Zm-134.949-2.661-.217-.425c.845-.431,1.709-.861,2.568-1.277l.208.43C957.747,229.563,956.886,229.991,956.043,230.421Zm129.881-.047c-.848-.432-1.715-.861-2.574-1.277l.208-.43c.862.417,1.732.849,2.583,1.282Zm-124.737-2.446-.2-.434c.862-.4,1.743-.791,2.616-1.172l.191.438C962.924,227.138,962.046,227.532,961.187,227.927Zm119.563-.057c-.865-.4-1.749-.792-2.625-1.173l.19-.438c.879.382,1.765.778,2.634,1.177Zm-114.326-2.228-.182-.441c.881-.363,1.78-.723,2.67-1.07l.173.445C968.2,224.922,967.3,225.281,966.424,225.643Zm109.053-.066c-.881-.362-1.78-.721-2.671-1.066l.172-.445c.894.346,1.8.706,2.68,1.07Zm-103.708-2.013-.164-.448c.9-.329,1.81-.652,2.711-.962l.155.452C973.572,222.913,972.663,223.236,971.768,223.564Zm98.345-.065c-.9-.327-1.812-.65-2.713-.958l.154-.452c.905.309,1.821.632,2.723.961Zm-92.921-1.8-.146-.455c.909-.292,1.833-.578,2.748-.852l.136.458C979.018,221.125,978.1,221.411,977.191,221.7Zm87.476-.065c-.908-.289-1.83-.574-2.74-.844l.136-.458c.913.272,1.838.557,2.749.848Zm-81.982-1.577-.127-.46c.92-.255,1.856-.5,2.78-.74l.118.463C984.535,219.557,983.6,219.805,982.685,220.059ZM1059.17,220c-.917-.253-1.849-.5-2.771-.734l.117-.462c.925.235,1.861.482,2.781.736Zm-70.93-1.363-.109-.465c.925-.216,1.87-.428,2.807-.627l.1.466C990.1,218.214,989.164,218.424,988.241,218.64Zm65.372-.048c-.929-.216-1.87-.424-2.8-.621l.1-.467c.932.2,1.877.407,2.808.624Zm-59.763-1.146-.09-.469c.939-.18,1.892-.353,2.83-.514l.081.471C995.734,217.094,994.785,217.266,993.849,217.446Zm54.154-.039c-.936-.178-1.886-.349-2.822-.508l.08-.47c.939.16,1.892.331,2.831.51Zm-48.5-.928-.071-.472c.942-.142,1.9-.276,2.849-.4l.061.473C1001.395,216.2,1000.44,216.337,999.5,216.478Zm42.849-.031c-.937-.14-1.893-.272-2.84-.394l.061-.474c.95.123,1.909.256,2.849.4Zm-37.163-.709-.052-.475c.951-.1,1.914-.2,2.862-.286l.043.476C1007.094,215.537,1006.134,215.634,1005.187,215.737Zm31.475-.023c-.948-.1-1.907-.2-2.853-.281l.042-.476c.948.083,1.912.179,2.863.282Zm-25.764-.49-.033-.476c.95-.066,1.916-.124,2.872-.172l.024.477C1012.808,215.1,1011.845,215.158,1010.9,215.224Zm20.053-.014c-.947-.065-1.91-.121-2.862-.168l.023-.476c.955.046,1.922.1,2.872.168Zm-14.208-.272-.014-.477c.951-.029,1.917-.049,2.873-.058l.005.478C1018.654,214.89,1017.69,214.909,1016.742,214.938Zm8.506-.006c-.949-.027-1.913-.045-2.867-.054l0-.478c.957.009,1.924.027,2.876.055Z" transform="translate(-877.254 -214.4)" fill="#fff"/>
      </g>
      <g id="Grupo_10" data-name="Grupo 10" transform="translate(63.7 11.038)">
        <path id="Trazado_4" data-name="Trazado 4" d="M1053.665,523.522a132.319,132.319,0,1,1,51.665-10.431A131.9,131.9,0,0,1,1053.665,523.522Zm0-265.227c-73.058,0-132.494,59.436-132.494,132.494s59.436,132.494,132.494,132.494,132.494-59.437,132.494-132.494S1126.722,258.3,1053.665,258.3Z" transform="translate(-920.932 -258.057)" fill="#fff"/>
      </g>
      <g id="Grupo_11" data-name="Grupo 11" transform="translate(0 14.334)">
        <path id="Trazado_5" data-name="Trazado 5" d="M668.98,516.573a6.6,6.6,0,0,0,6.621,6.573H823.24a6.6,6.6,0,0,0,6.621-6.573h0A6.6,6.6,0,0,0,823.24,510H675.6a6.6,6.6,0,0,0-6.621,6.574Z" transform="translate(-668.98 -449.599)" fill="#fff"/>
        <path id="Trazado_6" data-name="Trazado 6" d="M1473.669,737.573a6.6,6.6,0,0,0,6.621,6.573h147.64a6.6,6.6,0,0,0,6.62-6.573h0a6.6,6.6,0,0,0-6.62-6.573H1480.29a6.6,6.6,0,0,0-6.621,6.573Z" transform="translate(-1270.223 -614.725)" fill="#fff"/>
        <path id="Trazado_7" data-name="Trazado 7" d="M1024.075,442.573a6.6,6.6,0,0,0,6.62,6.573h147.64a6.6,6.6,0,0,0,6.62-6.573h0a6.6,6.6,0,0,0-6.62-6.573H1030.7a6.6,6.6,0,0,0-6.62,6.573Z" transform="translate(-934.298 -394.308)" fill="#fff"/>
        <path id="Trazado_8" data-name="Trazado 8" d="M815.69,442.573a6.574,6.574,0,0,0,6.574,6.573h17.785a6.573,6.573,0,0,0,6.573-6.573h0A6.573,6.573,0,0,0,840.049,436H822.264a6.574,6.574,0,0,0-6.574,6.573Z" transform="translate(-778.598 -394.308)" fill="#fff"/>
        <path id="Trazado_9" data-name="Trazado 9" d="M1496.131,807.573a6.6,6.6,0,0,1-6.621,6.573H1341.871a6.6,6.6,0,0,1-6.621-6.573h0a6.6,6.6,0,0,1,6.621-6.573H1489.51a6.6,6.6,0,0,1,6.621,6.573Z" transform="translate(-1166.8 -667.027)" fill="#fff"/>
        <path id="Trazado_10" data-name="Trazado 10" d="M2088.553,807.573a6.574,6.574,0,0,1-6.574,6.573h-17.785a6.574,6.574,0,0,1-6.573-6.573h0a6.574,6.574,0,0,1,6.573-6.573h17.785a6.574,6.574,0,0,1,6.574,6.573Z" transform="translate(-1706.537 -667.027)" fill="#fff"/>
        <path id="Trazado_11" data-name="Trazado 11" d="M863.323,520.8a11.16,11.16,0,1,1-11.16-11.16A11.16,11.16,0,0,1,863.323,520.8Z" transform="translate(-797.511 -449.328)" fill="#fff"/>
        <path id="Trazado_12" data-name="Trazado 12" d="M877.828,387.773a15.011,15.011,0,1,1-15.011-15.012A15.011,15.011,0,0,1,877.828,387.773Z" transform="translate(-802.593 -347.058)" fill="#fff"/>
        <path id="Trazado_13" data-name="Trazado 13" d="M1991.219,706.032a11.16,11.16,0,1,1-11.16-11.16A11.16,11.16,0,0,1,1991.219,706.032Z" transform="translate(-1640.246 -587.731)" fill="#fff"/>
        <path id="Trazado_14" data-name="Trazado 14" d="M1881.458,654.91a18.543,18.543,0,1,1-18.542-18.543A18.543,18.543,0,0,1,1881.458,654.91Z" transform="translate(-1547.203 -544.017)" fill="#fff"/>
        <path id="Trazado_15" data-name="Trazado 15" d="M1701.9,579.419a28.6,28.6,0,1,1-28.6-28.6A28.6,28.6,0,0,1,1701.9,579.419Z" transform="translate(-1398.011 -480.096)" fill="#fff"/>
        <path id="Trazado_16" data-name="Trazado 16" d="M1686.932,830.021a18.543,18.543,0,1,1-18.543-18.543A18.543,18.543,0,0,1,1686.932,830.021Z" transform="translate(-1401.858 -674.856)" fill="#fff"/>
        <circle id="Elipse_2" data-name="Elipse 2" cx="18.543" cy="18.543" r="18.543" transform="translate(58.872 64.086)" fill="#fff"/>
        <circle id="Elipse_3" data-name="Elipse 3" cx="25.704" cy="25.704" r="25.704" transform="translate(87.25 68.053)" fill="#fff"/>
        <path id="Trazado_17" data-name="Trazado 17" d="M1138.99,296.8a25.7,25.7,0,1,1-25.7-25.7A25.7,25.7,0,0,1,1138.99,296.8Z" transform="translate(-981.749 -271.096)" fill="#fff"/>
        <circle id="Elipse_4" data-name="Elipse 4" cx="12.01" cy="12.01" r="12.01" transform="translate(95.122 27.388)" fill="#fff"/>
        <path id="Trazado_18" data-name="Trazado 18" d="M1011.093,531.649l-15.614,5.595,20.777,11.16Z" transform="translate(-912.932 -465.775)" fill="#fff"/>
      </g>
    </g>
    <g id="Grupo_13" data-name="Grupo 13" transform="translate(695.096 321.23)">
      <rect id="Rectángulo_2" data-name="Rectángulo 2" width="73.825" height="38.43" transform="translate(51.829 28.822)" fill="#f39a29"/>
      <rect id="Rectángulo_3" data-name="Rectángulo 3" width="56.633" height="29.328" transform="translate(82.168 0)" fill="#f4a53f"/>
      <rect id="Rectángulo_4" data-name="Rectángulo 4" width="52.588" height="38.43" transform="translate(73.067 28.822)" fill="#fbb628"/>
      <rect id="Rectángulo_5" data-name="Rectángulo 5" width="97.591" height="50.565" transform="translate(28.064 67.252)" fill="#f4a53f"/>
      <path id="Trazado_19" data-name="Trazado 19" d="M800.847,1187.4l-28.569-9.449V1142.61l28.569-6.1Z" transform="translate(-772.278 -1069.379)" fill="#f39a29"/>
      <path id="Trazado_20" data-name="Trazado 20" d="M1019.467,1187.727l-28.359-.493,1.8-50.325,26.562-.031Z" transform="translate(-935.782 -1069.658)" fill="#df8e26"/>
    </g>
    <path id="Trazado_21" data-name="Trazado 21" d="M1350.854,203.265c9.961,5.013,17.8-11.758,17.8-11.758V159.15s-5.747-10.794-13.846-4.063c-6.754,5.612-1.586,16.729-7.027,26.029C1341.932,191.117,1345.452,200.546,1350.854,203.265Z" transform="translate(-504.923 -13.208)" fill="#f58e41"/>
    <path id="Trazado_22" data-name="Trazado 22" d="M1395.45,281.924h-22.462l3.3-17.993L1375.247,244h17.8l-1.446,19.248Z" transform="translate(-526.016 -81.292)" fill="#e29cc5"/>
    <path id="Trazado_23" data-name="Trazado 23" d="M1411.587,227.691a2.655,2.655,0,0,1-2.655,2.655h0a2.654,2.654,0,0,1-2.654-2.655v-3.172a2.654,2.654,0,0,1,2.654-2.655h0a2.655,2.655,0,0,1,2.655,2.655Z" transform="translate(-550.89 -64.752)" fill="#f1dac4"/>
    <path id="Trazado_24" data-name="Trazado 24" d="M1410.3,171.928a9.857,9.857,0,0,1-19.713,0,9.715,9.715,0,0,1,9.856-9.856C1411.892,162.557,1404.218,173.052,1410.3,171.928Z" transform="translate(-539.169 -20.071)" fill="#f1dac4"/>
    <path id="Trazado_25" data-name="Trazado 25" d="M1389.177,153.09c-4.967-1.113-8.372-1.361-11.8-.394a10.451,10.451,0,0,0,3.692,19.974,9.3,9.3,0,0,1-.171-3.66,2.845,2.845,0,1,1,1.324-3.525c.292-.932,2.05-1.667,2.323-5.553l1.41,1.549s4.97-.82,7.121.9C1394.142,158.656,1392.7,153.88,1389.177,153.09Z" transform="translate(-524.674 -12.622)" fill="#f58e41"/>
    <rect id="Rectángulo_6" data-name="Rectángulo 6" width="22.501" height="7.838" transform="translate(848.561 196.587)" fill="#757474"/>
    <path id="Trazado_26" data-name="Trazado 26" d="M1446.527,219h-4.234C1442.1,220.891,1444.9,222.9,1446.527,219Z" transform="translate(-577.793 -62.612)" fill="#fff"/>
    <g id="Grupo_14" data-name="Grupo 14" transform="translate(943.182 267.407)">
      <path id="Trazado_27" data-name="Trazado 27" d="M1782.7,669.315a1.758,1.758,0,0,1-.553,2.423l-19.4,12.2a1.758,1.758,0,0,1-2.424-.552L1753.8,673a1.758,1.758,0,0,1,.553-2.423l19.4-12.2a1.758,1.758,0,0,1,2.423.553Z" transform="translate(-1753.53 -658.114)" fill="#00a8dc"/>
      <rect id="Rectángulo_7" data-name="Rectángulo 7" width="26.503" height="3.329" transform="translate(0.703 15.579) rotate(-32.15)" fill="#1a1a1a"/>
    </g>
    <g id="Grupo_16" data-name="Grupo 16" transform="translate(725.971 312.642)">
      <path id="Trazado_28" data-name="Trazado 28" d="M977.077,904.468H989L989.5,885H977.128Z" transform="translate(-956.173 -872.872)" fill="#00a8dc"/>
      <path id="Trazado_29" data-name="Trazado 29" d="M996.278,876.849a1.39,1.39,0,0,0,1.391,1.39h0a1.391,1.391,0,0,0,1.391-1.39v-1.662a1.391,1.391,0,0,0-1.391-1.39h0a1.39,1.39,0,0,0-1.391,1.39Z" transform="translate(-970.52 -864.501)" fill="#f1dac4"/>
      <path id="Trazado_30" data-name="Trazado 30" d="M952.089,1064.185l8.94-1.1-.6-4.883-2.358.422C956.361,1061.734,952.061,1058.239,952.089,1064.185Z" transform="translate(-937.503 -1002.282)" fill="#ffc423"/>
      <path id="Trazado_31" data-name="Trazado 31" d="M974.405,847.247a5.221,5.221,0,1,0,10.442,0,5.146,5.146,0,0,0-5.221-5.221C973.564,842.283,977.629,847.842,974.405,847.247Z" transform="translate(-954.177 -840.76)" fill="#f1dac4"/>
      <path id="Trazado_32" data-name="Trazado 32" d="M981.714,837.485c2.631-.59,6.316-.545,6.252-.209a5.535,5.535,0,0,1-1.955,10.58,4.895,4.895,0,0,0,.147-1.192,4.96,4.96,0,0,0-.057-.746,1.507,1.507,0,1,0-.7-1.867c-.155-.494-.609-.784-1.14-1.1a3.719,3.719,0,0,1-2.306-3.061c-2.138.245-1.831,1.653-2.251,1.864A3.145,3.145,0,0,1,981.714,837.485Z" transform="translate(-957.973 -837.031)" fill="#6b3c1a"/>
      <path id="Trazado_33" data-name="Trazado 33" d="M1021.7,899.005a5.657,5.657,0,0,1-2.784-3.07,24.782,24.782,0,0,0-4.431-5.936c-1.963-3.05,1.027-4.918,2.85-4.918a3.4,3.4,0,0,1,3.1,2.05l2.624,8.032C1024.429,898.349,1021.7,899.005,1021.7,899.005Z" transform="translate(-983.642 -872.933)" fill="#00a8dc"/>
      <path id="Trazado_34" data-name="Trazado 34" d="M959.663,897.837c-.929-.646-1.065-1.772,0-3.728a24.79,24.79,0,0,0,2.063-7.115c1.25-3.4,4.542-2.145,5.641-.691a3.4,3.4,0,0,1,.236,3.713l-4.825,6.937a2.311,2.311,0,0,1-3.111.884Z" transform="translate(-942.602 -872.738)" fill="#00a8dc"/>
      <path id="Trazado_35" data-name="Trazado 35" d="M927.516,890.017l11.413,8.838s-1.273,2.832-2.553,3.174-9.623-11.1-9.623-11.1Z" transform="translate(-918.573 -876.621)" fill="#00a8dc"/>
      <path id="Trazado_36" data-name="Trazado 36" d="M916.589,876.248c-.341-1.311-3.707.4-3.439,1.731s1.493,2.74,2.821,2.473,1.84-1.182,1.987-2.546C918.151,876.118,916.95,877.637,916.589,876.248Z" transform="translate(-908.397 -865.982)" fill="#f1dac4"/>
      <rect id="Rectángulo_8" data-name="Rectángulo 8" width="15.17" height="6.068" transform="translate(18.173 31.596)" fill="#757474"/>
      <path id="Trazado_37" data-name="Trazado 37" d="M967.614,967.164l.293,3.595,14.5-.848-.521-6.386Z" transform="translate(-949.103 -931.543)" fill="#757474"/>
      <path id="Trazado_38" data-name="Trazado 38" d="M964.672,1000.6l2.37-.293L964.6,980.53l-3.579.442Z" transform="translate(-944.179 -944.25)" fill="#757474"/>
      <path id="Trazado_39" data-name="Trazado 39" d="M894.4,1044.541l8.958.945.516-4.893-2.391-.122C899.112,1043.119,895.714,1038.743,894.4,1044.541Z" transform="translate(-894.397 -989.036)" fill="#ffc423"/>
      <path id="Trazado_40" data-name="Trazado 40" d="M931.262,965.837l-.607-3.526,15.134-.233.531,6.755Z" transform="translate(-921.488 -930.463)" fill="#757474"/>
      <path id="Trazado_41" data-name="Trazado 41" d="M924.788,982.165l-2.375-.251L924.5,962.1l3.587.378Z" transform="translate(-915.33 -930.48)" fill="#757474"/>
      <path id="Trazado_42" data-name="Trazado 42" d="M980.829,871h3.592C984.58,872.6,982.2,874.309,980.829,871Z" transform="translate(-958.977 -862.412)" fill="#fff"/>
      <path id="Trazado_43" data-name="Trazado 43" d="M980.156,896.8c-.754-1.126-3.367,1.6-2.676,2.768s2.313,2.094,3.478,1.4,1.348-1.723,1.037-3.059C981.588,896.166,980.954,898,980.156,896.8Z" transform="translate(-956.388 -881.492)" fill="#f1dac4"/>
      <path id="Trazado_44" data-name="Trazado 44" d="M1002.11,904.521l.081,2.343-6.2-1.755,7.3,6.539.1-4.058v-.464Z" transform="translate(-970.306 -887.457)" fill="#161615" opacity="0.2" style="mix-blend-mode: multiply;isolation: isolate"/>
      <path id="Trazado_45" data-name="Trazado 45" d="M994.932,906.846l13.688,4.582-1.364,3.839-12.745-7.31Z" transform="translate(-969.2 -889.195)" fill="#00a8dc"/>
      <g id="Grupo_15" data-name="Grupo 15" transform="translate(2.98 5.178)">
        <path id="Trazado_46" data-name="Trazado 46" d="M912.307,863.551a.63.63,0,0,1-.292.843l-2.167,1.052a.63.63,0,0,1-.843-.292l-2.759-5.683a.63.63,0,0,1,.292-.842l2.167-1.052a.63.63,0,0,1,.842.292Z" transform="translate(-906.183 -857.513)" fill="#9a8a7d"/>
        <rect id="Rectángulo_9" data-name="Rectángulo 9" width="3.43" height="6.217" transform="matrix(0.9, -0.437, 0.437, 0.9, 0.171, 1.906)" fill="#f27c00"/>
        <path id="Trazado_47" data-name="Trazado 47" d="M923.625,884.618a.177.177,0,0,1-.082.236l-.4.193a.177.177,0,0,1-.236-.082h0a.177.177,0,0,1,.082-.236l.4-.193a.176.176,0,0,1,.236.081Z" transform="translate(-918.668 -877.691)" fill="#cde7e2"/>
        <path id="Trazado_48" data-name="Trazado 48" d="M911.944,860.41a.025.025,0,0,1-.011.034l-.431.209a.025.025,0,0,1-.034-.012h0a.025.025,0,0,1,.012-.034l.431-.209a.025.025,0,0,1,.034.012Z" transform="translate(-910.13 -859.667)" fill="#cde7e2"/>
        <path id="Trazado_49" data-name="Trazado 49" d="M914.3,859.656c.006.013.007.025,0,.027l-.174.085c-.005,0-.014-.006-.02-.018h0c-.006-.013-.007-.025,0-.027l.175-.085c.005,0,.014.006.021.018Z" transform="translate(-912.1 -859.1)" fill="#cde7e2"/>
        <path id="Trazado_50" data-name="Trazado 50" d="M908.622,862.392a.064.064,0,0,1-.029.085.063.063,0,0,1-.084-.029.063.063,0,1,1,.114-.055Z" transform="translate(-907.915 -861.132)" fill="#cde7e2"/>
        <path id="Trazado_51" data-name="Trazado 51" d="M909.7,861.871a.063.063,0,1,1-.084-.03A.063.063,0,0,1,909.7,861.871Z" transform="translate(-908.719 -860.742)" fill="#cde7e2"/>
      </g>
    </g>
    <g id="Grupo_23" data-name="Grupo 23" transform="translate(782.068 181.67)">
      <g id="Grupo_17" data-name="Grupo 17" transform="translate(15.928)">
        <path id="Rectángulo_10" data-name="Rectángulo 10" d="M62.2,0h0A62.194,62.194,0,0,1,124.39,62.194V194.929a62.2,62.2,0,0,1-62.2,62.2h0A62.2,62.2,0,0,1,0,194.929V62.2A62.2,62.2,0,0,1,62.2,0Z" fill="#f4f4f4"/>
        <rect id="Rectángulo_11" data-name="Rectángulo 11" width="116.3" height="210.857" transform="translate(4.045 21.237)" fill="#c7e3e8"/>
        <path id="Trazado_53" data-name="Trazado 53" d="M1399.631,1271.941a5.941,5.941,0,0,1-5.941,5.942h-14.854a5.942,5.942,0,0,1-5.941-5.942h0a5.941,5.941,0,0,1,5.941-5.941h14.854a5.941,5.941,0,0,1,5.941,5.941Z" transform="translate(-1323.943 -1026.574)" fill="#cde7e2"/>
        <path id="Trazado_54" data-name="Trazado 54" d="M1408.448,356.885a.885.885,0,0,1-.885.885h-16.813a.885.885,0,0,1-.885-.885h0a.885.885,0,0,1,.885-.885h16.813a.885.885,0,0,1,.885.885Z" transform="translate(-1336.622 -346.645)" fill="#cde7e2"/>
        <path id="Trazado_55" data-name="Trazado 55" d="M1497.949,356.885c0,.489-.16.885-.358.885h-6.805c-.2,0-.358-.4-.358-.885h0c0-.489.161-.885.358-.885h6.805c.2,0,.358.4.358.885Z" transform="translate(-1411.76 -346.645)" fill="#cde7e2"/>
        <path id="Trazado_56" data-name="Trazado 56" d="M1285.366,350.372a2.139,2.139,0,1,1-2.139-2.139A2.139,2.139,0,0,1,1285.366,350.372Z" transform="translate(-1255.348 -340.842)" fill="#cde7e2"/>
        <path id="Trazado_57" data-name="Trazado 57" d="M1325.979,350.372a2.139,2.139,0,1,1-2.139-2.139A2.139,2.139,0,0,1,1325.979,350.372Z" transform="translate(-1285.692 -340.842)" fill="#cde7e2"/>
      </g>
      <g id="Grupo_18" data-name="Grupo 18" transform="translate(0 21.743)">
        <path id="Trazado_58" data-name="Trazado 58" d="M1133.553,420.928,1146.61,405h-9.536L1118.1,420.928h15.448Z" transform="translate(-1117.643 -405)" fill="#ccc"/>
        <path id="Trazado_59" data-name="Trazado 59" d="M1194.8,420.928h.173L1202.658,405h-10.234l-13.057,15.928Z" transform="translate(-1163.416 -405)" fill="#e03e4c"/>
        <path id="Trazado_60" data-name="Trazado 60" d="M1256.816,420.928h.292L1263.239,405h-14.282l-7.688,15.928Z" transform="translate(-1209.667 -405)" fill="#ccc"/>
        <path id="Trazado_61" data-name="Trazado 61" d="M1319.525,420.928h.076L1322.955,405h-12.728l-6.131,15.928Z" transform="translate(-1256.611 -405)" fill="#e03e4c"/>
        <path id="Trazado_62" data-name="Trazado 62" d="M1380.794,420.928l.7-15.928h-12.542l-3.354,15.928Z" transform="translate(-1302.561 -405)" fill="#ccc"/>
        <path id="Trazado_63" data-name="Trazado 63" d="M1426.348,420.928h15.694L1440.775,405H1426.6l-.7,15.928Z" transform="translate(-1347.621 -405)" fill="#e03e4c"/>
        <path id="Trazado_64" data-name="Trazado 64" d="M1486.212,420.928h15.673l-4.2-15.928h-12.763l1.267,15.928Z" transform="translate(-1391.717 -405)" fill="#ccc"/>
        <path id="Trazado_65" data-name="Trazado 65" d="M1539.829,420.928h15.549L1547.689,405h-12.11l4.2,15.928Z" transform="translate(-1429.569 -405)" fill="#e03e4c"/>
        <path id="Trazado_66" data-name="Trazado 66" d="M1591.51,420.928h15.428L1593.806,405h-10.157l7.69,15.928Z" transform="translate(-1465.485 -405)" fill="#ccc"/>
        <path id="Trazado_67" data-name="Trazado 67" d="M1637.409,420.928h15.72L1632.145,405h-8.16l13.132,15.928Z" transform="translate(-1495.624 -405)" fill="#e03e4c"/>
        <path id="Trazado_68" data-name="Trazado 68" d="M1116.838,468h-.561v7.567c0,4.682,3.509,8.477,7.838,8.477s7.837-3.8,7.837-8.477V468Z" transform="translate(-1116.278 -452.072)" fill="#e8e8e8"/>
        <path id="Trazado_69" data-name="Trazado 69" d="M1178.567,468h-.289v7.567c0,4.682,3.509,8.477,7.837,8.477s7.838-3.8,7.838-8.477V468Z" transform="translate(-1162.603 -452.072)" fill="#e25864"/>
        <path id="Trazado_70" data-name="Trazado 70" d="M1240.45,468h-.172v7.567c0,4.682,3.509,8.477,7.837,8.477s7.838-3.8,7.838-8.477V468Z" transform="translate(-1208.928 -452.072)" fill="#e8e8e8"/>
        <path id="Trazado_71" data-name="Trazado 71" d="M1303.569,468h-.291v7.567c0,4.682,3.509,8.477,7.838,8.477s7.838-3.8,7.838-8.477V468Z" transform="translate(-1255.999 -452.072)" fill="#e25864"/>
        <path id="Trazado_72" data-name="Trazado 72" d="M1380.509,468h-15.231v7.567c0,4.682,3.509,8.477,7.838,8.477s7.838-3.8,7.838-8.477V468Z" transform="translate(-1302.324 -452.072)" fill="#e8e8e8"/>
        <path id="Trazado_73" data-name="Trazado 73" d="M1442.927,468h-15.649v7.567c0,4.682,3.509,8.477,7.837,8.477s7.838-3.8,7.838-8.477V468Z" transform="translate(-1348.649 -452.072)" fill="#e25864"/>
        <path id="Trazado_74" data-name="Trazado 74" d="M1505.906,468h-15.628v7.567c0,4.682,3.509,8.477,7.837,8.477s7.838-3.8,7.838-8.477V468Z" transform="translate(-1395.722 -452.072)" fill="#e8e8e8"/>
        <path id="Trazado_75" data-name="Trazado 75" d="M1567.783,468h-15.5v7.567c0,4.682,3.508,8.477,7.838,8.477s7.838-3.8,7.838-8.477V468Z" transform="translate(-1442.046 -452.072)" fill="#e25864"/>
        <path id="Trazado_76" data-name="Trazado 76" d="M1630.662,468h-15.384v7.567c0,4.682,3.509,8.477,7.838,8.477s7.837-3.8,7.837-8.477V468Z" transform="translate(-1489.118 -452.072)" fill="#e8e8e8"/>
        <path id="Trazado_77" data-name="Trazado 77" d="M1692.952,468h-15.674v7.567c0,4.682,3.509,8.477,7.837,8.477s7.838-3.8,7.838-8.477V468Z" transform="translate(-1535.443 -452.072)" fill="#e25864"/>
      </g>
      <g id="Grupo_19" data-name="Grupo 19" transform="translate(30.592 61.942)">
        <path id="Trazado_78" data-name="Trazado 78" d="M1262.021,795.943c0,1.732-1.981,3.136-4.423,3.136h-12.9c-2.444,0-4.424-1.4-4.424-3.136v-.808c0-1.732,1.98-3.135,4.424-3.135h12.9c2.443,0,4.423,1.4,4.423,3.135Z" transform="translate(-1239.52 -734.356)" fill="#e25864"/>
        <rect id="Rectángulo_12" data-name="Rectángulo 12" width="45.761" height="45.761" fill="#f4f4f4"/>
        <path id="Trazado_79" data-name="Trazado 79" d="M1266.078,765.506a.515.515,0,0,1-.524.506h-27.57a.515.515,0,0,1-.524-.506h0a.515.515,0,0,1,.524-.506h27.57a.516.516,0,0,1,.524.506Z" transform="translate(-1237.414 -714.182)" fill="#ab9e90"/>
        <path id="Trazado_80" data-name="Trazado 80" d="M1256.511,775.506a.506.506,0,0,1-.506.505h-16.737a.505.505,0,0,1-.505-.505h0a.505.505,0,0,1,.505-.506h16.737a.506.506,0,0,1,.506.506Z" transform="translate(-1238.387 -721.654)" fill="#ab9e90"/>
      </g>
      <g id="Grupo_20" data-name="Grupo 20" transform="translate(82.421 61.942)">
        <path id="Trazado_81" data-name="Trazado 81" d="M1468.021,795.943c0,1.732-1.98,3.136-4.424,3.136h-12.9c-2.443,0-4.423-1.4-4.423-3.136v-.808c0-1.732,1.98-3.135,4.423-3.135h12.9c2.443,0,4.424,1.4,4.424,3.135Z" transform="translate(-1445.267 -734.356)" fill="#e25864"/>
        <rect id="Rectángulo_13" data-name="Rectángulo 13" width="45.761" height="45.761" fill="#f4f4f4"/>
        <path id="Trazado_82" data-name="Trazado 82" d="M1471.234,765.506a.515.515,0,0,1-.524.506h-27.57a.515.515,0,0,1-.524-.506h0a.515.515,0,0,1,.524-.506h27.57a.515.515,0,0,1,.524.506Z" transform="translate(-1442.531 -714.182)" fill="#ab9e90"/>
        <path id="Trazado_83" data-name="Trazado 83" d="M1461.667,775.506a.505.505,0,0,1-.505.505h-16.737a.505.505,0,0,1-.505-.505h0a.505.505,0,0,1,.505-.506h16.737a.506.506,0,0,1,.505.506Z" transform="translate(-1443.504 -721.654)" fill="#ab9e90"/>
        <path id="Trazado_84" data-name="Trazado 84" d="M1589.277,767.379l4.3-4.405,4.3,4.405V752h-8.6Z" transform="translate(-1552.112 -704.469)" fill="#ab9e90"/>
      </g>
      <g id="Grupo_21" data-name="Grupo 21" transform="translate(30.592 161.556)">
        <path id="Trazado_85" data-name="Trazado 85" d="M1262.021,1189.944c0,1.731-1.981,3.135-4.423,3.135h-12.9c-2.444,0-4.424-1.4-4.424-3.135v-.808c0-1.732,1.98-3.135,4.424-3.135h12.9c2.443,0,4.423,1.4,4.423,3.135Z" transform="translate(-1239.52 -1128.356)" fill="#e25864"/>
        <rect id="Rectángulo_14" data-name="Rectángulo 14" width="45.761" height="45.761" transform="translate(0 0)" fill="#f4f4f4"/>
        <path id="Trazado_86" data-name="Trazado 86" d="M1266.078,1159.505a.516.516,0,0,1-.524.506h-27.57a.515.515,0,0,1-.524-.506h0a.515.515,0,0,1,.524-.505h27.57a.515.515,0,0,1,.524.505Z" transform="translate(-1237.414 -1108.182)" fill="#ab9e90"/>
        <path id="Trazado_87" data-name="Trazado 87" d="M1256.5,1169.506a.506.506,0,0,1-.506.506h-16.749a.505.505,0,0,1-.506-.506h0a.506.506,0,0,1,.506-.506h16.749a.506.506,0,0,1,.506.506Z" transform="translate(-1238.368 -1115.654)" fill="#ab9e90"/>
      </g>
      <g id="Grupo_22" data-name="Grupo 22" transform="translate(82.421 161.556)">
        <path id="Trazado_88" data-name="Trazado 88" d="M1468.021,1189.944c0,1.731-1.98,3.135-4.424,3.135h-12.9c-2.443,0-4.423-1.4-4.423-3.135v-.808c0-1.732,1.98-3.135,4.423-3.135h12.9c2.443,0,4.424,1.4,4.424,3.135Z" transform="translate(-1445.267 -1128.356)" fill="#e25864"/>
        <rect id="Rectángulo_15" data-name="Rectángulo 15" width="45.761" height="45.761" transform="translate(0 0)" fill="#f4f4f4"/>
        <path id="Trazado_89" data-name="Trazado 89" d="M1471.234,1159.505a.515.515,0,0,1-.524.506h-27.57a.515.515,0,0,1-.524-.506h0a.515.515,0,0,1,.524-.505h27.57a.515.515,0,0,1,.524.505Z" transform="translate(-1442.531 -1108.182)" fill="#ab9e90"/>
        <path id="Trazado_90" data-name="Trazado 90" d="M1461.654,1169.506a.505.505,0,0,1-.506.506H1444.4a.506.506,0,0,1-.506-.506h0a.506.506,0,0,1,.506-.506h16.749a.505.505,0,0,1,.506.506Z" transform="translate(-1443.484 -1115.654)" fill="#ab9e90"/>
      </g>
      <rect id="Rectángulo_16" data-name="Rectángulo 16" width="109.221" height="23.766" transform="translate(23.513 131.217)" fill="#e25864"/>
      <path id="Trazado_91" data-name="Trazado 91" d="M1278.927,868.759a.759.759,0,0,1-.759.758h-39.883a.758.758,0,0,1-.758-.758h0a.758.758,0,0,1,.758-.759h39.883a.759.759,0,0,1,.759.759Z" transform="translate(-1206.872 -729.199)" fill="#f4f4f4"/>
      <path id="Trazado_92" data-name="Trazado 92" d="M1264.13,884.758a.759.759,0,0,1-.759.759H1238.26a.758.758,0,0,1-.759-.759h0a.758.758,0,0,1,.759-.758h25.111a.759.759,0,0,1,.759.758Z" transform="translate(-1206.854 -741.153)" fill="#f4f4f4"/>
      <path id="Trazado_93" data-name="Trazado 93" d="M1537.021,873.944c0,1.732-1.98,3.136-4.423,3.136h-12.9c-2.443,0-4.423-1.4-4.423-3.136v-.808c0-1.732,1.98-3.136,4.423-3.136h12.9c2.443,0,4.423,1.4,4.423,3.136Z" transform="translate(-1414.401 -730.693)" fill="#f4f4f4"/>
    </g>
    <path id="Trazado_94" data-name="Trazado 94" d="M1118.306,137.854c-2.189-6.566-8.13.625-8.13,4.691-3.752-3.44-17.51-5.629-13.445,3.126,2.5,4.69,10.631,4.065,14.7,4.69l.313.938C1113.928,148.173,1119.869,142.545,1118.306,137.854Z" transform="translate(-319.049)" fill="#e03e4c"/>
    <g id="Grupo_24" data-name="Grupo 24" transform="translate(862.337 162.492)">
      <path id="Trazado_95" data-name="Trazado 95" d="M1443.968,265.22c1.73-.672,2.789-1.025,1.746-4.583-1.469-5.012-4-11.675-4.917-14.3s-1.766-4.117-5.351-2.556c-2.1.913-1.934,3.795-1.114,5.907l5.693,13.023c.82,2.113,2.213,3.179,3.943,2.508Z" transform="translate(-1433.765 -243.146)" fill="#e29cc5"/>
      <path id="Trazado_96" data-name="Trazado 96" d="M1485.67,308.618l-23.832-1.718,2.191,6.152,21.572-2.487Z" transform="translate(-1454.74 -290.782)" fill="#e29cc5"/>
      <path id="Trazado_97" data-name="Trazado 97" d="M1559.511,303.349c1.672-1.1,3.671,4.111,2.063,5.305s-4.351,1.53-5.545-.078-.85-3.119.339-4.763C1557.923,301.66,1557.739,304.517,1559.511,303.349Z" transform="translate(-1524.563 -287.855)" fill="#f1dac4"/>
    </g>
    <rect id="Rectángulo_17" data-name="Rectángulo 17" width="15.17" height="15.928" transform="translate(878.395 175.097)" fill="#f39a29"/>
    <path id="Trazado_98" data-name="Trazado 98" d="M1561.576,298.567l-4.3,6.166V289.062l4.3-1.515Z" transform="translate(-663.713 -113.829)" fill="#f4a53f"/>
    <g id="Grupo_25" data-name="Grupo 25" transform="translate(845.365 162.722)">
      <path id="Trazado_99" data-name="Trazado 99" d="M1379.749,269.675c2.03-.664.747-.873-.23-5.027-1.376-5.852-3.867-13.665-4.762-16.738s-1.773-4.841-5.99-3.271c-2.468.919-2.459,4.241-1.647,6.72l5.732,15.32c.812,2.479,1.715,3.135,4.375,3.128Z" transform="translate(-1366.633 -244.055)" fill="#e29cc5"/>
      <path id="Trazado_100" data-name="Trazado 100" d="M1424.8,323.8l-26.5-7.333-1.693,6.761,27.678,2.754Z" transform="translate(-1389.027 -298.16)" fill="#e29cc5"/>
      <path id="Trazado_101" data-name="Trazado 101" d="M1511.749,335.936c2.136-.865,3.211,5.471,1.126,6.454s-5.256.741-6.239-1.344-.254-3.711,1.46-5.3C1510.34,333.671,1509.485,336.853,1511.749,335.936Z" transform="translate(-1470.909 -312.029)" fill="#f1dac4"/>
    </g>
    <path id="Trazado_102" data-name="Trazado 102" d="M1517.426,287h-14.4l-4.877,1.517h14.971Z" transform="translate(-619.536 -113.42)" fill="#fbb628"/>
    <rect id="Rectángulo_18" data-name="Rectángulo 18" width="23.513" height="24.777" transform="translate(990.144 220.1)" fill="#f39a29"/>
    <path id="Trazado_103" data-name="Trazado 103" d="M2039.1,479.027l-6.827,9.793V463.93l6.827-2.407Z" transform="translate(-1018.621 -243.82)" fill="#f4a53f"/>
    <path id="Trazado_104" data-name="Trazado 104" d="M1969.824,462h-22.639l-7.67,2.275h23.542Z" transform="translate(-949.311 -244.176)" fill="#fbb628"/>
    <path id="Trazado_105" data-name="Trazado 105" d="M1153.224,650.122a4.678,4.678,0,1,1-4.678-4.678A4.679,4.679,0,0,1,1153.224,650.122Z" transform="translate(-354.823 -381.24)" fill="#fd0"/>
    <path id="Trazado_106" data-name="Trazado 106" d="M1671.7,194.7a2.154,2.154,0,1,1-2.154-2.154A2.154,2.154,0,0,1,1671.7,194.7Z" transform="translate(-745.987 -42.846)" fill="#fd0"/>
    <path id="Trazado_107" data-name="Trazado 107" d="M1864.107,940.382a6.017,6.017,0,1,1-6.017-6.016A6.016,6.016,0,0,1,1864.107,940.382Z" transform="translate(-883.977 -597.116)" fill="#fd0"/>
    <path id="Trazado_108" data-name="Trazado 108" d="M1934.943,1227.545a3.36,3.36,0,1,1-3.36-3.36A3.36,3.36,0,0,1,1934.943,1227.545Z" transform="translate(-940.875 -813.661)" fill="#fd0"/>
    <path id="Trazado_109" data-name="Trazado 109" d="M1168.41,693.618a6.017,6.017,0,1,1-6.017-6.017A6.017,6.017,0,0,1,1168.41,693.618Z" transform="translate(-364.171 -412.739)" fill="#fd0"/>
    <path id="Trazado_110" data-name="Trazado 110" d="M1791.937,566.668c.166,2.355-2.387,4.453-5.7,4.686s-6.136-1.488-6.3-3.843,2.387-4.453,5.7-4.686S1791.771,564.313,1791.937,566.668Z" transform="translate(-830.07 -319.494)" fill="#fd0"/>
    <path id="Trazado_111" data-name="Trazado 111" d="M1002.083,311.476c.166,2.355-2.387,4.453-5.7,4.686s-6.136-1.487-6.3-3.843,2.387-4.453,5.7-4.686S1001.917,309.121,1002.083,311.476Z" transform="translate(-239.912 -128.821)" fill="#fd0"/>
    <path id="Trazado_112" data-name="Trazado 112" d="M1773.93,631.57c-.608,1.076-2.33,1.256-3.845.4s-2.251-2.423-1.643-3.5,2.33-1.256,3.845-.4S1774.538,630.494,1773.93,631.57Z" transform="translate(-821.33 -367.855)" fill="#fd0"/>
    <path id="Trazado_113" data-name="Trazado 113" d="M932.481,800.049c-.608,1.077-2.33,1.256-3.845.4s-2.251-2.423-1.643-3.5,2.33-1.255,3.845-.4S933.089,798.972,932.481,800.049Z" transform="translate(-192.621 -493.738)" fill="#fd0"/>
    <path id="Trazado_114" data-name="Trazado 114" d="M1707.907,219.125a4.857,4.857,0,1,1-4.856-4.857A4.856,4.856,0,0,1,1707.907,219.125Z" transform="translate(-769.002 -59.077)" fill="#fd0"/>
    <path id="Trazado_115" data-name="Trazado 115" d="M832.226,792.278a4.6,4.6,0,1,1-4.6-4.6A4.6,4.6,0,0,1,832.226,792.278Z" transform="translate(-115.105 -487.517)" fill="#fd0"/>
    <g id="Grupo_28" data-name="Grupo 28" transform="translate(710.772 342.759)">
      <path id="Trazado_116" data-name="Trazado 116" d="M1107.473,1072.373h20.445l.861-33.373h-19.666Z" transform="translate(-1038.402 -1018.054)" fill="#41ab99"/>
      <path id="Trazado_117" data-name="Trazado 117" d="M1138.278,1024.215a2.528,2.528,0,0,0,2.528,2.528h0a2.528,2.528,0,0,0,2.528-2.528v-3.022a2.528,2.528,0,0,0-2.528-2.528h0a2.528,2.528,0,0,0-2.528,2.528Z" transform="translate(-1061.419 -1002.86)" fill="#f1dac4"/>
      <path id="Trazado_118" data-name="Trazado 118" d="M1171.995,1386.742l11.342-4.642-2.536-6.2-2.944,1.4C1176.727,1382,1169.833,1378.947,1171.995,1386.742Z" transform="translate(-1086.3 -1269.781)" fill="#9a8a7d"/>
      <path id="Trazado_119" data-name="Trazado 119" d="M1101.41,974.006a8.959,8.959,0,1,0,17.917,0,8.83,8.83,0,0,0-8.958-8.958C1099.967,965.489,1106.942,975.029,1101.41,974.006Z" transform="translate(-1033.872 -962.793)" fill="#f1dac4"/>
      <path id="Trazado_120" data-name="Trazado 120" d="M1088.547,1062.406c-1.76-.82-2.322-2.684-1.1-6.3,1.725-5.115,1.4-12.633,1.4-12.633,1.115-6.123,7.051-4.96,9.334-2.824,1.4,1.313,2.491,4.058,1.489,6.208L1093.547,1060c-1,2.149-3.24,3.226-5,2.406Z" transform="translate(-1022.951 -1018.003)" fill="#41ab99"/>
      <path id="Trazado_121" data-name="Trazado 121" d="M1030.521,1129.164l15.336-19.45,5.409,4.428-19.195,16.345Z" transform="translate(-980.905 -1070.89)" fill="#41ab99"/>
      <path id="Trazado_122" data-name="Trazado 122" d="M1008.656,1186.837c-2.255.565.636,6.366,2.919,5.927s4.723-2.521,4.284-4.8-2-3.175-4.34-3.449C1008.456,1184.153,1011.045,1186.238,1008.656,1186.837Z" transform="translate(-963.958 -1126.746)" fill="#f1dac4"/>
      <rect id="Rectángulo_19" data-name="Rectángulo 19" width="20.479" height="8.343" transform="translate(69.021 54.319)" fill="#e44f62"/>
      <path id="Trazado_123" data-name="Trazado 123" d="M1159.332,1223.72h-4.9l-.454-19.72h8.7Z" transform="translate(-1073.151 -1141.338)" fill="#e44f62"/>
      <path id="Trazado_124" data-name="Trazado 124" d="M1169.068,1300.561l-3.007,1.231-10.27-25.088,4.541-1.858Z" transform="translate(-1074.505 -1194.272)" fill="#e44f62"/>
      <rect id="Rectángulo_20" data-name="Rectángulo 20" width="12.256" height="0.924" transform="matrix(0.925, -0.379, 0.379, 0.925, 85.345, 116.107)" fill="#9a8a7d"/>
      <path id="Trazado_125" data-name="Trazado 125" d="M1073.8,1395.218h12.256v-6.693l-3.253.176C1079.98,1392.62,1074.756,1387.184,1073.8,1395.218Z" transform="translate(-1013.245 -1279.21)" fill="#9a8a7d"/>
      <path id="Trazado_126" data-name="Trazado 126" d="M1112.788,1223.72h-4.9l-.454-19.72h8.7Z" transform="translate(-1038.375 -1141.338)" fill="#e44f62"/>
      <path id="Trazado_127" data-name="Trazado 127" d="M1112.52,1309.052h-3.242V1282h4.9Z" transform="translate(-1039.751 -1199.617)" fill="#e44f62"/>
      <rect id="Rectángulo_21" data-name="Rectángulo 21" width="12.136" height="1.011" transform="translate(60.678 114.997)" fill="#9a8a7d"/>
      <path id="Trazado_128" data-name="Trazado 128" d="M1112.432,1015h6.163C1118.869,1017.752,1114.793,1020.677,1112.432,1015Z" transform="translate(-1042.108 -1000.122)" fill="#fff"/>
      <path id="Trazado_129" data-name="Trazado 129" d="M1102.586,956.322c1.543.768,1.825,1.328,5.025.611,4.514-1.012,10.837-.935,10.728-.359a9.5,9.5,0,0,1-3.355,18.155,8.465,8.465,0,0,0,.155-3.326,2.586,2.586,0,1,0-1.2-3.2,7.743,7.743,0,0,1-.247-4.061c-2.645.294-4.947.752-8.618-.361C1101.744,962.655,1100.156,959.9,1102.586,956.322Z" transform="translate(-1033.873 -956.153)" fill="#f58e41"/>
      <path id="Trazado_130" data-name="Trazado 130" d="M1133.391,1076.422l-18.906,15.011s8.88-15.715,10.266-20.409c1.208-4.094,3.889-15.383,3.889-15.383l5.27.658Z" transform="translate(-1043.641 -1030.487)" fill="#161615" opacity="0.2" style="mix-blend-mode: multiply;isolation: isolate"/>
      <g id="Grupo_26" data-name="Grupo 26" transform="translate(0 59.628)">
        <path id="Trazado_131" data-name="Trazado 131" d="M855.542,1392.2a5.312,5.312,0,1,0,1.556-3.755A5.116,5.116,0,0,0,855.542,1392.2Z" transform="translate(-850.166 -1337.618)" fill="#e25864"/>
        <path id="Trazado_132" data-name="Trazado 132" d="M1002.594,1392.2a5.313,5.313,0,1,0,1.556-3.755A5.116,5.116,0,0,0,1002.594,1392.2Z" transform="translate(-960.039 -1337.618)" fill="#e25864"/>
        <path id="Trazado_133" data-name="Trazado 133" d="M890.146,1193.517a2.535,2.535,0,0,0-1.182.269,2.67,2.67,0,0,0-.83.643,3.316,3.316,0,0,0-.539,1.017,7.4,7.4,0,0,0-.311,1.1q-.082.456-.228,1.224t-.187,1.058h-9.614l.256-1.549V1192h-1.643a1.57,1.57,0,0,0-.9.268,2.214,2.214,0,0,0-.631.639,3.705,3.705,0,0,0-.411,1.011,9.165,9.165,0,0,0-.237,1.092q-.063.454-.174,1.216c-.044.3-.269,1.572-.452,2.6H836.928a2.681,2.681,0,0,0-2.65,2.639v21.254a2.617,2.617,0,0,0,.664,1.762,2.573,2.573,0,0,0,1.7.892l43.3,5.061q-.041.29-.187.892t-.249,1.1a4.523,4.523,0,0,0-.1.913,8.012,8.012,0,0,0,1,2.655h-38.16a2.655,2.655,0,0,0,0,5.309h42.552a2.692,2.692,0,0,0,2.654-2.655,4.526,4.526,0,0,0-.456-1.638q-.456-1.058-1.223-2.468t-.85-1.576l7.342-34.137h.421v-5.309Z" transform="translate(-834.278 -1192)" fill="#fff"/>
        <path id="Trazado_134" data-name="Trazado 134" d="M1075.23,1202.522a2.655,2.655,0,0,0-1.867-4.522h-8.085v5.309h8.085A2.551,2.551,0,0,0,1075.23,1202.522Z" transform="translate(-1006.875 -1196.483)" fill="#e25864"/>
        <path id="Trazado_135" data-name="Trazado 135" d="M1012.733,1197.309a1.755,1.755,0,0,0,1.424-.788,3.2,3.2,0,0,0,0-3.733,1.758,1.758,0,0,0-1.424-.788h-6.455v5.309Z" transform="translate(-962.792 -1192)" fill="#e25864"/>
      </g>
      <g id="Grupo_27" data-name="Grupo 27" transform="translate(63.7 20.944)">
        <path id="Trazado_136" data-name="Trazado 136" d="M1159.507,1062.069c-1.7-.94-2.13-2.838-.663-6.362,2.075-4.983,2.273-12.506,2.273-12.506,1.537-6.031,7.378-4.459,9.508-2.17,1.31,1.407,2.2,4.221,1.055,6.3l-7.02,12.688c-1.148,2.075-3.456,2.994-5.154,2.054Z" transform="translate(-1139.82 -1038.993)" fill="#41ab99"/>
        <path id="Trazado_137" data-name="Trazado 137" d="M1107.631,1131.148l13.324-20.879,4.577,4.677-16.227,17.365Z" transform="translate(-1102.22 -1092.248)" fill="#41ab99"/>
        <path id="Trazado_138" data-name="Trazado 138" d="M1086.929,1194.257c-2.187.787,1.266,6.271,3.494,5.607s4.448-2.979,3.785-5.206-2.306-2.96-4.661-3C1086.464,1191.607,1089.247,1193.424,1086.929,1194.257Z" transform="translate(-1086.231 -1153.06)" fill="#f1dac4"/>
      </g>
    </g>
    <g id="Grupo_29" data-name="Grupo 29" transform="translate(954.156 404.85)">
      <path id="Trazado_139" data-name="Trazado 139" d="M1797.1,1210.555c-.031-.208-.74-5.119,1.058-7.526a3.085,3.085,0,0,1,2.6-1.286c1.687,0,2.682.317,3.331,1.061,1.015,1.166,1.161,3.286,1.107,7.6l-.484-.008c.052-4.071-.079-6.188-.967-7.208-.549-.63-1.442-.9-2.987-.9a2.641,2.641,0,0,0-2.228,1.092c-1.653,2.212-.958,7.034-.95,7.082Z" transform="translate(-1796.934 -1201.743)" fill="#6d549b"/>
    </g>
    <g id="Grupo_30" data-name="Grupo 30" transform="translate(735.126 254.495)">
      <path id="Trazado_140" data-name="Trazado 140" d="M940.939,608.687a6.148,6.148,0,1,1-8.689.322A6.149,6.149,0,0,1,940.939,608.687Z" transform="translate(-930.606 -607.044)" fill="#9a8a7d"/>
      <rect id="Rectángulo_22" data-name="Rectángulo 22" width="1.256" height="3.802" transform="matrix(0.681, -0.733, 0.733, 0.681, 9.019, 9.977)" fill="#9a8a7d"/>
      <path id="Trazado_141" data-name="Trazado 141" d="M981.939,656.244a1.256,1.256,0,0,1,.066,1.776h0a1.256,1.256,0,0,1-1.775.066l-4-3.715a1.255,1.255,0,0,1-.066-1.776h0a1.257,1.257,0,0,1,1.776-.066Z" transform="translate(-964.395 -640.778)" fill="#007dbf"/>
      <path id="Trazado_142" data-name="Trazado 142" d="M943.558,612.934a5,5,0,1,1-7.061.262A5,5,0,0,1,943.558,612.934Z" transform="translate(-934.01 -610.447)" fill="#e4f2f0"/>
    </g>
    <path id="Trazado_143" data-name="Trazado 143" d="M1399.748,900.722l3.973,3.774,5.361-1.134-2.361,4.945,2.735,4.748-5.433-.718-3.671,4.068-1-5.388-5-2.234,4.817-2.613Z" transform="translate(-541.98 -571.977)" fill="#fd0"/>
    <g id="Grupo_31" data-name="Grupo 31" transform="translate(891.713 269.673)">
      <path id="Trazado_144" data-name="Trazado 144" d="M1569.97,670.075a1.2,1.2,0,0,1-.361.878l-9.349,9.348-1.756,1.756a1.246,1.246,0,0,1-1.756,0l-1.756-1.756-4.673-4.674a1.246,1.246,0,0,1,0-1.756l1.755-1.756a1.247,1.247,0,0,1,1.756,0l3.8,3.809,8.47-8.483a1.247,1.247,0,0,1,1.756,0l1.756,1.756A1.2,1.2,0,0,1,1569.97,670.075Z" transform="translate(-1549.956 -667.079)" fill="#b6cc6b"/>
    </g>
    <g id="Grupo_39" data-name="Grupo 39" transform="translate(990.925 191.22)">
      <g id="Grupo_32" data-name="Grupo 32" transform="translate(6.334 0)">
        <rect id="Rectángulo_23" data-name="Rectángulo 23" width="0.239" height="28.812" transform="matrix(0.964, -0.267, 0.267, 0.964, 0, 0.064)" fill="#fff"/>
      </g>
      <g id="Grupo_33" data-name="Grupo 33" transform="translate(0 2.038)">
        <rect id="Rectángulo_24" data-name="Rectángulo 24" width="0.239" height="29.288" transform="matrix(0.878, -0.48, 0.48, 0.878, 0, 0.114)" fill="#fff"/>
      </g>
      <g id="Grupo_34" data-name="Grupo 34" transform="translate(11.9 1.673)">
        <path id="Trazado_145" data-name="Trazado 145" d="M1991.566,389.522l-2.13-26.114.238-.019,2.13,26.113Z" transform="translate(-1989.436 -363.39)" fill="#fff"/>
      </g>
      <g id="Grupo_35" data-name="Grupo 35" transform="translate(14.6 3.214)">
        <rect id="Rectángulo_25" data-name="Rectángulo 25" width="24.778" height="0.239" transform="matrix(0.13, -0.991, 0.991, 0.13, 0, 24.566)" fill="#fff"/>
      </g>
      <g id="Grupo_36" data-name="Grupo 36" transform="translate(14.598 3.82)">
        <rect id="Rectángulo_26" data-name="Rectángulo 26" width="25.813" height="0.239" transform="translate(0 23.928) rotate(-67.968)" fill="#fff"/>
      </g>
      <g id="Grupo_37" data-name="Grupo 37" transform="translate(14.624 5.424)">
        <rect id="Rectángulo_27" data-name="Rectángulo 27" width="29.746" height="0.239" transform="matrix(0.662, -0.749, 0.749, 0.662, 0, 22.289)" fill="#fff"/>
      </g>
      <g id="Grupo_38" data-name="Grupo 38" transform="translate(14.625 3.16)">
        <rect id="Rectángulo_28" data-name="Rectángulo 28" width="29.388" height="0.239" transform="matrix(0.548, -0.836, 0.836, 0.548, 0, 24.575)" fill="#fff"/>
      </g>
    </g>
    <g id="Grupo_40" data-name="Grupo 40" transform="translate(979.223 164.294)">
      <path id="Trazado_146" data-name="Trazado 146" d="M2024.065,268.414a9.2,9.2,0,1,1-9.2-9.2A9.2,9.2,0,0,1,2024.065,268.414Z" transform="translate(-1977.955 -256.951)" fill="#41ab99"/>
      <path id="Trazado_147" data-name="Trazado 147" d="M1969.344,259.57a9.3,9.3,0,1,1-9.3-9.3A9.3,9.3,0,0,1,1969.344,259.57Z" transform="translate(-1936.93 -250.273)" fill="#b6cc6b"/>
      <path id="Trazado_148" data-name="Trazado 148" d="M1917.406,301.379a10.663,10.663,0,1,1-10.663-10.662A10.663,10.663,0,0,1,1917.406,301.379Z" transform="translate(-1896.081 -280.492)" fill="#ffc423"/>
      <path id="Trazado_149" data-name="Trazado 149" d="M1978.133,322.141a10.905,10.905,0,1,1-10.905-10.905A10.906,10.906,0,0,1,1978.133,322.141Z" transform="translate(-1941.091 -295.823)" fill="#e44f62"/>
      <circle id="Elipse_5" data-name="Elipse 5" cx="10.983" cy="10.983" r="10.983" transform="matrix(0.033, -0.999, 0.999, 0.033, 31.768, 35.239)" fill="#0097d3"/>
    </g>
    <path id="Trazado_150" data-name="Trazado 150" d="M1794.913,1251.282H1769.48l3.152-25.282h18.078Z" transform="translate(-822.265 -815.017)" fill="#553f8c"/>
    <path id="Trazado_151" data-name="Trazado 151" d="M1788.515,1253.01l-25.339-1.821,3.141-25.189h18.012Z" transform="translate(-817.556 -815.017)" fill="#6d549b"/>
    <g id="Grupo_41" data-name="Grupo 41" transform="translate(904.591 341.917)">
      <path id="Trazado_152" data-name="Trazado 152" d="M1665.152,985.242c-1.7-1.579-3.583-3.341-2.43-5.831.972-1.944,2.673-3.341,3.583-5.345a4.047,4.047,0,0,0-.3-4.495c-.547-.851-1.215-1.337-1.4-2.308-.243-1.154.3-1.64.79-2.612,2.308-4.07-1.7-7.411-5.71-6.864L1658,954.869c-1.957,0-4.69,2.615-5.358,4.376-.608,1.518-2.64,4.313-2.093,5.831.546,1.7,1.242,2-.52,3.4-1.032.912-2.308,1.033-1.761,2.855.425,1.275,3.159,3.219,1.883,4.738-1.032,1.275-4.191.547-3.948,3.037.06.911,1.154,1.276,1.032,2.248-.122,1.093-1.518,1.276-2.247,1.822-1.944,1.458-2,4.009.122,5.163.972.486,1.822.729,1.883,2,.061,1.093-.911,1.64-1.215,2.612-.485,1.823,1.823,3.219,3.28,3.645a51.189,51.189,0,0,1,5.285,1.214c2.065.669,4.555-.486,6.439-1.4,2.126-1.032,5.1-2.369,6.014-4.737A5.549,5.549,0,0,0,1665.152,985.242Z" transform="translate(-1632.742 -954.352)" fill="#db0060"/>
      <path id="Trazado_153" data-name="Trazado 153" d="M1692.76,1068.879h-20.067l2.946-16.074-.927-17.805h15.9l-1.291,17.2Z" transform="translate(-1654.54 -1014.224)" fill="#e13510"/>
      <path id="Trazado_154" data-name="Trazado 154" d="M1707.081,1021.338a2.4,2.4,0,0,1-2.4,2.4h0a2.4,2.4,0,0,1-2.4-2.4v-2.871a2.4,2.4,0,0,1,2.4-2.4h0a2.4,2.4,0,0,1,2.4,2.4Z" transform="translate(-1676.645 -1000.076)" fill="#f1dac4"/>
      <path id="Trazado_155" data-name="Trazado 155" d="M1706.064,971.968a8.758,8.758,0,0,1-17.516,0,8.632,8.632,0,0,1,8.758-8.758C1707.474,963.642,1700.656,972.967,1706.064,971.968Z" transform="translate(-1666.386 -960.579)" fill="#f1dac4"/>
      <path id="Trazado_156" data-name="Trazado 156" d="M1644.593,1057.071c1.716.81,2.724,1.346,4.628-1.933,2.682-4.619,5.841-11.185,7.139-13.716s1.809-4.208-1.873-5.768c-2.154-.913-4.175,1.238-5.164,3.335l-5.647,13.393c-.989,2.1-.8,3.88.917,4.69Z" transform="translate(-1632.411 -1014.551)" fill="#e13510"/>
      <path id="Trazado_157" data-name="Trazado 157" d="M1616.941,1126.816l11.411-21.606-5.545-2.756-7.661,23.5Z" transform="translate(-1611.542 -1064.623)" fill="#e13510"/>
      <path id="Trazado_158" data-name="Trazado 158" d="M1606.829,1201.181c.345,2.019-5.359,1.746-5.815-.251s.357-4.7,2.355-5.159,3.27.486,4.32,2.276C1609.063,1200.39,1606.464,1199.042,1606.829,1201.181Z" transform="translate(-1600.89 -1134.263)" fill="#f1dac4"/>
      <path id="Trazado_159" data-name="Trazado 159" d="M1734.217,1057.284c1.737-.765,2.8-1.174,1.576-4.761-1.729-5.054-4.615-11.745-5.674-14.384s-1.991-4.126-5.583-2.368c-2.1,1.028-1.8,3.964-.868,6.085l6.408,13.045c.934,2.121,2.4,3.148,4.142,2.383Z" transform="translate(-1692.092 -1014.23)" fill="#e13510"/>
      <path id="Trazado_160" data-name="Trazado 160" d="M1765.67,1127.068l-8.828-22.783-5.718,2.378,12.715,21.193Z" transform="translate(-1713.141 -1065.991)" fill="#e13510"/>
      <path id="Trazado_161" data-name="Trazado 161" d="M1804.5,1196.645c1.75,1.064-2.2,5.191-4,4.225s-3.316-3.354-2.351-5.161,2.512-2.149,4.552-1.769C1805.369,1194.439,1802.647,1195.517,1804.5,1196.645Z" transform="translate(-1748.051 -1132.877)" fill="#f1dac4"/>
      <rect id="Rectángulo_29" data-name="Rectángulo 29" width="19.973" height="7.079" transform="translate(18.301 54.655)" fill="#005fab"/>
      <path id="Trazado_162" data-name="Trazado 162" d="M1676.156,1216.312l4.726.635L1681.4,1197h-8.611Z" transform="translate(-1654.609 -1135.266)" fill="#005fab"/>
      <path id="Trazado_163" data-name="Trazado 163" d="M1669.541,1297.918l3.1.7,5.817-25.854-4.68-1.053Z" transform="translate(-1652.185 -1191.086)" fill="#005fab"/>
      <path id="Trazado_164" data-name="Trazado 164" d="M1738.25,1014h-3.763C1734.32,1015.68,1736.808,1017.466,1738.25,1014Z" transform="translate(-1700.705 -998.533)" fill="#fff"/>
      <path id="Trazado_165" data-name="Trazado 165" d="M1668.495,1375.575c1.853,4.345,8.027,4.411,7.188,8.148l-8.587-1.932.01-.042s.115-2.693-.431-2.815a1.012,1.012,0,0,0-1.21.765l-.344,1.648-1.128-.254,1.436-6.384Z" transform="translate(-1648.039 -1268.045)" fill="#fca01f"/>
      <path id="Trazado_166" data-name="Trazado 166" d="M1723.5,1216.373l4.736-.759-2.62-19.139-8.917-.169Z" transform="translate(-1687.417 -1134.747)" fill="#005fab"/>
      <path id="Trazado_167" data-name="Trazado 167" d="M1749.387,1299.344l3.136-.5-4.2-26.167-4.736.76Z" transform="translate(-1707.512 -1191.808)" fill="#005fab"/>
      <path id="Trazado_168" data-name="Trazado 168" d="M1769.561,1376.171c3.334,3.346,9.091,1.116,9.7,4.9l-8.69,1.394c0-.016,0-.031-.006-.043s-.893-2.543-1.445-2.454a1.013,1.013,0,0,0-.839,1.16l.292,1.657-1.141.183-1.036-6.461Z" transform="translate(-1724.55 -1269.138)" fill="#fca01f"/>
      <path id="Trazado_169" data-name="Trazado 169" d="M1692.846,955.652a.78.78,0,0,0,.243-.608c-.121-1.579-1.275-2.551-2.369-1.154-.547.729-.773.791-1.827.3-4.466-2.066-9.576-1.3-10.13-.853-3.779.124-7.451,5.1-7.451,8.878a9.286,9.286,0,0,0,8.773,9.272,8.243,8.243,0,0,1-.152-3.251,2.528,2.528,0,1,1,1.177-3.132c.256-.817,1.78-1.466,2.053-4.8a1.661,1.661,0,0,0,.693-.521c.061,1.943,3.887,1.518,4.374,0-.365,1.032.79,1.154,1.518,1.032a2.009,2.009,0,0,0,1.944-1.519c.79,1.579,2.49.3,2.855-.911C1694.911,956.927,1693.818,956.259,1692.846,955.652Z" transform="translate(-1653.508 -952.824)" fill="#db0060"/>
    </g>
  </g>
</svg>
