<svg xmlns="http://www.w3.org/2000/svg" width="143.57" height="39.668" viewBox="0 0 143.57 39.668">
  <g id="nasbi-logo-footer-blanco-solo" transform="translate(-201.002 -315.998)">
    <g id="Grupo_8372" data-name="Grupo 8372" transform="translate(201 315.999)">
      <path id="Trazado_46668" data-name="Trazado 46668" d="M483.731,692.255a14.651,14.651,0,0,1,14.626,14.626v11.556a2.847,2.847,0,0,1-.914,2.158,2.953,2.953,0,0,1-2.158.914h-.076a2.952,2.952,0,0,1-2.158-.914,2.845,2.845,0,0,1-.912-2.158q-2.894,3.072-8.407,3.072a14.627,14.627,0,1,1,0-29.254Zm0,6.221a8.41,8.41,0,1,0,5.944,2.463,8.125,8.125,0,0,0-5.944-2.463Zm27.056,0a2.552,2.552,0,0,0-1.879.762,2.608,2.608,0,0,0-.762,1.879,2.444,2.444,0,0,0,1.473,2.285,34.671,34.671,0,0,0,4.24,1.27,10.806,10.806,0,0,1,4.494,2.258,7.517,7.517,0,0,1,2.106,5.713A8.844,8.844,0,0,1,511.6,721.5h-6.626a2.952,2.952,0,0,1-2.158-.914,2.844,2.844,0,0,1-.914-2.158v-.051a3.121,3.121,0,0,1,3.072-3.1h6.881a2.6,2.6,0,0,0,2.641-2.641,2.257,2.257,0,0,0-1.447-2.106q-.381-.178-4.266-1.27a10.627,10.627,0,0,1-4.494-2.336,7.758,7.758,0,0,1-2.106-5.815,8.884,8.884,0,0,1,8.86-8.863h4.672a3.121,3.121,0,0,1,3.1,3.1v.051a2.846,2.846,0,0,1-.914,2.158,2.981,2.981,0,0,1-2.184.914Zm27.845.051a8.41,8.41,0,1,0,5.941,2.463,8.125,8.125,0,0,0-5.941-2.463Zm-11.477-16.682a3.077,3.077,0,0,1,3.072,3.072V694.8q2.869-2.539,8.4-2.539A14.614,14.614,0,1,1,524,706.955V684.919a3.077,3.077,0,0,1,3.072-3.072Zm33.988,10.411a2.845,2.845,0,0,1,2.158.914,2.979,2.979,0,0,1,.914,2.184v23.084a3.122,3.122,0,0,1-3.072,3.072h-.052a2.981,2.981,0,0,1-2.184-.914,2.844,2.844,0,0,1-.914-2.158V695.355a3.121,3.121,0,0,1,3.1-3.1Zm-.023-3.3a3.543,3.543,0,1,1,2.489-6.045,3.467,3.467,0,0,1,0,5,3.4,3.4,0,0,1-2.49,1.041Z" transform="translate(-421.102 -681.844)" fill="#fff"/>
      <g id="Grupo_8370" data-name="Grupo 8370">
        <path id="Trazado_46669" data-name="Trazado 46669" d="M156.367,831.706a3.225,3.225,0,0,1,.53-.933,7.339,7.339,0,0,1,5.8-3.562,7.756,7.756,0,0,1,3.825.677,13.45,13.45,0,0,1,4.821,3.557c-.381,2.563-.732,4.469-1.153,7.025a7.46,7.46,0,0,1-14.663-2.758" transform="translate(-155.401 -804.947)" fill="#fff"/>
        <path id="Trazado_46670" data-name="Trazado 46670" d="M361.886,681.853a8.209,8.209,0,0,0-8.557,6.962l-1.555,10.113c2.013,1.935,5.673,6.213,9.966,4.552,4.636-1.794,5.557-7.086,5.557-7.086a.257.257,0,0,1-.006.045l1-6.552a6.8,6.8,0,0,0,.08-.7,6.92,6.92,0,0,0-6.484-7.329" transform="translate(-321.725 -681.841)" fill="#fff"/>
        <path id="Trazado_46671" data-name="Trazado 46671" d="M163.183,725.393c-.116.689-.213,1.27-.278,1.692.088-.16.178-.317.274-.468a7.545,7.545,0,0,1,5.962-3.662,7.973,7.973,0,0,1,3.932.695,13.809,13.809,0,0,1,4.906,3.6h0c3.838,3.367,11.05,11.5,15.992,13.433,5.721,2.239,8.705-.995,10.115-5.8a78.038,78.038,0,0,0,1.612-9.6l.7-5.51a9.042,9.042,0,0,1-4.853,4.811c-4.369,1.691-8.1-2.663-10.147-4.634v-.019c-3.548-3.041-7.2-7.125-10.033-9.915-4.974-4.891-7.876-5.389-11.773-3.98s-4.394,7.047-4.394,7.047" transform="translate(-161.757 -701.74)" fill="#fff"/>
      </g>
    </g>
  </g>
</svg>
