<svg xmlns="http://www.w3.org/2000/svg" xmlns:xlink="http://www.w3.org/1999/xlink" width="152.097" height="44" viewBox="0 0 152.097 44">
  <defs>
    <linearGradient id="linear-gradient" y1="0.5" x2="1" y2="0.5" gradientUnits="objectBoundingBox">
      <stop offset="0" stop-color="#5f19bb"/>
      <stop offset="1" stop-color="#5719a5"/>
    </linearGradient>
    <clipPath id="clip-path">
      <path id="Trazado_46722" data-name="Trazado 46722" d="M337.372,158.429a8.316,8.316,0,0,0-.2,1.516l-.014.1h.01q0,.2,0,.4a8.33,8.33,0,0,0,8.493,8.163c3.783-.075,6.082-1.684,7.028-5.159l-.216-.3-.467-.539c.1-.449,1.611-1.1,1.635-1.574l3.3-23.372q.012-.081.022-.163l.006-.042h0a8.33,8.33,0,1,0-16.493-2.352h0v.006q-.038.234-.063.472Z" transform="translate(-337.157 -127.951)" fill="none"/>
    </clipPath>
    <filter id="Trazado_46721" x="-128.165" y="-512.396" width="436.094" height="548.468" filterUnits="userSpaceOnUse">
      <feOffset dx="64.536" dy="-322.682" input="SourceAlpha"/>
      <feGaussianBlur stdDeviation="64.536" result="blur"/>
      <feFlood flood-opacity="0.749"/>
      <feComposite operator="in" in2="blur"/>
      <feComposite in="SourceGraphic"/>
    </filter>
    <clipPath id="clip-path-2">
      <path id="Trazado_46729" data-name="Trazado 46729" d="M164.048,162.155a8.252,8.252,0,0,0,.23-1.5l.016-.1h-.01c.006-.132.01-.266.01-.4a8.248,8.248,0,0,0-16.161-2.328l-.04-.007-.059.378a8.254,8.254,0,0,0-.213,1.365l-3.547,22.754c-.009.054-.017.107-.025.161l-.006.041h0a8.248,8.248,0,0,0,16.277,2.65h0v-.006q.042-.231.071-.466Z" transform="translate(-144.162 -151.908)" fill="none"/>
    </clipPath>
    <linearGradient id="linear-gradient-2" x1="0.02" y1="0.057" x2="0.995" y2="0.87" xlink:href="#linear-gradient"/>
    <filter id="Trazado_46728" x="-257.134" y="15.145" width="434.358" height="545.103" filterUnits="userSpaceOnUse">
      <feOffset dx="-64.536" dy="322.682" input="SourceAlpha"/>
      <feGaussianBlur stdDeviation="64.536" result="blur-2"/>
      <feFlood flood-opacity="0.302"/>
      <feComposite operator="in" in2="blur-2"/>
      <feComposite in="SourceGraphic"/>
    </filter>
    <linearGradient id="linear-gradient-4" x1="0.034" y1="0.191" x2="0.968" y2="0.986" gradientUnits="objectBoundingBox">
      <stop offset="0" stop-color="#8126c6"/>
      <stop offset="1" stop-color="#5315a4"/>
    </linearGradient>
    <linearGradient id="linear-gradient-5" y1="0.5" x2="1" y2="0.5" gradientUnits="objectBoundingBox">
      <stop offset="0" stop-color="#fff" stop-opacity="0"/>
      <stop offset="0.174" stop-color="#fff"/>
      <stop offset="0.409" stop-color="#fff"/>
      <stop offset="0.999" stop-color="#fff" stop-opacity="0"/>
    </linearGradient>
  </defs>
  <g id="nasbi-logo-principal-color-solo" transform="translate(-144.162 -127.951)">
    <path id="Trazado_46693" data-name="Trazado 46693" d="M484.416,146.226a15.337,15.337,0,0,1,15.311,15.311v12.1a2.981,2.981,0,0,1-.956,2.259,3.09,3.09,0,0,1-2.259.957h-.079a3.09,3.09,0,0,1-2.259-.957,2.978,2.978,0,0,1-.955-2.259q-3.03,3.216-8.8,3.216a15.312,15.312,0,0,1,0-30.623Zm0,6.516a8.8,8.8,0,1,0,6.222,2.578,8.505,8.505,0,0,0-6.222-2.584Zm28.323,0a2.671,2.671,0,0,0-1.967.8,2.73,2.73,0,0,0-.8,1.967,2.558,2.558,0,0,0,1.542,2.392,36.277,36.277,0,0,0,4.439,1.329,11.315,11.315,0,0,1,4.705,2.364,7.869,7.869,0,0,1,2.205,5.98,9.257,9.257,0,0,1-9.276,9.277h-6.937a3.091,3.091,0,0,1-2.259-.956,2.977,2.977,0,0,1-.956-2.259v-.053a3.268,3.268,0,0,1,3.216-3.243h7.2a2.724,2.724,0,0,0,2.765-2.765,2.364,2.364,0,0,0-1.515-2.205q-.4-.186-4.466-1.329a11.127,11.127,0,0,1-4.705-2.446,8.12,8.12,0,0,1-2.205-6.088A9.3,9.3,0,0,1,513,146.23h4.891a3.267,3.267,0,0,1,3.243,3.243v.053a2.98,2.98,0,0,1-.956,2.259,3.122,3.122,0,0,1-2.286.957Zm29.149.053a8.8,8.8,0,1,0,6.215,2.578,8.5,8.5,0,0,0-6.215-2.578Zm-12.015-17.464a3.222,3.222,0,0,1,3.216,3.216v10.34q3.007-2.658,8.8-2.658a15.3,15.3,0,1,1-15.313,15.389V138.544a3.221,3.221,0,0,1,3.216-3.216Zm35.579,10.9a2.977,2.977,0,0,1,2.259.956,3.119,3.119,0,0,1,.957,2.285v24.165a3.269,3.269,0,0,1-3.216,3.216H565.4a3.121,3.121,0,0,1-2.286-.957,2.977,2.977,0,0,1-.956-2.259V149.474a3.267,3.267,0,0,1,3.243-3.243Zm-.024-3.454a3.709,3.709,0,1,1,2.606-6.328,3.629,3.629,0,0,1,0,5.237,3.557,3.557,0,0,1-2.606,1.09Z" transform="translate(-272.891 -6.039)" fill="#5c14b4"/>
    <g id="Grupo_8380" data-name="Grupo 8380" transform="translate(144.162 127.951)">
      <path id="Trazado_46715" data-name="Trazado 46715" d="M337.475,158.428a8.31,8.31,0,0,0-.2,1.516l-.014.1h.01v.4a8.33,8.33,0,0,0,8.493,8.163c3.784-.075,6.082-1.684,7.028-5.159l-.216-.3-.467-.539c.1-.449,1.611-1.1,1.635-1.574l3.3-23.372q.012-.081.022-.163l.006-.042h0a8.416,8.416,0,0,0,.058-1.166,8.331,8.331,0,0,0-16.55-1.186h0v.006q-.038.234-.063.472Z" transform="translate(-306.327 -127.951)" fill="url(#linear-gradient)"/>
      <path id="Trazado_46716" data-name="Trazado 46716" d="M337.475,158.428a8.31,8.31,0,0,0-.2,1.516l-.014.1h.01v.4a8.33,8.33,0,0,0,8.493,8.163c3.784-.075,6.082-1.684,7.028-5.159l-.216-.3-.467-.539c.1-.449,1.611-1.1,1.635-1.574l3.3-23.372q.012-.081.022-.163l.006-.042h0a8.416,8.416,0,0,0,.058-1.166,8.331,8.331,0,0,0-16.55-1.186h0v.006q-.038.234-.063.472Z" transform="translate(-306.327 -127.951)" fill="#39e7dd"/>
      <path id="Trazado_46717" data-name="Trazado 46717" d="M363.47,234.03c-4.333,4.058-13.447,4.931-15.838-.336l-.27,2.173c5.02,5.29,8.685,4.868,8.685,4.868,7.041-.081,8.446-7.873,8.446-7.873a6.866,6.866,0,0,1-1.023,1.168Z" transform="translate(-314.813 -215.902)" fill="#491392"/>
      <path id="Trazado_46718" data-name="Trazado 46718" d="M367.049,137.507l.006-.042h0a8.431,8.431,0,0,0,.058-1.166,8.331,8.331,0,0,0-16.55-1.186h0v.006q-.038.234-.063.472l-1.352,10.15c3.012,5.936,13.113,4.3,16.85-.79l1.028-7.281C367.035,137.617,367.043,137.562,367.049,137.507Z" transform="translate(-316.311 -127.951)" fill="#a582d1"/>
      <path id="Trazado_46719" data-name="Trazado 46719" d="M371.556,136.3A8.331,8.331,0,0,0,355,135.117h0v.006q-.038.234-.063.472l-.5,3.781,7.478,9,8.966-6.555.586-4.152q.012-.081.022-.163l.006-.042h0a8.418,8.418,0,0,0,.06-1.169Z" transform="translate(-320.755 -127.951)" fill="#5e19ba"/>
      <path id="Trazado_46720" data-name="Trazado 46720" d="M381.944,134.817l-4.929,3.609-4.411-4.978a8.356,8.356,0,0,0-2.628,2.029l5.426,6.129a1.84,1.84,0,0,0,2.419.234l6.014-4.4a8.348,8.348,0,0,0-1.892-2.619Z" transform="translate(-333.806 -132.41)" fill="#8149c9"/>
      <g id="Grupo_8375" data-name="Grupo 8375" transform="translate(30.917 0)" opacity="0.4">
        <g id="Grupo_8374" data-name="Grupo 8374" transform="translate(0)" clip-path="url(#clip-path)">
          <g transform="matrix(1, 0, 0, 1, -30.92, 0)" filter="url(#Trazado_46721)">
            <path id="Trazado_46721-2" data-name="Trazado 46721" d="M190.035,172.2c-4.01-.107-8.559-4.823-8.559-4.823q-.521-.528-1.048-1.052-1.34-1.336-2.7-2.657-1.824-1.777-3.68-3.523c-1.315-1.235-2.644-2.457-4-3.649-2.583-2.273-5.389-5.239-9.137-5.187a8.456,8.456,0,0,0-8.22,6.408l-2.865,18.99s.032-.083.1-.229l1.134-7.518a8.456,8.456,0,0,1,8.22-6.408c3.748-.052,6.554,2.914,9.137,5.187,1.354,1.192,2.683,2.414,4,3.649q1.856,1.743,3.68,3.523,1.355,1.321,2.7,2.657.525.524,1.048,1.051s4.554,4.711,8.559,4.823c6.893.185,8.675-8.46,8.675-8.46l-1.015,7.024-.215,1.48a20.3,20.3,0,0,0,.407-2.29c.417-3.483.937-6.96,1.439-10.436l1.015-7.024S196.928,172.389,190.035,172.2Z" transform="translate(-148.93 -147.42)" fill="#1f0a3c"/>
          </g>
        </g>
      </g>
      <path id="Trazado_46723" data-name="Trazado 46723" d="M164.048,162.155a8.252,8.252,0,0,0,.23-1.5l.016-.1h-.01c.006-.132.01-.266.01-.4a8.248,8.248,0,0,0-16.161-2.328l-.04-.007-.059.378a8.254,8.254,0,0,0-.213,1.365l-3.547,22.754c-.009.054-.017.107-.025.161l-.006.041h0a8.248,8.248,0,0,0,16.277,2.65h0v-.006q.042-.231.071-.466Z" transform="translate(-144.162 -147.914)" fill="#39e7dd"/>
      <g id="Grupo_8376" data-name="Grupo 8376" transform="translate(0.002 23.999)">
        <path id="Trazado_46724" data-name="Trazado 46724" d="M152.85,276.8c-4.624-.118-7,3.626-7.74,5.056l-.834,5.349c-.009.054-.017.107-.025.161l-.006.041h0a8.248,8.248,0,0,0,16.277,2.65h0v-.006q.042-.231.071-.466l1.233-8.046C160.994,280.515,157.724,276.923,152.85,276.8Z" transform="translate(-144.164 -276.797)" fill="#26b7b6"/>
        <path id="Trazado_46725" data-name="Trazado 46725" d="M160.522,302.2h0v-.006q.042-.231.071-.466l1.142-7.447c-3.853-5.613-14.417-2.564-17.015,2.205l-.445,2.857c-.009.053-.017.107-.025.161l-.006.041h0a8.248,8.248,0,0,0,16.277,2.65Z" transform="translate(-144.164 -288.938)" fill="#38f2f7"/>
        <path id="Trazado_46726" data-name="Trazado 46726" d="M160.522,303.7h0v-.006q.042-.231.071-.466l.16-1.049-7.059-9.138-9.322,7.205-.093.6c-.009.054-.017.107-.025.161l-.006.041h0a8.248,8.248,0,0,0,16.277,2.65Z" transform="translate(-144.164 -290.437)" fill="#01ebee"/>
        <path id="Trazado_46727" data-name="Trazado 46727" d="M155.041,337.334l-6.58,5.083a8.265,8.265,0,0,0,1.87,2.669l5.413-4.181,4.215,5.456a8.281,8.281,0,0,0,2.5-2.092l-5.132-6.643a1.628,1.628,0,0,0-2.284-.293Z" transform="translate(-147.772 -327.353)" fill="#7ef7fe"/>
      </g>
      <g id="Grupo_8378" data-name="Grupo 8378" transform="translate(0 3.993)" opacity="0.5">
        <g id="Grupo_8377" data-name="Grupo 8377" transform="translate(0 0)" clip-path="url(#clip-path-2)">
          <g transform="matrix(1, 0, 0, 1, 0, -3.99)" filter="url(#Trazado_46728)">
            <path id="Trazado_46728-2" data-name="Trazado 46728" d="M188.926,242.417c-4.01-.108-8.559-4.823-8.559-4.823q-.521-.528-1.048-1.051-1.34-1.336-2.7-2.657-1.824-1.777-3.68-3.523c-1.315-1.235-2.644-2.457-4-3.649-2.583-2.273-5.389-5.24-9.137-5.187a8.456,8.456,0,0,0-8.22,6.408l-1.134,7.518c.48-1.035,2.749-5.248,7.831-5.133,5.122.115,8.921,4.8,8.921,4.8l12.658,11.528a15.486,15.486,0,0,0,4.975,3.125,10.207,10.207,0,0,0,3.665.556c4.6-.092,6.908-3.883,7.862-7.876l.215-1.48,1.015-7.024S195.819,242.6,188.926,242.417Z" transform="translate(-149.45 -206.38)" fill="url(#linear-gradient-2)"/>
          </g>
        </g>
      </g>
      <path id="Trazado_46730" data-name="Trazado 46730" d="M188.926,242.417c-4.01-.108-8.559-4.823-8.559-4.823q-.521-.528-1.048-1.051-1.34-1.336-2.7-2.657-1.824-1.777-3.68-3.523c-1.315-1.235-2.644-2.457-4-3.649-2.583-2.273-5.389-5.24-9.137-5.187a8.456,8.456,0,0,0-8.22,6.408l-1.134,7.518c.48-1.035,2.749-5.248,7.831-5.133,5.122.115,8.921,4.8,8.921,4.8l12.658,11.528a15.486,15.486,0,0,0,4.975,3.125,10.207,10.207,0,0,0,3.665.556c4.6-.092,6.908-3.883,7.862-7.876.071-.493.223-.991.294-1.485.339-2.342.6-4.677.935-7.017C197.6,233.958,195.819,242.6,188.926,242.417Z" transform="translate(-149.446 -206.384)" fill="url(#linear-gradient-2)"/>
      <path id="Trazado_46731" data-name="Trazado 46731" d="M190.035,172.2c-4.01-.107-8.559-4.823-8.559-4.823q-.521-.528-1.048-1.052-1.34-1.336-2.7-2.657-1.824-1.777-3.68-3.523c-1.315-1.235-2.644-2.457-4-3.649-2.583-2.273-5.389-5.239-9.137-5.187a8.456,8.456,0,0,0-8.22,6.408l-2.865,18.99s.032-.083.1-.229l1.134-7.518a8.456,8.456,0,0,1,8.22-6.408c3.748-.052,6.554,2.914,9.137,5.187,1.354,1.192,2.683,2.414,4,3.649q1.856,1.743,3.68,3.523,1.355,1.321,2.7,2.657.525.524,1.048,1.051s4.554,4.711,8.559,4.823c6.893.185,8.675-8.46,8.675-8.46l-1.015,7.024-.215,1.48a20.3,20.3,0,0,0,.407-2.29c.417-3.483.937-6.96,1.439-10.436l1.015-7.024S196.928,172.389,190.035,172.2Z" transform="translate(-148.925 -147.417)" fill="url(#linear-gradient-4)"/>
      <path id="Trazado_46732" data-name="Trazado 46732" d="M375.244,254.509s-.335-.2-.23-.019,4.038,2.63,7.441,1.044a9.623,9.623,0,0,0,4.532-4.8s.072-.441-.175,0-1.984,3.869-5.538,4.854C378.682,256.307,376.5,255.141,375.244,254.509Z" transform="translate(-338.017 -230.749)" opacity="0.8" fill="url(#linear-gradient-5)"/>
      <path id="Trazado_46733" data-name="Trazado 46733" d="M348.125,148.384s-.055.407.229.436.268-.436.268-.436l1.177-9.249s.345-3.1.462-3.591a8.246,8.246,0,0,1,2.891-4.811,8.038,8.038,0,0,1,8.225-1,7.223,7.223,0,0,0-5.17-.671,7.78,7.78,0,0,0-5.3,3.859,8.912,8.912,0,0,0-1.073,2.891C349.53,137.049,348.125,148.384,348.125,148.384Z" transform="translate(-315.449 -128.557)" opacity="0.8" fill="url(#linear-gradient-5)"/>
      <g id="Grupo_8379" data-name="Grupo 8379" transform="translate(0.358 4.14)">
        <path id="Trazado_46734" data-name="Trazado 46734" d="M149.272,190.622a8.336,8.336,0,0,1-2.406-5.9,8.607,8.607,0,0,1,.076-1.143h0l.006-.041c.007-.053.015-.107.024-.16l3.32-22.471a.21.21,0,0,1,.008-.07,12.124,12.124,0,0,1,.231-1.362l.094-.368a8.2,8.2,0,0,1,7.648-6.026,7.455,7.455,0,0,1,2.205.171,7.411,7.411,0,0,0-2.667-.33,8.2,8.2,0,0,0-7.648,6.026l-.094.368a13.23,13.23,0,0,0-.247,1.336.21.21,0,0,1-.008.07l-3.308,22.5-.024.16-.006.041h0a8.608,8.608,0,0,0-.076,1.143,8.189,8.189,0,0,0,4.771,7.532,7.863,7.863,0,0,1-1.9-1.473Z" transform="translate(-146.4 -152.908)" opacity="0.8" fill="url(#linear-gradient-5)"/>
      </g>
    </g>
  </g>
</svg>
