<svg xmlns="http://www.w3.org/2000/svg" xmlns:xlink="http://www.w3.org/1999/xlink" width="152" height="63.104" viewBox="0 0 152 63.104"><defs><linearGradient id="a" y1="0.5" x2="1" y2="0.5" gradientUnits="objectBoundingBox"><stop offset="0" stop-color="#5f19bb"/><stop offset="1" stop-color="#5719a5"/></linearGradient><clipPath id="b"><path d="M337.371,158.356a8.3,8.3,0,0,0-.2,1.512l-.014.1h.01q-.005.2,0,.4a8.31,8.31,0,0,0,8.473,8.144c3.774-.075,6.067-1.68,7.011-5.147l-.215-.3-.466-.538c.1-.448,1.607-1.1,1.631-1.57l3.294-23.316q.012-.081.022-.163l.006-.042h0a8.311,8.311,0,0,0-16.452-2.346h0v.006q-.038.233-.063.471Z" transform="translate(-337.156 -128.134)" fill="none"/></clipPath><filter id="c" x="-128.167" y="-512.587" width="435.976" height="548.394" filterUnits="userSpaceOnUse"><feOffset dx="64.536" dy="-322.682" input="SourceAlpha"/><feGaussianBlur stdDeviation="64.536" result="d"/><feFlood flood-opacity="0.749"/><feComposite operator="in" in2="d"/><feComposite in="SourceGraphic"/></filter><clipPath id="e"><path d="M164,162.131a8.233,8.233,0,0,0,.229-1.493l.016-.1-.01,0c.006-.132.01-.265.01-.4a8.228,8.228,0,0,0-16.122-2.322l-.04-.007-.059.377a8.232,8.232,0,0,0-.212,1.362l-3.539,22.7c-.009.054-.017.107-.025.161l-.006.041h0a8.228,8.228,0,0,0,16.238,2.644h0v-.006q.042-.23.071-.465Z" transform="translate(-144.164 -151.906)" fill="none"/></clipPath><linearGradient id="f" x1="0.02" y1="0.057" x2="0.995" y2="0.87" xlink:href="#a"/><filter id="g" x="-257.14" y="14.924" width="434.249" height="545.034" filterUnits="userSpaceOnUse"><feOffset dx="-64.536" dy="322.682" input="SourceAlpha"/><feGaussianBlur stdDeviation="64.536" result="h"/><feFlood flood-opacity="0.302"/><feComposite operator="in" in2="h"/><feComposite in="SourceGraphic"/></filter><linearGradient id="j" x1="0.034" y1="0.191" x2="0.968" y2="0.986" gradientUnits="objectBoundingBox"><stop offset="0" stop-color="#8126c6"/><stop offset="1" stop-color="#5315a4"/></linearGradient><linearGradient id="k" y1="0.5" x2="1" y2="0.5" gradientUnits="objectBoundingBox"><stop offset="0" stop-color="#fff" stop-opacity="0"/><stop offset="0.174" stop-color="#fff"/><stop offset="0.409" stop-color="#fff"/><stop offset="0.999" stop-color="#fff" stop-opacity="0"/></linearGradient></defs><g transform="translate(-144.164 -128.134)"><path d="M484.379,146.2a15.3,15.3,0,0,1,15.274,15.274v12.068a2.974,2.974,0,0,1-.954,2.254,3.083,3.083,0,0,1-2.254.955h-.079a3.083,3.083,0,0,1-2.254-.955,2.971,2.971,0,0,1-.953-2.254q-3.023,3.208-8.78,3.208a15.275,15.275,0,0,1,0-30.55Zm0,6.5a8.782,8.782,0,1,0,6.207,2.572A8.485,8.485,0,0,0,484.379,152.694Zm28.255,0a2.665,2.665,0,0,0-1.962.8,2.724,2.724,0,0,0-.8,1.962,2.552,2.552,0,0,0,1.538,2.386,36.19,36.19,0,0,0,4.428,1.326,11.287,11.287,0,0,1,4.694,2.358,7.85,7.85,0,0,1,2.2,5.966,9.235,9.235,0,0,1-9.254,9.255h-6.92a3.083,3.083,0,0,1-2.254-.954,2.97,2.97,0,0,1-.954-2.254v-.053a3.26,3.26,0,0,1,3.208-3.235h7.186a2.717,2.717,0,0,0,2.758-2.758,2.358,2.358,0,0,0-1.511-2.2q-.4-.186-4.455-1.326a11.1,11.1,0,0,1-4.694-2.44,8.1,8.1,0,0,1-2.2-6.073,9.278,9.278,0,0,1,9.253-9.256h4.879a3.259,3.259,0,0,1,3.235,3.235v.053a2.973,2.973,0,0,1-.954,2.254,3.114,3.114,0,0,1-2.28.955Zm29.079.053a8.783,8.783,0,1,0,6.2,2.572,8.484,8.484,0,0,0-6.2-2.572Zm-11.986-17.422a3.214,3.214,0,0,1,3.208,3.208v10.315q3-2.652,8.777-2.652a15.261,15.261,0,1,1-15.276,15.352V138.536a3.213,3.213,0,0,1,3.208-3.208ZM565.221,146.2a2.97,2.97,0,0,1,2.254.954,3.112,3.112,0,0,1,.955,2.28v24.107a3.261,3.261,0,0,1-3.208,3.208h-.054a3.113,3.113,0,0,1-2.281-.955,2.97,2.97,0,0,1-.954-2.254v-24.1a3.259,3.259,0,0,1,3.235-3.235Zm-.024-3.446a3.7,3.7,0,1,1,2.6-6.313,3.62,3.62,0,0,1,0,5.224,3.548,3.548,0,0,1-2.6,1.087Z" transform="translate(-273.015 -6.042)" fill="#5c14b4"/><g transform="translate(147.641 178.947)"><path d="M170.875,454.836h-2.983v1.636h2.638v1.52h-2.638v1.774h2.983v1.578h-4.953v-8.086h4.953Z" transform="translate(-165.922 -452.118)" fill="#5c14b4"/><path d="M204.926,450.519h1.97v8.524h-1.97Z" transform="translate(-198.693 -449.816)" fill="#5c14b4"/><path d="M245.428,463.062c1.578,0,2.834,1.267,2.834,3.294s-1.256,3.317-2.834,3.317a2.312,2.312,0,0,1-1.981-.991v3.963h-1.97v-9.492h1.97v.91A2.266,2.266,0,0,1,245.428,463.062Zm-.588,1.716a1.6,1.6,0,1,0,1.417,1.578A1.441,1.441,0,0,0,244.84,464.778Z" transform="translate(-229.404 -460.355)" fill="#5c14b4"/><path d="M291.3,469.674a3.306,3.306,0,1,1,3.363-3.306A3.189,3.189,0,0,1,291.3,469.674Zm0-1.7a1.407,1.407,0,0,0,1.359-1.6c0-1.094-.645-1.6-1.336-1.6-.714,0-1.336.507-1.336,1.6S290.582,467.969,291.3,467.969Z" transform="translate(-268.475 -460.355)" fill="#5c14b4"/><path d="M336.738,452.523a2.359,2.359,0,0,1,1.981.979v-2.983h1.97v8.524h-1.97v-.922a2.223,2.223,0,0,1-1.981,1.014c-1.578,0-2.834-1.29-2.834-3.317S335.16,452.523,336.738,452.523Zm.576,1.716a1.431,1.431,0,0,0-1.405,1.578,1.452,1.452,0,0,0,1.405,1.6,1.6,1.6,0,0,0,0-3.179Z" transform="translate(-307.061 -449.816)" fill="#5c14b4"/><path d="M386.105,469.674a3.306,3.306,0,0,1,0-6.612,3.029,3.029,0,0,1,3.2,3.2,4.985,4.985,0,0,1-.035.576h-4.458a1.192,1.192,0,0,0,1.221,1.233,1.047,1.047,0,0,0,1.025-.622h2.1A3,3,0,0,1,386.105,469.674Zm-1.279-3.928h2.465a1.111,1.111,0,0,0-1.21-1.106A1.218,1.218,0,0,0,384.827,465.746Z" transform="translate(-348.191 -460.355)" fill="#5c14b4"/><path d="M431.689,469.7h-1.97v-6.428h1.97v1.071a2.4,2.4,0,0,1,2.016-1.14v2.085h-.541c-.933,0-1.474.322-1.474,1.428Z" transform="translate(-387.565 -460.476)" fill="#5c14b4"/><path d="M476.242,452.523a2.359,2.359,0,0,1,1.981.979v-2.983h1.97v8.524h-1.97v-.922a2.223,2.223,0,0,1-1.981,1.014c-1.578,0-2.834-1.29-2.834-3.317S474.664,452.523,476.242,452.523Zm.576,1.716a1.431,1.431,0,0,0-1.405,1.578,1.452,1.452,0,0,0,1.405,1.6,1.6,1.6,0,0,0,0-3.179Z" transform="translate(-424.273 -449.816)" fill="#5c14b4"/><path d="M525.609,469.674a3.306,3.306,0,0,1,0-6.612,3.029,3.029,0,0,1,3.2,3.2,4.944,4.944,0,0,1-.035.576h-4.458a1.192,1.192,0,0,0,1.221,1.233,1.047,1.047,0,0,0,1.025-.622h2.1A3,3,0,0,1,525.609,469.674Zm-1.279-3.928H526.8a1.111,1.111,0,0,0-1.21-1.106A1.218,1.218,0,0,0,524.331,465.746Z" transform="translate(-465.403 -460.355)" fill="#5c14b4"/><path d="M584.507,450.519h1.97v8.524h-1.97Z" transform="translate(-517.618 -449.816)" fill="#5c14b4"/><path d="M606.641,469.674A3.306,3.306,0,1,1,610,466.368,3.189,3.189,0,0,1,606.641,469.674Zm0-1.7a1.407,1.407,0,0,0,1.359-1.6c0-1.094-.645-1.6-1.336-1.6-.714,0-1.336.507-1.336,1.6S605.927,467.969,606.641,467.969Z" transform="translate(-533.428 -460.355)" fill="#5c14b4"/><path d="M667.469,463.206a2.341,2.341,0,0,1,1.878.806v-.737h1.97v9.491h-1.97V468.9a2.388,2.388,0,0,1-1.9.887,3.311,3.311,0,0,1,.023-6.577Zm.472,1.7a1.6,1.6,0,1,0,1.405,1.578A1.436,1.436,0,0,0,667.942,464.911Z" transform="translate(-584.855 -460.476)" fill="#5c14b4"/><path d="M721.98,470.066h-1.97v-.876a2.342,2.342,0,0,1-1.947.945,2.446,2.446,0,0,1-2.488-2.741v-3.755h1.958v3.49a1.244,1.244,0,1,0,2.477,0v-3.49h1.97Z" transform="translate(-627.743 -460.839)" fill="#5c14b4"/><path d="M765.325,469.674a3.306,3.306,0,0,1,0-6.612,3.029,3.029,0,0,1,3.2,3.2,5,5,0,0,1-.034.576h-4.458a1.192,1.192,0,0,0,1.221,1.233,1.047,1.047,0,0,0,1.025-.622h2.1A3,3,0,0,1,765.325,469.674Zm-1.279-3.928h2.465a1.111,1.111,0,0,0-1.209-1.106A1.218,1.218,0,0,0,764.047,465.746Z" transform="translate(-666.813 -460.355)" fill="#5c14b4"/><path d="M824.709,463.206a2.341,2.341,0,0,1,1.878.806v-.737h1.97v9.491h-1.97V468.9a2.388,2.388,0,0,1-1.9.887,3.311,3.311,0,0,1,.023-6.577Zm.472,1.7a1.6,1.6,0,1,0,1.405,1.578A1.436,1.436,0,0,0,825.182,464.911Z" transform="translate(-716.969 -460.476)" fill="#5c14b4"/><path d="M879.221,470.066h-1.97v-.876a2.341,2.341,0,0,1-1.946.945,2.446,2.446,0,0,1-2.488-2.741v-3.755h1.958v3.49a1.243,1.243,0,1,0,2.476,0v-3.49h1.97Z" transform="translate(-759.857 -460.839)" fill="#5c14b4"/><path d="M920.617,447.193a1.175,1.175,0,1,1,1.175,1.06A1.09,1.09,0,0,1,920.617,447.193Zm.184,1.728h1.97v6.428H920.8Z" transform="translate(-800.019 -446.122)" fill="#5c14b4"/><path d="M943.837,469.674a3.306,3.306,0,0,1,0-6.612,3.029,3.029,0,0,1,3.2,3.2,5.122,5.122,0,0,1-.034.576h-4.458a1.192,1.192,0,0,0,1.221,1.233,1.048,1.048,0,0,0,1.025-.622h2.1A3,3,0,0,1,943.837,469.674Zm-1.279-3.928h2.466a1.111,1.111,0,0,0-1.21-1.106A1.219,1.219,0,0,0,942.558,465.746Z" transform="translate(-816.799 -460.355)" fill="#5c14b4"/><path d="M989.419,469.7h-1.97v-6.428h1.97v1.071a2.4,2.4,0,0,1,2.016-1.14v2.085h-.541c-.933,0-1.474.322-1.474,1.428Z" transform="translate(-856.171 -460.476)" fill="#5c14b4"/><path d="M1019.105,469.674a3.306,3.306,0,0,1,0-6.612,3.029,3.029,0,0,1,3.2,3.2,5.136,5.136,0,0,1-.034.576h-4.458a1.192,1.192,0,0,0,1.221,1.233,1.048,1.048,0,0,0,1.025-.622h2.1A3,3,0,0,1,1019.105,469.674Zm-1.279-3.928h2.465a1.111,1.111,0,0,0-1.21-1.106A1.219,1.219,0,0,0,1017.826,465.746Z" transform="translate(-880.04 -460.355)" fill="#5c14b4"/><path d="M1063.516,469.674c-1.717,0-2.868-.956-2.961-2.2h1.947a.9.9,0,0,0,.99.749c.507,0,.772-.23.772-.518,0-1.037-3.5-.288-3.5-2.649,0-1.094.933-1.993,2.615-1.993a2.427,2.427,0,0,1,2.707,2.188h-1.82a.847.847,0,0,0-.945-.726c-.461,0-.714.184-.714.5,0,1.025,3.479.3,3.513,2.7C1066.118,468.833,1065.128,469.674,1063.516,469.674Z" transform="translate(-917.595 -460.355)" fill="#5c14b4"/></g><g transform="translate(144.164 128.134)"><path d="M337.474,158.356a8.293,8.293,0,0,0-.2,1.512l-.014.1h.01c0,.134,0,.268,0,.4a8.31,8.31,0,0,0,8.473,8.144c3.775-.075,6.067-1.68,7.011-5.147l-.215-.3-.466-.538c.1-.448,1.607-1.1,1.631-1.57l3.294-23.316q.012-.081.022-.163l.006-.042h0a8.4,8.4,0,0,0,.058-1.163,8.311,8.311,0,0,0-16.51-1.183h0v.006q-.038.233-.063.471Z" transform="translate(-306.403 -128.134)" fill="url(#a)"/><path d="M337.474,158.356a8.293,8.293,0,0,0-.2,1.512l-.014.1h.01c0,.134,0,.268,0,.4a8.31,8.31,0,0,0,8.473,8.144c3.775-.075,6.067-1.68,7.011-5.147l-.215-.3-.466-.538c.1-.448,1.607-1.1,1.631-1.57l3.294-23.316q.012-.081.022-.163l.006-.042h0a8.4,8.4,0,0,0,.058-1.163,8.311,8.311,0,0,0-16.51-1.183h0v.006q-.038.233-.063.471Z" transform="translate(-306.403 -128.134)" fill="#39e7dd"/><path d="M363.432,234.027c-4.323,4.048-13.415,4.919-15.8-.335l-.269,2.168c5.008,5.277,8.664,4.856,8.664,4.856,7.024-.081,8.426-7.854,8.426-7.854A6.849,6.849,0,0,1,363.432,234.027Z" transform="translate(-314.893 -216.126)" fill="#491392"/><path d="M367.006,137.485l.006-.042h0a8.41,8.41,0,0,0,.058-1.163,8.311,8.311,0,0,0-16.51-1.183h0v.006q-.038.233-.063.471L349.148,145.7c3.005,5.922,13.082,4.287,16.81-.788l1.026-7.264C366.992,137.594,367,137.539,367.006,137.485Z" transform="translate(-316.392 -128.134)" fill="#a582d1"/><path d="M371.515,136.28A8.311,8.311,0,0,0,355,135.1h0v.006q-.038.233-.063.471l-.5,3.772,7.46,8.983,8.945-6.539.585-4.142q.012-.081.022-.163l.006-.042h0A8.4,8.4,0,0,0,371.515,136.28Z" transform="translate(-320.838 -128.134)" fill="#5e19ba"/><path d="M381.915,134.814l-4.917,3.6-4.4-4.966a8.336,8.336,0,0,0-2.622,2.024l5.413,6.114a1.836,1.836,0,0,0,2.413.233l6-4.392A8.328,8.328,0,0,0,381.915,134.814Z" transform="translate(-333.895 -132.596)" fill="#8149c9"/><g transform="translate(30.84 0)" opacity="0.4"><g clip-path="url(#b)"><g transform="matrix(1, 0, 0, 1, -30.84, 0)" filter="url(#c)"><path d="M189.939,172.153c-4-.107-8.539-4.811-8.539-4.811q-.52-.527-1.045-1.049-1.337-1.333-2.689-2.651-1.82-1.773-3.671-3.515c-1.312-1.232-2.638-2.451-3.989-3.64-2.577-2.268-5.376-5.226-9.115-5.175a8.436,8.436,0,0,0-8.2,6.393l-2.858,18.945s.032-.083.1-.228l1.131-7.5a8.436,8.436,0,0,1,8.2-6.393c3.739-.052,6.538,2.907,9.115,5.175,1.351,1.189,2.677,2.408,3.989,3.64q1.852,1.739,3.671,3.515,1.352,1.318,2.689,2.651.524.523,1.045,1.048s4.543,4.7,8.539,4.811c6.877.185,8.654-8.44,8.654-8.44l-1.013,7.007q-.107.738-.214,1.476a20.249,20.249,0,0,0,.406-2.285c.416-3.475.935-6.943,1.436-10.411l1.013-7.007S196.816,172.339,189.939,172.153Z" transform="translate(-148.93 -147.61)" fill="#1f0a3c"/></g></g></g><path d="M164,162.131a8.233,8.233,0,0,0,.229-1.493l.016-.1-.01,0c.006-.132.01-.265.01-.4a8.228,8.228,0,0,0-16.122-2.322l-.04-.007-.059.377a8.232,8.232,0,0,0-.212,1.362l-3.539,22.7c-.009.054-.017.107-.025.161l-.006.041h0a8.228,8.228,0,0,0,16.238,2.644h0v-.006q.042-.23.071-.465Z" transform="translate(-144.164 -148.107)" fill="#39e7dd"/><g transform="translate(0 23.756)"><path d="M152.829,276.8c-4.613-.118-6.986,3.617-7.722,5.044l-.832,5.336c-.009.054-.017.107-.025.161l-.006.041h0a8.228,8.228,0,0,0,16.238,2.644h0v-.006q.042-.23.071-.465l1.23-8.027C160.954,280.506,157.692,276.923,152.829,276.8Z" transform="translate(-144.164 -276.795)" fill="#26b7b6"/><path d="M160.483,302.17h0v-.006q.042-.23.071-.465l1.139-7.429c-3.844-5.6-14.383-2.558-16.974,2.2l-.444,2.85c-.009.053-.017.107-.025.161l-.006.041h0a8.228,8.228,0,0,0,16.238,2.644Z" transform="translate(-144.164 -288.941)" fill="#38f2f7"/><path d="M160.483,303.67h0v-.006q.042-.23.071-.465l.16-1.047-7.042-9.116-9.3,7.188-.093.6c-.009.054-.017.107-.025.161l-.006.041h0a8.228,8.228,0,0,0,16.238,2.644Z" transform="translate(-144.164 -290.441)" fill="#01ebee"/><path d="M155.025,337.333l-6.564,5.071a8.245,8.245,0,0,0,1.866,2.663l5.4-4.171,4.205,5.443a8.261,8.261,0,0,0,2.492-2.087l-5.12-6.627A1.624,1.624,0,0,0,155.025,337.333Z" transform="translate(-147.774 -327.374)" fill="#7ef7fe"/></g><g transform="translate(0 3.799)" opacity="0.5"><g clip-path="url(#e)"><g transform="matrix(1, 0, 0, 1, 0, -3.8)" filter="url(#g)"><path d="M188.834,242.367c-4-.108-8.539-4.811-8.539-4.811q-.52-.527-1.045-1.048-1.337-1.333-2.689-2.651-1.82-1.773-3.671-3.515c-1.312-1.232-2.638-2.451-3.989-3.64-2.577-2.268-5.376-5.227-9.115-5.175a8.436,8.436,0,0,0-8.2,6.393l-1.131,7.5c.479-1.033,2.742-5.235,7.812-5.121,5.11.115,8.9,4.793,8.9,4.793l12.628,11.5a15.449,15.449,0,0,0,4.963,3.118,10.183,10.183,0,0,0,3.656.555c4.593-.092,6.891-3.874,7.843-7.857q.107-.738.214-1.476l1.013-7.007S195.711,242.552,188.834,242.367Z" transform="translate(-149.45 -206.6)" fill="url(#f)"/></g></g></g><path d="M188.834,242.367c-4-.108-8.539-4.811-8.539-4.811q-.52-.527-1.045-1.048-1.337-1.333-2.689-2.651-1.82-1.773-3.671-3.515c-1.312-1.232-2.638-2.451-3.989-3.64-2.577-2.268-5.376-5.227-9.115-5.175a8.436,8.436,0,0,0-8.2,6.393l-1.131,7.5c.479-1.033,2.742-5.235,7.812-5.121,5.11.115,8.9,4.793,8.9,4.793l12.628,11.5a15.449,15.449,0,0,0,4.963,3.118,10.183,10.183,0,0,0,3.656.555c4.593-.092,6.891-3.874,7.843-7.857.071-.492.222-.989.293-1.481.338-2.336.6-4.666.933-7C197.488,233.928,195.711,242.552,188.834,242.367Z" transform="translate(-149.451 -206.603)" fill="url(#f)"/><path d="M189.939,172.153c-4-.107-8.539-4.811-8.539-4.811q-.52-.527-1.045-1.049-1.337-1.333-2.689-2.651-1.82-1.773-3.671-3.515c-1.312-1.232-2.638-2.451-3.989-3.64-2.577-2.268-5.376-5.226-9.115-5.175a8.436,8.436,0,0,0-8.2,6.393l-2.858,18.945s.032-.083.1-.228l1.131-7.5a8.436,8.436,0,0,1,8.2-6.393c3.739-.052,6.538,2.907,9.115,5.175,1.351,1.189,2.677,2.408,3.989,3.64q1.852,1.739,3.671,3.515,1.352,1.318,2.689,2.651.524.523,1.045,1.048s4.543,4.7,8.539,4.811c6.877.185,8.654-8.44,8.654-8.44l-1.013,7.007q-.107.738-.214,1.476a20.249,20.249,0,0,0,.406-2.285c.416-3.475.935-6.943,1.436-10.411l1.013-7.007S196.816,172.339,189.939,172.153Z" transform="translate(-148.929 -147.609)" fill="url(#j)"/><path d="M375.243,254.5s-.334-.195-.229-.019,4.028,2.624,7.423,1.041a9.6,9.6,0,0,0,4.521-4.784s.072-.44-.175,0-1.979,3.86-5.525,4.842C378.673,256.293,376.492,255.13,375.243,254.5Z" transform="translate(-338.108 -230.979)" opacity="0.8" fill="url(#k)"/><path d="M348.125,148.337s-.055.406.228.435.267-.435.267-.435l1.174-9.227s.344-3.09.461-3.582a8.226,8.226,0,0,1,2.884-4.8,8.019,8.019,0,0,1,8.205-1,7.206,7.206,0,0,0-5.158-.669,7.761,7.761,0,0,0-5.292,3.85,8.891,8.891,0,0,0-1.07,2.884C349.527,137.029,348.125,148.337,348.125,148.337Z" transform="translate(-315.529 -128.741)" opacity="0.8" fill="url(#k)"/><g transform="translate(0.358 3.961)"><path d="M149.265,190.532a8.316,8.316,0,0,1-2.4-5.887,8.584,8.584,0,0,1,.076-1.14h0l.006-.041c.007-.053.015-.107.024-.16l3.312-22.417c0-.023,0-.047.008-.07a12.1,12.1,0,0,1,.23-1.359l.094-.367a8.184,8.184,0,0,1,7.63-6.012,7.436,7.436,0,0,1,2.2.171,7.394,7.394,0,0,0-2.661-.329,8.184,8.184,0,0,0-7.63,6.012l-.094.367a13.193,13.193,0,0,0-.246,1.333c0,.023,0,.047-.008.07l-3.3,22.443c-.008.053-.016.106-.024.16l-.006.041h0a8.585,8.585,0,0,0-.076,1.14,8.169,8.169,0,0,0,4.76,7.514A7.845,7.845,0,0,1,149.265,190.532Z" transform="translate(-146.403 -152.922)" opacity="0.8" fill="url(#k)"/></g></g></g></svg>