<svg xmlns="http://www.w3.org/2000/svg" width="143.574" height="59.256" viewBox="0 0 143.574 59.256"><g transform="translate(-201 -315.999)"><g transform="translate(201 315.999)"><path d="M483.731,692.255a14.651,14.651,0,0,1,14.626,14.626v11.556a2.847,2.847,0,0,1-.914,2.158,2.953,2.953,0,0,1-2.158.914h-.076a2.952,2.952,0,0,1-2.158-.914,2.845,2.845,0,0,1-.912-2.158q-2.894,3.072-8.407,3.072a14.627,14.627,0,0,1,0-29.254Zm0,6.221a8.41,8.41,0,1,0,5.944,2.463A8.125,8.125,0,0,0,483.731,698.476Zm27.056,0a2.552,2.552,0,0,0-1.879.762,2.608,2.608,0,0,0-.762,1.879,2.444,2.444,0,0,0,1.473,2.285,34.678,34.678,0,0,0,4.24,1.27,10.806,10.806,0,0,1,4.494,2.258,7.517,7.517,0,0,1,2.106,5.713A8.844,8.844,0,0,1,511.6,721.5h-6.626a2.952,2.952,0,0,1-2.158-.914,2.844,2.844,0,0,1-.914-2.158v-.051a3.121,3.121,0,0,1,3.072-3.1h6.881a2.6,2.6,0,0,0,2.641-2.641,2.257,2.257,0,0,0-1.447-2.106q-.381-.178-4.266-1.27a10.627,10.627,0,0,1-4.494-2.336,7.758,7.758,0,0,1-2.106-5.815,8.884,8.884,0,0,1,8.86-8.863h4.672a3.121,3.121,0,0,1,3.1,3.1v.051a2.846,2.846,0,0,1-.914,2.158,2.981,2.981,0,0,1-2.184.914Zm27.845.051a8.41,8.41,0,1,0,5.941,2.463,8.125,8.125,0,0,0-5.941-2.463Zm-11.477-16.682a3.077,3.077,0,0,1,3.072,3.072v9.878q2.869-2.539,8.4-2.539A14.614,14.614,0,1,1,524,706.955V684.919a3.077,3.077,0,0,1,3.072-3.072Zm33.988,10.411a2.845,2.845,0,0,1,2.158.914,2.979,2.979,0,0,1,.914,2.184v23.084a3.122,3.122,0,0,1-3.072,3.072h-.052a2.981,2.981,0,0,1-2.184-.914,2.844,2.844,0,0,1-.914-2.158V695.355a3.121,3.121,0,0,1,3.1-3.1Zm-.023-3.3a3.543,3.543,0,1,1,2.489-6.045,3.467,3.467,0,0,1,0,5,3.4,3.4,0,0,1-2.49,1.041Z" transform="translate(-421.102 -681.844)" fill="#fff"/><g transform="translate(0)"><path d="M156.367,831.706a3.226,3.226,0,0,1,.53-.933,7.339,7.339,0,0,1,5.8-3.562,7.757,7.757,0,0,1,3.825.677,13.449,13.449,0,0,1,4.821,3.557c-.381,2.563-.732,4.469-1.153,7.025a7.468,7.468,0,0,1-12.1,4.3,7.4,7.4,0,0,1-2.563-7.058" transform="translate(-155.401 -804.947)" fill="#fff"/><path d="M361.886,681.853a8.209,8.209,0,0,0-8.557,6.962l-1.555,10.113c2.013,1.935,5.673,6.213,9.966,4.552,4.636-1.794,5.557-7.086,5.557-7.086a.255.255,0,0,1-.006.045l1-6.552a6.817,6.817,0,0,0,.08-.7,6.92,6.92,0,0,0-6.484-7.329" transform="translate(-321.725 -681.841)" fill="#fff"/><path d="M163.183,725.393c-.116.689-.213,1.27-.278,1.692.088-.16.178-.317.274-.468a7.545,7.545,0,0,1,5.962-3.662,7.973,7.973,0,0,1,3.932.695,13.808,13.808,0,0,1,4.906,3.6v0c3.838,3.367,11.05,11.5,15.992,13.433,5.721,2.239,8.705-.995,10.115-5.8a78.039,78.039,0,0,0,1.612-9.605l.7-5.51a9.042,9.042,0,0,1-4.853,4.811c-4.369,1.691-8.1-2.663-10.147-4.634v-.019c-3.548-3.041-7.2-7.125-10.033-9.915-4.974-4.891-7.876-5.389-11.773-3.98s-4.394,7.047-4.394,7.047" transform="translate(-161.757 -701.74)" fill="#fff"/></g><g transform="translate(1.352 47.487)"><path d="M168.982,1000.828h-2.857v1.566h2.526v1.456h-2.526v1.7h2.857v1.511h-4.743v-7.743h4.743Z" transform="translate(-164.239 -998.225)" fill="#01eff7"/><path d="M203.242,996.578h1.886v8.162h-1.886Z" transform="translate(-197.274 -995.905)" fill="#01eff7"/><path d="M243.576,1009.12c1.511,0,2.713,1.213,2.713,3.155s-1.2,3.177-2.713,3.177a2.214,2.214,0,0,1-1.9-.948v3.794h-1.886v-9.089h1.886v.871A2.17,2.17,0,0,1,243.576,1009.12Zm-.562,1.644a1.532,1.532,0,1,0,1.357,1.511A1.38,1.38,0,0,0,243.014,1010.764Z" transform="translate(-228.232 -1006.528)" fill="#01eff7"/><path d="M289.472,1015.451a3.166,3.166,0,1,1,3.221-3.166A3.054,3.054,0,0,1,289.472,1015.451Zm0-1.632a1.347,1.347,0,0,0,1.3-1.533c0-1.048-.618-1.533-1.28-1.533-.684,0-1.279.485-1.279,1.533S288.788,1013.819,289.472,1013.819Z" transform="translate(-267.618 -1006.528)" fill="#01eff7"/><path d="M334.934,998.5a2.259,2.259,0,0,1,1.9.938v-2.857h1.886v8.162h-1.886v-.882a2.129,2.129,0,0,1-1.9.971c-1.511,0-2.713-1.235-2.713-3.177S333.423,998.5,334.934,998.5Zm.551,1.644a1.37,1.37,0,0,0-1.346,1.511,1.39,1.39,0,0,0,1.346,1.533,1.534,1.534,0,0,0,0-3.044Z" transform="translate(-306.517 -995.905)" fill="#01eff7"/><path d="M384.284,1015.451a3.166,3.166,0,0,1,0-6.331,2.9,2.9,0,0,1,3.066,3.066,4.777,4.777,0,0,1-.033.552h-4.269a1.141,1.141,0,0,0,1.169,1.18,1,1,0,0,0,.982-.6h2.007A2.876,2.876,0,0,1,384.284,1015.451Zm-1.224-3.761h2.36a1.064,1.064,0,0,0-1.158-1.059A1.167,1.167,0,0,0,383.059,1011.69Z" transform="translate(-347.978 -1006.528)" fill="#01eff7"/><path d="M429.922,1015.485h-1.886v-6.155h1.886v1.026a2.294,2.294,0,0,1,1.93-1.092v2h-.518c-.893,0-1.412.309-1.412,1.368Z" transform="translate(-387.671 -1006.65)" fill="#01eff7"/><path d="M474.438,998.5a2.259,2.259,0,0,1,1.9.938v-2.857h1.886v8.162h-1.886v-.882a2.129,2.129,0,0,1-1.9.971c-1.511,0-2.713-1.235-2.713-3.177S472.927,998.5,474.438,998.5Zm.551,1.644a1.37,1.37,0,0,0-1.346,1.511,1.39,1.39,0,0,0,1.346,1.533,1.534,1.534,0,0,0,0-3.044Z" transform="translate(-424.674 -995.905)" fill="#fff"/><path d="M523.788,1015.451a3.166,3.166,0,0,1,0-6.331,2.9,2.9,0,0,1,3.066,3.066,4.757,4.757,0,0,1-.033.552h-4.269a1.141,1.141,0,0,0,1.169,1.18,1,1,0,0,0,.982-.6h2.007A2.876,2.876,0,0,1,523.788,1015.451Zm-1.224-3.761h2.36a1.064,1.064,0,0,0-1.158-1.059A1.166,1.166,0,0,0,522.563,1011.69Z" transform="translate(-466.136 -1006.528)" fill="#fff"/><path d="M582.823,996.578h1.886v8.162h-1.886Z" transform="translate(-518.772 -995.905)" fill="#fff"/><path d="M604.817,1015.451a3.166,3.166,0,1,1,3.221-3.166A3.054,3.054,0,0,1,604.817,1015.451Zm0-1.632a1.347,1.347,0,0,0,1.3-1.533c0-1.048-.618-1.533-1.28-1.533-.684,0-1.279.485-1.279,1.533S604.133,1013.819,604.817,1013.819Z" transform="translate(-534.71 -1006.528)" fill="#fff"/><path d="M665.662,1009.264a2.242,2.242,0,0,1,1.8.772v-.706h1.886v9.089h-1.886v-3.706a2.286,2.286,0,0,1-1.82.849,3.171,3.171,0,0,1,.022-6.3Zm.452,1.633a1.527,1.527,0,1,0,1.346,1.511A1.375,1.375,0,0,0,666.114,1010.9Z" transform="translate(-586.553 -1006.65)" fill="#fff"/><path d="M720.025,1015.852h-1.886v-.838a2.243,2.243,0,0,1-1.864.9,2.342,2.342,0,0,1-2.383-2.625v-3.6h1.875v3.342a1.191,1.191,0,1,0,2.371,0V1009.7h1.886Z" transform="translate(-629.786 -1007.017)" fill="#fff"/><path d="M763.5,1015.451a3.166,3.166,0,0,1,0-6.331,2.9,2.9,0,0,1,3.066,3.066,4.757,4.757,0,0,1-.033.552h-4.269a1.141,1.141,0,0,0,1.169,1.18,1,1,0,0,0,.982-.6h2.007A2.876,2.876,0,0,1,763.5,1015.451Zm-1.224-3.761h2.36a1.064,1.064,0,0,0-1.158-1.059A1.166,1.166,0,0,0,762.28,1011.69Z" transform="translate(-669.172 -1006.528)" fill="#fff"/><path d="M822.9,1009.264a2.242,2.242,0,0,1,1.8.772v-.706h1.886v9.089H824.7v-3.706a2.286,2.286,0,0,1-1.82.849,3.171,3.171,0,0,1,.022-6.3Zm.452,1.633a1.527,1.527,0,1,0,1.346,1.511A1.375,1.375,0,0,0,823.354,1010.9Z" transform="translate(-719.733 -1006.65)" fill="#fff"/><path d="M877.266,1015.852h-1.886v-.838a2.243,2.243,0,0,1-1.864.9,2.342,2.342,0,0,1-2.382-2.625v-3.6h1.875v3.342a1.191,1.191,0,1,0,2.371,0V1009.7h1.886Z" transform="translate(-762.966 -1007.017)" fill="#fff"/><path d="M918.933,993.207a1.125,1.125,0,1,1,1.125,1.015A1.043,1.043,0,0,1,918.933,993.207Zm.176,1.655H921v6.155h-1.886Z" transform="translate(-803.452 -992.181)" fill="#fff"/><path d="M942.015,1015.451a3.166,3.166,0,0,1,0-6.331,2.9,2.9,0,0,1,3.066,3.066,4.879,4.879,0,0,1-.033.552H940.78a1.141,1.141,0,0,0,1.169,1.18,1,1,0,0,0,.982-.6h2.007A2.876,2.876,0,0,1,942.015,1015.451Zm-1.225-3.761h2.361a1.064,1.064,0,0,0-1.159-1.059A1.167,1.167,0,0,0,940.791,1011.69Z" transform="translate(-820.368 -1006.528)" fill="#fff"/><path d="M987.652,1015.485h-1.886v-6.155h1.886v1.026a2.294,2.294,0,0,1,1.93-1.092v2h-.518c-.894,0-1.412.309-1.412,1.368Z" transform="translate(-860.058 -1006.65)" fill="#fff"/><path d="M1017.283,1015.451a3.166,3.166,0,0,1,0-6.331,2.9,2.9,0,0,1,3.066,3.066,4.865,4.865,0,0,1-.033.552h-4.269a1.141,1.141,0,0,0,1.169,1.18,1,1,0,0,0,.982-.6h2.007A2.876,2.876,0,0,1,1017.283,1015.451Zm-1.225-3.761h2.361a1.064,1.064,0,0,0-1.158-1.059A1.167,1.167,0,0,0,1016.059,1011.69Z" transform="translate(-884.118 -1006.528)" fill="#fff"/><path d="M1061.706,1015.451c-1.644,0-2.747-.915-2.835-2.107h1.864a.863.863,0,0,0,.948.717c.485,0,.739-.221.739-.5,0-.993-3.353-.276-3.353-2.537,0-1.048.893-1.908,2.5-1.908a2.324,2.324,0,0,1,2.592,2.1h-1.743a.811.811,0,0,0-.9-.695c-.441,0-.684.176-.684.474,0,.982,3.331.287,3.364,2.581C1064.2,1014.646,1063.25,1015.451,1061.706,1015.451Z" transform="translate(-921.977 -1006.528)" fill="#fff"/></g></g></g></svg>