<svg xmlns="http://www.w3.org/2000/svg" width="307" height="307" viewBox="0 0 307 307">
  <g id="Grupo_7246" data-name="Grupo 7246" transform="translate(-0.446 -0.412)">
    <g id="Grupo_7243" data-name="Grupo 7243" transform="translate(14.348 59.186)">
      <g id="validating-ticket" transform="matrix(0.259, 0.966, -0.966, 0.259, 196.288, 0)">
        <path id="Trazado_44923" data-name="Trazado 44923" d="M138.739,181.177V22.035A22.035,22.035,0,0,1,116.7,0H91.4A22.035,22.035,0,0,1,69.37,22.035,22.035,22.035,0,0,1,47.334,0h-25.3A22.035,22.035,0,0,1,0,22.035V181.177a22.035,22.035,0,0,1,22.035,22.035h25.3a22.035,22.035,0,1,1,44.07,0h25.3A22.035,22.035,0,0,1,138.739,181.177Z" transform="translate(0 0)" fill="#efefef"/>
        <path id="Trazado_44924" data-name="Trazado 44924" d="M0,0H106.095V133.795H0Z" transform="translate(16.322 34.714)" fill="#d1d1d1"/>
        <path id="Trazado_44925" data-name="Trazado 44925" d="M14.164,38.7,0,19.35l23.839,2.592L33.514,0l9.674,21.942,23.84-2.592L52.864,38.7,67.029,58.05l-23.84-2.592L33.514,77.4,23.839,55.458,0,58.05Z" transform="translate(35.855 62.911)" fill="#fff"/>
      </g>
      <g id="Page-1" transform="translate(163.934 78.158)">
        <g id="_007---Mineral-Water" data-name="007---Mineral-Water" transform="translate(0 0)">
          <path id="Shape" d="M64.912,35.495l-1.285,3.8L51.91,73.665,41,105.737,46.978,34Z" transform="translate(21.77 6.352)" fill="#e7e7e7"/>
          <path id="Shape-2" data-name="Shape" d="M68.891,62.347,50.956,60.852,39,20.5Z" transform="translate(17.792 -20.5)" fill="#e7e7e7"/>
          <path id="Shape-3" data-name="Shape" d="M70.847,60.852H29L58.891,20.5Z" transform="translate(-2.099 -20.5)" fill="#fff"/>
          <path id="Shape-4" data-name="Shape" d="M70.847,34l-5.978,71.737H46.934l-.717-.568-.09-.06-7.2-29.95-.03-.03L32.168,47.122l-1.016-4.244h-.03L29,34Z" transform="translate(-2.099 6.352)" fill="#d1d1d1"/>
          <path id="Shape-5" data-name="Shape" d="M34.73,57.79l.149.628h.658" transform="translate(9.299 53.672)" fill="#90bae1"/>
          <path id="Shape-6" data-name="Shape" d="M44.861,66.4,26,46.191l12.136-7.8Z" transform="translate(-8.066 15.084)" fill="#e7e7e7"/>
          <path id="Shape-7" data-name="Shape" d="M50.07,47.122l-12.136,7.8L20,34l29.024,8.877h.03Z" transform="translate(-20 6.352)" fill="#d1d1d1"/>
          <path id="Shape-8" data-name="Shape" d="M37.934,54.923,20.149,72.8,20,34Z" transform="translate(-20 6.352)" fill="#fff"/>
          <path id="Shape-9" data-name="Shape" d="M63.929,91.186l-12.823-8.16L20.05,58.875,37.835,41,56.7,61.206l.03.03Z" transform="translate(-19.901 20.276)" fill="#aaa"/>
          <path id="Shape-10" data-name="Shape" d="M81.983,33.58,67.9,49.033,44.65,74.5,56.367,40.126Z" transform="translate(29.03 5.517)" fill="#e7e7e7"/>
          <path id="Shape-11" data-name="Shape" d="M69.109,63.56,52.43,49.033,66.508,33.58Z" transform="translate(44.505 5.517)" fill="#d1d1d1"/>
          <path id="Shape-12" data-name="Shape" d="M91.844,53.277,54.69,96.289H41L51.91,64.217,75.165,38.75Z" transform="translate(21.77 15.8)" fill="#aaa"/>
        </g>
      </g>
    </g>
    <rect id="Rectángulo_1958" data-name="Rectángulo 1958" width="307" height="307" transform="translate(0.446 0.413)" fill="none"/>
  </g>
</svg>
