<svg xmlns="http://www.w3.org/2000/svg" width="236" height="236" viewBox="0 0 236 236">
  <g id="Grupo_7248" data-name="Grupo 7248" transform="translate(-0.065 -0.041)">
    <g id="validating-ticket" transform="matrix(0.259, 0.966, -0.966, 0.259, 199.152, 25.909)">
      <path id="Trazado_44923" data-name="Trazado 44923" d="M138.739,181.177V22.035A22.035,22.035,0,0,1,116.7,0H91.4A22.035,22.035,0,0,1,69.37,22.035,22.035,22.035,0,0,1,47.334,0h-25.3A22.035,22.035,0,0,1,0,22.035V181.177a22.035,22.035,0,0,1,22.035,22.035h25.3a22.035,22.035,0,1,1,44.07,0h25.3A22.035,22.035,0,0,1,138.739,181.177Z" transform="translate(0 0)" fill="#707070"/>
      <path id="Trazado_44924" data-name="Trazado 44924" d="M0,0H106.095V133.795H0Z" transform="translate(16.322 34.714)"/>
      <path id="Trazado_44925" data-name="Trazado 44925" d="M14.164,38.7,0,19.35l23.839,2.592L33.514,0l9.674,21.942,23.84-2.592L52.864,38.7,67.029,58.05l-23.84-2.592L33.514,77.4,23.839,55.458,0,58.05Z" transform="translate(35.855 62.911)" fill="#fff"/>
    </g>
    <rect id="Rectángulo_1957" data-name="Rectángulo 1957" width="236" height="236" transform="translate(0.066 0.042)" fill="none"/>
  </g>
</svg>
