<svg xmlns="http://www.w3.org/2000/svg" width="307" height="307" viewBox="0 0 307 307">
  <g id="Grupo_7244" data-name="Grupo 7244" transform="translate(-0.413 -0.412)">
    <g id="Grupo_7242" data-name="Grupo 7242" transform="translate(23.723 63.914)">
      <g id="validating-ticket" transform="matrix(0.259, 0.966, -0.966, 0.259, 190.879, 0)">
        <path id="Trazado_44923" data-name="Trazado 44923" d="M134.916,176.185V21.428A21.428,21.428,0,0,1,113.488,0h-24.6A21.428,21.428,0,0,1,67.458,21.428,21.428,21.428,0,0,1,46.03,0h-24.6A21.428,21.428,0,0,1,0,21.428V176.185a21.428,21.428,0,0,1,21.428,21.428h24.6a21.428,21.428,0,0,1,42.856,0h24.6A21.428,21.428,0,0,1,134.916,176.185Z" transform="translate(0 0)" fill="#ffc839"/>
        <path id="Trazado_44924" data-name="Trazado 44924" d="M0,0H103.171V130.108H0Z" transform="translate(15.872 33.758)" fill="#ff9100"/>
        <path id="Trazado_44925" data-name="Trazado 44925" d="M13.774,37.634,0,18.817l23.182,2.521L32.591,0,42,21.337l23.183-2.521L51.408,37.634,65.182,56.451,42,53.93,32.591,75.267,23.182,53.93,0,56.451Z" transform="translate(34.867 61.177)" fill="#fcf9f0"/>
      </g>
      <g id="Page-1" transform="translate(157.98 67.017)">
        <g id="_007---Mineral-Water" data-name="007---Mineral-Water" transform="translate(0 0)">
          <path id="Shape" d="M62.405,35.338l-1.151,3.4L50.766,69.506,41,98.217,46.351,34Z" transform="translate(15.189 2.122)" fill="#f29c1f"/>
          <path id="Shape-2" data-name="Shape" d="M65.757,57.96,49.7,56.622,39,20.5Z" transform="translate(11.838 -20.5)" fill="#f3d55b"/>
          <path id="Shape-3" data-name="Shape" d="M66.46,56.622H29L55.757,20.5Z" transform="translate(-4.919 -20.5)" fill="#f9eab0"/>
          <path id="Shape-4" data-name="Shape" d="M66.46,34,61.108,98.217H45.054l-.642-.508-.08-.054-6.448-26.81-.027-.027-6.02-25.071-.91-3.8H30.9L29,34Z" transform="translate(-4.919 2.122)" fill="#f0c419"/>
          <path id="Shape-5" data-name="Shape" d="M34.73,57.79l.134.562h.589" transform="translate(4.683 41.986)" fill="#90bae1"/>
          <path id="Shape-6" data-name="Shape" d="M42.884,63.461,26,45.374,36.863,38.39Z" transform="translate(-9.946 9.478)" fill="#f29c1f"/>
          <path id="Shape-7" data-name="Shape" d="M46.917,45.746,36.054,52.73,20,34l25.981,7.947h.027Z" transform="translate(-20 2.122)" fill="#f3d55b"/>
          <path id="Shape-8" data-name="Shape" d="M36.054,52.73l-15.92,16L20,34Z" transform="translate(-20 2.122)" fill="#f9eab0"/>
          <path id="Shape-9" data-name="Shape" d="M59.329,85.925,47.85,78.62,20.05,57,35.97,41,52.854,59.088l.027.027Z" transform="translate(-19.916 13.852)" fill="#e57e25"/>
          <path id="Shape-10" data-name="Shape" d="M78.069,33.58l-12.6,13.833L44.65,70.21,55.139,39.44Z" transform="translate(21.306 1.418)" fill="#f3d55b"/>
          <path id="Shape-11" data-name="Shape" d="M67.36,60.417l-14.93-13,12.6-13.833Z" transform="translate(34.343 1.418)" fill="#f29c1f"/>
          <path id="Shape-12" data-name="Shape" d="M86.513,51.754l-33.259,38.5H41l9.766-28.71,20.817-22.8Z" transform="translate(15.189 10.081)" fill="#e57e25"/>
        </g>
      </g>
    </g>
    <rect id="Rectángulo_1959" data-name="Rectángulo 1959" width="307" height="307" transform="translate(0.413 0.413)" fill="none"/>
  </g>
</svg>
