<svg xmlns="http://www.w3.org/2000/svg" width="307" height="307" viewBox="0 0 307 307">
  <g id="Grupo_7245" data-name="Grupo 7245" transform="translate(-0.313 -0.412)">
    <g id="Grupo_7241" data-name="Grupo 7241" transform="translate(24.006 61.552)">
      <g id="validating-ticket" transform="matrix(0.259, 0.966, -0.966, 0.259, 190.879, 0)">
        <path id="Trazado_44923" data-name="Trazado 44923" d="M134.916,176.185V21.428A21.428,21.428,0,0,1,113.488,0h-24.6A21.428,21.428,0,0,1,67.458,21.428,21.428,21.428,0,0,1,46.03,0h-24.6A21.428,21.428,0,0,1,0,21.428V176.185a21.428,21.428,0,0,1,21.428,21.428h24.6a21.428,21.428,0,0,1,42.856,0h24.6A21.428,21.428,0,0,1,134.916,176.185Z" transform="translate(0 0)" fill="#f29c1f"/>
        <path id="Trazado_44924" data-name="Trazado 44924" d="M0,0H103.171V130.108H0Z" transform="translate(15.872 33.758)" fill="#4b2400"/>
        <path id="Trazado_44925" data-name="Trazado 44925" d="M13.774,37.634,0,18.817l23.182,2.521L32.591,0,42,21.337l23.183-2.521L51.408,37.634,65.182,56.451,42,53.93,32.591,75.267,23.182,53.93,0,56.451Z" transform="translate(34.867 61.177)" fill="#fcf9f0"/>
      </g>
      <g id="_007---Mineral-Water" data-name="007---Mineral-Water" transform="translate(150.306 75.136)">
        <path id="Shape" d="M64.708,35.482l-1.274,3.764L51.817,73.326,41,105.125,46.927,34Z" transform="translate(21.234 6.008)" fill="#8e5400"/>
        <path id="Shape-2" data-name="Shape" d="M68.635,61.99,50.854,60.508,39,20.5Z" transform="translate(17.307 -20.5)" fill="#f3d55b"/>
        <path id="Shape-3" data-name="Shape" d="M70.49,60.508H29L58.635,20.5Z" transform="translate(-2.328 -20.5)" fill="#793a00"/>
        <path id="Shape-4" data-name="Shape" d="M70.49,34l-5.927,71.125H46.781l-.711-.563-.089-.059L38.839,74.808l-.03-.03L32.141,47.01,31.134,42.8H31.1L29,34Z" transform="translate(-2.328 6.008)" fill="#4b2400"/>
        <path id="Shape-5" data-name="Shape" d="M34.73,57.79l.148.622h.652" transform="translate(8.923 52.72)" fill="#90bae1"/>
        <path id="Shape-6" data-name="Shape" d="M44.7,66.158,26,46.125,38.032,38.39Z" transform="translate(-8.219 14.628)" fill="#f29c1f"/>
        <path id="Shape-7" data-name="Shape" d="M49.813,47.01,37.781,54.745,20,34l28.776,8.8h.03Z" transform="translate(-20 6.008)" fill="#ffaa5c"/>
        <path id="Shape-8" data-name="Shape" d="M37.781,54.745,20.148,72.467,20,34Z" transform="translate(-20 6.008)" fill="#793a00"/>
        <path id="Shape-9" data-name="Shape" d="M63.555,90.758l-12.714-8.09L20.05,58.722,37.683,41l18.7,20.034.03.03Z" transform="translate(-19.902 19.753)" fill="#6c3b07"/>
        <path id="Shape-10" data-name="Shape" d="M81.665,33.58,67.706,48.9,44.65,74.151,56.267,40.07Z" transform="translate(28.401 5.183)" fill="#ff9838"/>
        <path id="Shape-11" data-name="Shape" d="M68.967,63.3,52.43,48.9,66.388,33.58Z" transform="translate(43.678 5.183)" fill="#793a00"/>
        <path id="Shape-12" data-name="Shape" d="M91.41,53.153,54.573,95.8H41L51.817,64,74.873,38.75Z" transform="translate(21.234 15.335)" fill="#4b2300"/>
      </g>
    </g>
    <rect id="Rectángulo_1960" data-name="Rectángulo 1960" width="307" height="307" transform="translate(0.313 0.413)" fill="none"/>
  </g>
</svg>
