<svg xmlns="http://www.w3.org/2000/svg" width="307" height="307" viewBox="0 0 307 307">
  <g id="Grupo_7303" data-name="Grupo 7303" transform="translate(0 -0.412)">
    <g id="Grupo_7240" data-name="Grupo 7240" transform="translate(28.813 54.457)">
      <g id="validating-ticket" transform="matrix(0.259, 0.966, -0.966, 0.259, 196.288, 0)">
        <path id="Trazado_44923" data-name="Trazado 44923" d="M138.739,181.177V22.035A22.035,22.035,0,0,1,116.7,0H91.4A22.035,22.035,0,0,1,69.37,22.035,22.035,22.035,0,0,1,47.334,0h-25.3A22.035,22.035,0,0,1,0,22.035V181.177a22.035,22.035,0,0,1,22.035,22.035h25.3a22.035,22.035,0,1,1,44.07,0h25.3A22.035,22.035,0,0,1,138.739,181.177Z" transform="translate(0 0)" fill="#707070"/>
        <path id="Trazado_44924" data-name="Trazado 44924" d="M0,0H106.095V133.795H0Z" transform="translate(16.322 34.714)"/>
        <path id="Trazado_44925" data-name="Trazado 44925" d="M14.164,38.7,0,19.35l23.839,2.592L33.514,0l9.674,21.942,23.84-2.592L52.864,38.7,67.029,58.05l-23.84-2.592L33.514,77.4,23.839,55.458,0,58.05Z" transform="translate(35.855 62.911)" fill="#fff"/>
      </g>
      <g id="Page-1" transform="translate(137.887 86.211)">
        <g id="_007---Mineral-Water" data-name="007---Mineral-Water" transform="translate(0 0)">
          <path id="Shape" d="M64.708,35.482l-1.274,3.764L51.817,73.326,41,105.125,46.927,34Z" transform="translate(21.234 6.008)" fill="#707070"/>
          <path id="Shape-2" data-name="Shape" d="M68.635,61.99,50.854,60.508,39,20.5Z" transform="translate(17.307 -20.5)" fill="#e7e7e7"/>
          <path id="Shape-3" data-name="Shape" d="M70.49,60.508H29L58.635,20.5Z" transform="translate(-2.328 -20.5)" fill="#272727"/>
          <path id="Shape-4" data-name="Shape" d="M70.49,34l-5.927,71.125H46.781l-.711-.563-.089-.059L38.839,74.808l-.03-.03L32.141,47.01,31.134,42.8H31.1L29,34Z" transform="translate(-2.328 6.008)"/>
          <path id="Shape-5" data-name="Shape" d="M34.73,57.79l.148.622h.652" transform="translate(8.923 52.72)" fill="#90bae1"/>
          <path id="Shape-6" data-name="Shape" d="M44.7,66.158,26,46.125,38.032,38.39Z" transform="translate(-8.219 14.628)" fill="#2f2f2f"/>
          <path id="Shape-7" data-name="Shape" d="M49.813,47.01,37.781,54.745,20,34l28.776,8.8h.03Z" transform="translate(-20 6.008)" fill="#d1d1d1"/>
          <path id="Shape-8" data-name="Shape" d="M37.781,54.745,20.148,72.467,20,34Z" transform="translate(-20 6.008)" fill="#3c3c3c"/>
          <path id="Shape-9" data-name="Shape" d="M63.555,90.758l-12.714-8.09L20.05,58.722,37.683,41l18.7,20.034.03.03Z" transform="translate(-19.902 19.753)" fill="#292929"/>
          <path id="Shape-10" data-name="Shape" d="M81.665,33.58,67.706,48.9,44.65,74.151,56.267,40.07Z" transform="translate(28.401 5.183)" fill="#3e3e3e"/>
          <path id="Shape-11" data-name="Shape" d="M68.967,63.3,52.43,48.9,66.388,33.58Z" transform="translate(43.678 5.183)" fill="#fff"/>
          <path id="Shape-12" data-name="Shape" d="M91.41,53.153,54.573,95.8H41L51.817,64,74.873,38.75Z" transform="translate(21.234 15.335)" fill="#2f2f2f"/>
        </g>
      </g>
    </g>
    <rect id="Rectángulo_1957" data-name="Rectángulo 1957" width="307" height="307" transform="translate(0 0.413)" fill="none"/>
    <g id="Grupo_7304" data-name="Grupo 7304" transform="translate(10183 17603.193)">
      <circle id="Elipse_427" data-name="Elipse 427" cx="36.5" cy="36.5" r="36.5" transform="translate(-10056 -17424.779)" fill="#5e19be"/>
      <text id="X2" transform="translate(-10042 -17375.779)" fill="#fff" font-size="36" font-family="Poppins-SemiBold, Poppins" font-weight="600"><tspan x="0" y="0">X2</tspan></text>
    </g>
  </g>
</svg>
