<svg xmlns="http://www.w3.org/2000/svg" width="100" height="100" viewBox="0 0 100 100"><defs><style>.a{fill:#fff;}.b{fill:none;}</style></defs><g transform="translate(-441 -64)"><g transform="translate(456.176 81.371)"><path class="a" d="M74.351,17.86c-1.129-9.5-2.846-10.96-12.418-11.8-11.7-1.029-23.408-.794-35.116-.549A97.648,97.648,0,0,0,14.923,6.592c-5.823.841-7.5,2.455-8.311,8.3a139.16,139.16,0,0,0-.036,37.635c.468,3.491,1.433,5.684,3.264,6.979l.042.029c.158.11.319.214.489.31a15.077,15.077,0,0,0,6.208,1.641q2.382.24,4.767.412-1.277,4.515-2.556,9.03c-.337,1.188-.984,2.444.225,3.46,1.383,1.164,2.551.127,3.715-.558q1.448-.853,2.886-1.73c4.466-2.726,8.968-5.4,13.379-8.213a9.878,9.878,0,0,1,5.621-1.612,177.75,177.75,0,0,0,19.406-.867c6.936-.7,9.289-2.705,10.076-9.623A146.2,146.2,0,0,0,74.351,17.86ZM55.379,37.09,52.431,42.27l-8.841-5.5.317,10.434H37.934l.32-10.434-8.843,5.5L26.465,37.09l9.163-4.859-9.163-4.937,2.947-5.179,8.843,5.5-.32-10.356h5.973L43.59,27.614l8.841-5.5,2.948,5.179-9.16,4.937Z" transform="translate(-5.315 -5.298)"/></g><rect class="b" width="100" height="100" transform="translate(441 64)"/></g></svg>