<svg xmlns="http://www.w3.org/2000/svg" width="100" height="100" viewBox="0 0 100 100"><defs><style>.a{fill:#fff;}.b{fill:none;}</style></defs><g transform="translate(-610 -64)"><path class="a" d="M32.8,10.967H38.42l8.986,31.22a10.1,10.1,0,0,0,9.7,7.285h26.76a10.1,10.1,0,0,0,9.7-7.3L99.4,21.927a6.3,6.3,0,0,0-6.056-8.044H50.453L47.771,5.669A6.775,6.775,0,0,0,41.323,1h-8.4a5.062,5.062,0,0,0-5.009,3.924A4.983,4.983,0,0,0,32.8,10.967ZM52.807,63.873a6.657,6.657,0,1,0,6.644-6.631A6.657,6.657,0,0,0,52.807,63.873Zm22.1,0a6.723,6.723,0,1,0-.013,0Z" transform="translate(596.533 79.955)"/><rect class="b" width="100" height="100" transform="translate(610 64)"/></g></svg>