<svg xmlns="http://www.w3.org/2000/svg" width="100" height="100" viewBox="0 0 100 100"><defs><style>.a{fill:#fff;}.b{fill:none;}</style></defs><g transform="translate(-272 -212)"><g transform="translate(282.953 231.271)"><g transform="translate(0.001 0)"><path class="a" d="M25.309,54.277a7.083,7.083,0,0,1,0,3.622,7.237,7.237,0,0,1-14.018,0,7.084,7.084,0,0,1,0-3.622c0-.018,0-.018.018-.036a2.53,2.53,0,0,1,.163-.525,7.029,7.029,0,0,1,1.123-2.083,2.844,2.844,0,0,1,.38-.435,2.619,2.619,0,0,1,.38-.4,7.281,7.281,0,0,1,4.2-1.92c.254-.018.489-.036.743-.036s.489.018.743.036a7.281,7.281,0,0,1,4.2,1.92,2.62,2.62,0,0,1,.38.4,2.844,2.844,0,0,1,.38.435,7.029,7.029,0,0,1,1.123,2.083,2.53,2.53,0,0,1,.163.525C25.309,54.259,25.309,54.259,25.309,54.277ZM54.522,9H3.811A1.816,1.816,0,0,0,2,10.811V56.089A1.816,1.816,0,0,0,3.811,57.9H7.6a9.485,9.485,0,0,1-.163-1.811,9.933,9.933,0,0,1,.235-2.246V52.72l.471-.453a10.5,10.5,0,0,1,1.594-2.843,5.238,5.238,0,0,1,.561-.688,7.692,7.692,0,0,1,.67-.652,10.727,10.727,0,0,1,6.23-2.807c.471-.036.779-.054,1.1-.054s.634.018.942.036a10.9,10.9,0,0,1,6.448,2.88,4.941,4.941,0,0,1,.616.616,6.536,6.536,0,0,1,.6.706,10.237,10.237,0,0,1,1.539,2.789l.471.435.018,1.123a10.374,10.374,0,0,1,.235,2.282,11.646,11.646,0,0,1-.145,1.811H54.685a9.907,9.907,0,0,1-.163-1.811,10.682,10.682,0,0,1,1.811-5.995V10.811A1.811,1.811,0,0,0,54.522,9Zm5.433,9.146V34.355H80.529A23.5,23.5,0,0,0,59.955,18.146ZM79.877,47.033h1.811V41.6a24.026,24.026,0,0,0-.272-3.622H59.955v8.711a10.608,10.608,0,0,1,5.433-1.467A10.875,10.875,0,0,1,76.255,56.089a9.907,9.907,0,0,1-.163,1.811h3.785a1.816,1.816,0,0,0,1.811-1.811V50.655H79.877a1.811,1.811,0,1,1,0-3.622Zm-7.462,7.281c-.018-.036-.018-.054-.036-.072a2.531,2.531,0,0,0-.163-.525,6.581,6.581,0,0,0-1.5-2.517,2.62,2.62,0,0,0-.38-.4,7.174,7.174,0,0,0-4.944-1.956,3.513,3.513,0,0,0-.616.036,1.787,1.787,0,0,0-.435.054,5.438,5.438,0,0,0-.942.2c-.127.036-.235.072-.344.109a6.773,6.773,0,0,0-1.992,1.05,3.934,3.934,0,0,0-.525.435.181.181,0,0,0-.091.072,4.287,4.287,0,0,0-.489.507,7.244,7.244,0,0,0-1.811,4.781,6.585,6.585,0,0,0,.235,1.793,1.033,1.033,0,0,1-.235.018h.235a7.238,7.238,0,0,0,14.018,0,.063.063,0,0,0,.018-.036c.054-.217.091-.435.127-.652a7.007,7.007,0,0,0,0-2.246C72.506,54.748,72.47,54.531,72.416,54.314Z" transform="translate(-2 -9)"/></g></g><rect class="b" width="100" height="100" transform="translate(272 212)"/></g></svg>