<svg xmlns="http://www.w3.org/2000/svg" width="100" height="100" viewBox="0 0 100 100"><defs><style>.a{fill:#fff;}.b{fill:none;}</style></defs><g transform="translate(-272 -64)"><g transform="translate(284.227 78.445)"><path class="a" d="M20.687,47.245h43.4c10.637,0,14.866-2.7,15.687-10.768V30.9c0-4.5-1.77-6.274-6.274-6.274H11.274C6.77,24.628,5,26.4,5,30.9v5.572C5.821,44.541,10.049,47.245,20.687,47.245Z" transform="translate(-5 -12.013)"/><path class="a" d="M64.087,54.579H49.5V65.658c0,1.689-.664,2.353-2.355,2.353h-9.51c-1.69,0-2.354-.664-2.354-2.353V54.579H20.687c-6.913,0-12.421-1.086-15.687-5.135V77.325C5,81.831,6.77,83.6,11.274,83.6H73.5c4.5,0,6.274-1.769,6.274-6.274V49.445C76.507,53.493,71,54.579,64.087,54.579Z" transform="translate(-5 -16.211)"/><path class="a" d="M46.005,55.625c-.562,0-.784.223-.784.783v8.725c0,.564.222.785.784.785h6.373c.563,0,.783-.222.783-.783V56.408c0-.563-.221-.783-.783-.783Z" transform="translate(-11.805 -17.257)"/><path class="a" d="M44.165,13.758h5.959c5.155,0,5.557.793,5.557,5.949h5.489c0-9.667-.594-10.262-10.261-10.262H43.38c-9.667,0-10.262.595-10.262,10.262h5.491C38.609,14.551,39.009,13.758,44.165,13.758Z" transform="translate(-9.757 -9.444)"/></g><rect class="b" width="100" height="100" transform="translate(272 64)"/></g></svg>