<svg xmlns="http://www.w3.org/2000/svg" width="100" height="100" viewBox="0 0 100 100"><defs><style>.a{fill:#fff;}.b{fill:none;}</style></defs><g transform="translate(-779 -212)"><g transform="translate(797.967 221.33)"><g transform="translate(0 0)"><path class="a" d="M46.475,40.711c-.33.187-.651.385-.988.562a33.561,33.561,0,0,1-14.9,3.891h-.019L36.6,61.123a1.728,1.728,0,0,0,1.508,1.14h.123a1.785,1.785,0,0,0,1.543-.912l3.49-6.383,6.594,3.122a1.749,1.749,0,0,0,2.385-2.21Z" transform="translate(0.862 18.407)"/><path class="a" d="M23.963,41.325c-.341-.177-.665-.374-1-.561L17.237,55.839a1.749,1.749,0,0,0,2.385,2.21l6.594-3.122,3.507,6.383a1.785,1.785,0,0,0,1.543.912h.123a1.728,1.728,0,0,0,1.508-1.14l6.031-15.96c-.077,0-.147,0-.229-.005A33.116,33.116,0,0,1,23.963,41.325Z" transform="translate(-9.275 18.447)"/><path class="a" d="M43.072,7A30.284,30.284,0,0,0,12.645,37.041,30.264,30.264,0,0,0,42.282,67.064c.281.018.526.018.789.018.333,0,.649,0,.93-.018A30.036,30.036,0,0,0,43.072,7Zm0,52.365A22.326,22.326,0,1,1,65.677,37.041,22.488,22.488,0,0,1,43.072,59.365Z" transform="translate(-12.645 -7)"/><path class="a" d="M48.161,27.679l-5.033,5.156,1.193,7.313a1.744,1.744,0,0,1-1.736,2.034,1.815,1.815,0,0,1-.842-.21L35.6,38.57l-6.138,3.4a1.756,1.756,0,0,1-2.578-1.824l1.192-7.313-5.033-5.156a1.748,1.748,0,0,1,1-2.946l6.874-1.052,3.087-6.611a1.774,1.774,0,0,1,3.192,0l3.086,6.611,6.875,1.052a1.748,1.748,0,0,1,1,2.946Z" transform="translate(-5.178 -0.164)"/></g></g><rect class="b" width="100" height="100" transform="translate(779 212)"/></g></svg>