<svg xmlns="http://www.w3.org/2000/svg" width="100" height="100" viewBox="0 0 100 100"><defs><style>.a{fill:#fff;}.b{fill:none;}</style></defs><g transform="translate(-441 -212)"><g transform="translate(454.953 235.824)"><g transform="translate(0.001 0.001)"><path class="a" d="M76.42,16.747H67.61V7.937A2.937,2.937,0,0,0,64.673,5H5.937A2.937,2.937,0,0,0,3,7.937V49.052a2.937,2.937,0,0,0,2.937,2.937h8.81V60.8a2.937,2.937,0,0,0,2.937,2.937H76.42A2.937,2.937,0,0,0,79.357,60.8V19.684A2.937,2.937,0,0,0,76.42,16.747ZM49.989,13.81h5.874a2.937,2.937,0,1,1,0,5.874H49.989a2.937,2.937,0,1,1,0-5.874ZM36.773,31.431H33.836a7.342,7.342,0,0,1-1.468-14.537v-.147a2.937,2.937,0,0,1,5.874,0h2.937a2.937,2.937,0,1,1,0,5.874H33.836a1.468,1.468,0,1,0,0,2.937h2.937a7.379,7.379,0,1,1,1.468,14.684h0a2.937,2.937,0,0,1-5.874,0H29.431a2.937,2.937,0,1,1,0-5.874h7.342a1.468,1.468,0,1,0,0-2.937ZM11.81,40.241A2.937,2.937,0,0,1,14.747,37.3h5.874a2.937,2.937,0,1,1,0,5.874H14.747A2.937,2.937,0,0,1,11.81,40.241ZM73.483,57.862H20.621V51.989H64.673a2.937,2.937,0,0,0,2.937-2.937V22.621h5.874Z" transform="translate(-3 -5)"/></g></g><rect class="b" width="100" height="100" transform="translate(441 212)"/></g></svg>