<svg xmlns="http://www.w3.org/2000/svg" width="100" height="100" viewBox="0 0 100 100"><defs><style>.a{fill:#fff;}.b{fill:none;}</style></defs><g transform="translate(-779 -64)"><g transform="translate(788.139 81.371)"><g transform="translate(-0.001 -0.001)"><path class="a" d="M135.575,317.31h-.29c.039.464.048.928.048,1.393v.058c0,.484-.019.967-.058,1.441a18.551,18.551,0,0,1-36.978,0c-.039-.474-.058-.958-.058-1.441v-.068c0-.464.019-.928.048-1.393H96.952a5.524,5.524,0,0,0-5.552,5.339V356.2a5.13,5.13,0,0,0,1.712,3.8,5.763,5.763,0,0,0,3.84,1.5h6.955a8.221,8.221,0,0,0,16.211,0h20.709V322.659A5.236,5.236,0,0,0,135.575,317.31Zm-23.553,47.183a4.359,4.359,0,0,1-4.353-4.353v-.048a4.353,4.353,0,0,1,8.705,0v.048A4.359,4.359,0,0,1,112.022,364.492Z" transform="translate(-91.4 -304.029)"/><path class="a" d="M642.414,409.836v-3.869H660.4L648.759,391.4H632.5v37.046h5.04a8.221,8.221,0,0,0,16.211,0h7.767v-18.61Zm7.361,18.61a4.352,4.352,0,0,1-8.483-1.383v-.068a4.481,4.481,0,0,1,.271-1.451,4.343,4.343,0,0,1,8.144,0,4.03,4.03,0,0,1,.271,1.451v.068A3.809,3.809,0,0,1,649.775,428.446Z" transform="translate(-580.162 -370.962)"/><path class="a" d="M231.4,193.38a14.682,14.682,0,0,0-29.231,0,13.433,13.433,0,0,0-.068,1.393v.058a14.678,14.678,0,0,0,29.356-.01v-.058A13.339,13.339,0,0,0,231.4,193.38Zm-8.763,9.953-7.777-7.757v-9.005h3.869v7.4l6.635,6.616Z" transform="translate(-191.392 -180.1)"/></g></g><rect class="b" width="100" height="100" transform="translate(779 64)"/></g></svg>