<svg xmlns="http://www.w3.org/2000/svg" width="100" height="100" viewBox="0 0 100 100"><defs><style>.a{fill:#fff;}.b{fill:none;}</style></defs><g transform="translate(-103 -212)"><g transform="translate(112.922 224.287)"><g transform="translate(0.001 0)"><path class="a" d="M29.3,49.723V53.76H65.878V49.723A1.316,1.316,0,0,0,64.655,48.5H30.523A1.156,1.156,0,0,0,29.3,49.723Z" transform="translate(5.817 7.983)"/><path class="a" d="M68.407,54.8H29.015l-3.67,4.771a1.739,1.739,0,0,0-.245.734v4.037a1.316,1.316,0,0,0,1.223,1.223H71.1a1.226,1.226,0,0,0,1.223-1.223V60.305a1.738,1.738,0,0,0-.245-.734Z" transform="translate(4.879 9.39)"/><path class="a" d="M44.275,26.3,1.58,63.367c-1.59,1.468-1.1,4.037.367,5.75,1.59,1.713,4.037,2.569,5.627,1.223L50.269,33.273Z" transform="translate(-0.594 3.025)"/><path class="a" d="M36.3,25.645l9.664,11.132a11.031,11.031,0,0,1,1.1-1.223L59.421,24.789a9.339,9.339,0,0,1,1.346-.979L51.1,12.8A11.028,11.028,0,0,1,50,14.023L37.646,24.789A12.893,12.893,0,0,1,36.3,25.645Z" transform="translate(7.38 0.01)"/><path class="a" d="M28.195,20.154a4.531,4.531,0,0,0,2.936,1.468h0a4.028,4.028,0,0,0,.979,3.058,4.151,4.151,0,0,0,5.994.367L50.46,14.282A4.232,4.232,0,0,0,48.013,6.82h0a4.028,4.028,0,0,0-.979-3.058,4.258,4.258,0,0,0-5.994-.367L28.562,14.16a4.258,4.258,0,0,0-.367,5.994Z" transform="translate(5.332 -2.329)"/><path class="a" d="M68.934,29.2A4.531,4.531,0,0,0,66,27.731h0a4.028,4.028,0,0,0-.979-3.058,4.27,4.27,0,0,0-5.994-.489L46.669,34.949a4.151,4.151,0,0,0-.367,5.994,4.531,4.531,0,0,0,2.936,1.468h0a4.028,4.028,0,0,0,.979,3.058,4.243,4.243,0,0,0,5.994.367L68.567,35.194A4.243,4.243,0,0,0,68.934,29.2Z" transform="translate(9.367 2.328)"/></g></g><rect class="b" width="100" height="100" transform="translate(103 212)"/></g></svg>