<svg xmlns="http://www.w3.org/2000/svg" width="100" height="100" viewBox="0 0 100 100"><defs><style>.a{fill:#fff;}.b{fill:none;}</style></defs><g transform="translate(-103 -64)"><g transform="translate(113 81.08)"><path class="a" d="M68.148,45.653a16.019,16.019,0,0,1,15.958-16V19.535A6.4,6.4,0,0,0,77.868,13H11.435a6.526,6.526,0,0,0-1.407.256,5.058,5.058,0,0,1-4.869,4.891A6.8,6.8,0,0,0,5,19.535V24.5c3.516,0,5,2.238,5,5s-1.485,5-5,5v6.3c3.516,0,5,2.238,5,5s-1.485,5-5,5v6.3c3.516,0,5,2.238,5,5s-1.485,5-5,5v4.7a6.334,6.334,0,0,0,.223,1.61,4.934,4.934,0,0,1,4.787,4.553,6.467,6.467,0,0,0,1.425.08H77.868A6.152,6.152,0,0,0,84.107,71.8V61.653A16.019,16.019,0,0,1,68.148,45.653ZM53,41.259,39.469,55.791a4.147,4.147,0,0,1-5.829.035l-.037-.035-5.586-5.586a4.148,4.148,0,1,1,5.866-5.866l2.653,2.653,11.6-10.6c1.62-1.62,4.246-2.62,5.866-1S54.621,39.639,53,41.259Z" transform="translate(-5 -12.999)"/></g><rect class="b" width="100" height="100" transform="translate(103 64)"/></g></svg>