<svg xmlns="http://www.w3.org/2000/svg" width="100" height="100" viewBox="0 0 100 100"><defs><style>.a{fill:#fff;}.b{fill:none;}</style></defs><g transform="translate(-610 -212)"><g transform="translate(634.172 225.078)"><g transform="translate(-0.001 -0.001)"><path class="a" d="M17,21.943h2.648A2.5,2.5,0,0,0,22.3,19.3V16.648A2.5,2.5,0,0,0,19.648,14H17Z" transform="translate(12.123 17.77)"/><path class="a" d="M13,11.648V14.3a2.5,2.5,0,0,0,2.648,2.648H18.3V9H15.648A2.5,2.5,0,0,0,13,11.648Z" transform="translate(5.533 9.533)"/><path class="a" d="M51.008,2H13.943A7.8,7.8,0,0,0,6,9.943V68.188a8.213,8.213,0,0,0,2.383,5.825,7.915,7.915,0,0,0,11.12-.265l11.12-11.12a2.559,2.559,0,0,1,3.707,0l11.12,11.12a7.62,7.62,0,0,0,5.56,2.383,7.8,7.8,0,0,0,7.943-7.943V9.943A7.8,7.8,0,0,0,51.008,2ZM37.77,28.475a7.8,7.8,0,0,1,7.943,7.943v2.648a7.8,7.8,0,0,1-7.943,7.943H35.123a2.648,2.648,0,0,1-5.3,0H21.885a2.648,2.648,0,1,1,0-5.3h7.943V33.77H27.18a7.8,7.8,0,0,1-7.943-7.943V23.18a7.8,7.8,0,0,1,7.943-7.943h2.648a2.648,2.648,0,0,1,5.3,0h7.943a2.5,2.5,0,0,1,2.648,2.648,2.5,2.5,0,0,1-2.648,2.648H35.123v7.943Z" transform="translate(-6 -2)"/></g></g><rect class="b" width="100" height="100" transform="translate(610 212)"/></g></svg>